<svg width="193" height="61" viewBox="0 0 193 61" fill="none" xmlns="http://www.w3.org/2000/svg">
<g id="BTN 1">
<rect id="BG" width="193" height="61" rx="30.5" fill="white"/>
<g id="App Store">
<path id="Vector" d="M79.425 44.7362L77.6976 40.2975H70.6533L68.9708 44.7362H66.6152L72.9416 28.8421H75.4766L81.803 44.7362H79.425ZM74.153 31.1287L71.4385 38.2575H76.9124L74.153 31.1287ZM85.8048 48.9956H83.7184V33.9533H85.7599V35.6347C86.074 35.0668 86.5451 34.6035 87.1733 34.2448C87.8014 33.8861 88.5343 33.7068 89.3718 33.7068C90.9272 33.7068 92.1387 34.2373 93.0061 35.2984C93.8885 36.3595 94.3297 37.7046 94.3297 39.3336C94.3297 40.9775 93.8735 42.3376 92.9612 43.4136C92.0639 44.4896 90.845 45.0277 89.3045 45.0277C88.5118 45.0277 87.8089 44.8633 87.1957 44.5345C86.5825 44.2057 86.1189 43.7872 85.8048 43.2791V48.9956ZM92.176 39.3336C92.176 38.2426 91.8844 37.3459 91.3011 36.6435C90.7328 35.9261 89.9626 35.5674 88.9904 35.5674C88.0332 35.5674 87.2555 35.9261 86.6573 36.6435C86.074 37.3459 85.7824 38.2426 85.7824 39.3336C85.7824 40.4545 86.074 41.3736 86.6573 42.091C87.2555 42.7934 88.0332 43.1446 88.9904 43.1446C89.9476 43.1446 90.7178 42.7934 91.3011 42.091C91.8844 41.3736 92.176 40.4545 92.176 39.3336ZM99.1031 48.9956H97.0168V33.9533H99.0582V35.6347C99.3723 35.0668 99.8434 34.6035 100.472 34.2448C101.1 33.8861 101.833 33.7068 102.67 33.7068C104.226 33.7068 105.437 34.2373 106.304 35.2984C107.187 36.3595 107.628 37.7046 107.628 39.3336C107.628 40.9775 107.172 42.3376 106.26 43.4136C105.362 44.4896 104.143 45.0277 102.603 45.0277C101.81 45.0277 101.107 44.8633 100.494 44.5345C99.8808 44.2057 99.4172 43.7872 99.1031 43.2791V48.9956ZM105.474 39.3336C105.474 38.2426 105.183 37.3459 104.599 36.6435C104.031 35.9261 103.261 35.5674 102.289 35.5674C101.332 35.5674 100.554 35.9261 99.9556 36.6435C99.3723 37.3459 99.0807 38.2426 99.0807 39.3336C99.0807 40.4545 99.3723 41.3736 99.9556 42.091C100.554 42.7934 101.332 43.1446 102.289 43.1446C103.246 43.1446 104.016 42.7934 104.599 42.091C105.183 41.3736 105.474 40.4545 105.474 39.3336ZM126.288 32.4514L124.314 33.1463C124.21 32.4588 123.873 31.8386 123.305 31.2856C122.736 30.7177 121.951 30.4338 120.949 30.4338C120.067 30.4338 119.334 30.6878 118.751 31.196C118.167 31.7041 117.875 32.3318 117.875 33.0791C117.875 33.6619 118.047 34.1551 118.391 34.5586C118.751 34.9621 119.259 35.2386 119.917 35.3881L122.295 35.9037C123.611 36.1876 124.628 36.7257 125.346 37.5178C126.064 38.2949 126.423 39.2439 126.423 40.3648C126.423 41.6501 125.915 42.756 124.898 43.6826C123.881 44.6092 122.557 45.0725 120.927 45.0725C119.147 45.0725 117.748 44.6092 116.731 43.6826C115.729 42.7411 115.146 41.6277 114.981 40.3424L117.09 39.6699C117.18 40.6263 117.554 41.4334 118.212 42.091C118.87 42.7485 119.768 43.0773 120.904 43.0773C121.951 43.0773 122.759 42.8382 123.327 42.36C123.896 41.8817 124.18 41.2765 124.18 40.5441C124.18 39.9463 123.978 39.4307 123.574 38.9973C123.17 38.549 122.579 38.2426 121.802 38.0782L119.536 37.585C118.354 37.3309 117.412 36.8303 116.709 36.083C116.006 35.3358 115.654 34.3868 115.654 33.236C115.654 31.9806 116.163 30.8821 117.18 29.9406C118.212 28.9841 119.454 28.5059 120.904 28.5059C122.535 28.5059 123.783 28.9019 124.651 29.694C125.518 30.4861 126.064 31.4052 126.288 32.4514ZM131.83 30.5459V33.9533H134.163V35.8589H131.83V41.4633C131.83 41.9714 131.942 42.345 132.166 42.5841C132.405 42.8233 132.794 42.9428 133.333 42.9428C133.647 42.9428 133.923 42.9129 134.163 42.8532V44.6466C133.804 44.7811 133.325 44.8483 132.727 44.8483C131.8 44.8483 131.067 44.5793 130.528 44.0413C129.99 43.5033 129.721 42.7485 129.721 41.7771V35.8589H127.657V33.9533H128.24C128.794 33.9533 129.205 33.8039 129.474 33.505C129.758 33.1911 129.9 32.7876 129.9 32.2944V30.5459H131.83ZM139.089 42.1806C139.747 42.8532 140.547 43.1894 141.489 43.1894C142.431 43.1894 143.224 42.8532 143.867 42.1806C144.525 41.4932 144.854 40.5441 144.854 39.3336C144.854 38.138 144.525 37.2039 143.867 36.5314C143.224 35.8439 142.431 35.5002 141.489 35.5002C140.547 35.5002 139.747 35.8439 139.089 36.5314C138.446 37.2039 138.124 38.138 138.124 39.3336C138.124 40.5441 138.446 41.4932 139.089 42.1806ZM137.518 35.2536C138.565 34.1626 139.889 33.6171 141.489 33.6171C143.089 33.6171 144.405 34.1626 145.437 35.2536C146.484 36.3296 147.008 37.6896 147.008 39.3336C147.008 40.9925 146.492 42.3674 145.46 43.4584C144.428 44.5345 143.104 45.0725 141.489 45.0725C139.874 45.0725 138.55 44.5345 137.518 43.4584C136.486 42.3674 135.97 40.9925 135.97 39.3336C135.97 37.6896 136.486 36.3296 137.518 35.2536ZM155.696 33.8413V36.083C155.382 36.0382 155.075 36.0158 154.776 36.0158C152.802 36.0158 151.815 37.1217 151.815 39.3336V44.7362H149.706V33.9533H151.77V35.8364C152.428 34.4615 153.505 33.774 155.001 33.774C155.24 33.774 155.472 33.7964 155.696 33.8413ZM159.202 38.2351H165.102C165.072 37.4281 164.803 36.7705 164.295 36.2624C163.786 35.7393 163.068 35.4777 162.141 35.4777C161.304 35.4777 160.616 35.7542 160.077 36.3072C159.539 36.8452 159.247 37.4879 159.202 38.2351ZM165.416 41.0373L167.234 41.665C166.92 42.6663 166.336 43.4883 165.484 44.131C164.631 44.7587 163.599 45.0725 162.388 45.0725C160.877 45.0725 159.591 44.5569 158.529 43.5257C157.482 42.4795 156.959 41.0747 156.959 39.3112C156.959 37.6672 157.467 36.3072 158.484 35.2312C159.501 34.1551 160.713 33.6171 162.119 33.6171C163.749 33.6171 165.02 34.1327 165.932 35.1639C166.845 36.1802 167.301 37.5476 167.301 39.2663C167.301 39.5353 167.286 39.7595 167.256 39.9389H159.135C159.15 40.8953 159.464 41.68 160.077 42.2927C160.705 42.9055 161.476 43.2118 162.388 43.2118C163.928 43.2118 164.938 42.487 165.416 41.0373Z" fill="#0F0F0F"/>
<path id="Vector_2" opacity="0.6" d="M68.2624 19.0899V15.2212H69.211C70.2024 15.2212 71.0228 15.8447 71.0228 17.1598C71.0228 18.475 70.1938 19.0899 69.2025 19.0899H68.2624ZM69.2452 20.183C70.9716 20.183 72.245 19.0728 72.245 17.1598C72.245 15.2468 70.9801 14.1281 69.2538 14.1281H67.083V20.183H69.2452ZM75.1989 17.1513C75.1989 15.7849 76.156 15.1358 77.0876 15.1358C78.0277 15.1358 78.9849 15.7849 78.9849 17.1513C78.9849 18.5177 78.0277 19.1667 77.0876 19.1667C76.156 19.1667 75.1989 18.5177 75.1989 17.1513ZM73.9767 17.1598C73.9767 19.107 75.4467 20.3111 77.0876 20.3111C78.737 20.3111 80.207 19.107 80.207 17.1598C80.207 15.2041 78.737 14 77.0876 14C75.4467 14 73.9767 15.2041 73.9767 17.1598ZM87.7807 18.3127L86.4304 14.1281H85.2082L83.8665 18.2956L82.7555 14.1281H81.5077L83.1913 20.183H84.422L85.8065 15.8703L87.191 20.183H88.4045L90.0796 14.1281H88.8746L87.7807 18.3127ZM97.1161 20.183V14.1281H95.9367V18.1334L93.4155 14.1281H91.9456V20.183H93.125V15.8874L95.8769 20.183H97.1161ZM103.446 20.183V19.0557H100.745V14.1281H99.5655V20.183H103.446ZM106.079 17.1513C106.079 15.7849 107.036 15.1358 107.968 15.1358C108.908 15.1358 109.865 15.7849 109.865 17.1513C109.865 18.5177 108.908 19.1667 107.968 19.1667C107.036 19.1667 106.079 18.5177 106.079 17.1513ZM104.857 17.1598C104.857 19.107 106.327 20.3111 107.968 20.3111C109.617 20.3111 111.087 19.107 111.087 17.1598C111.087 15.2041 109.617 14 107.968 14C106.327 14 104.857 15.2041 104.857 17.1598ZM116.996 20.183H118.278L115.971 14.1281H114.603L112.279 20.183H113.527L114.031 18.7995H116.492L116.996 20.183ZM115.262 15.4347L116.099 17.7235H114.424L115.262 15.4347ZM121.301 19.0899V15.2212H122.249C123.241 15.2212 124.061 15.8447 124.061 17.1598C124.061 18.475 123.232 19.0899 122.241 19.0899H121.301ZM122.283 20.183C124.01 20.183 125.283 19.0728 125.283 17.1598C125.283 15.2468 124.018 14.1281 122.292 14.1281H120.121V20.183H122.283ZM131.417 17.1513C131.417 15.7849 132.374 15.1358 133.306 15.1358C134.246 15.1358 135.203 15.7849 135.203 17.1513C135.203 18.5177 134.246 19.1667 133.306 19.1667C132.374 19.1667 131.417 18.5177 131.417 17.1513ZM130.195 17.1598C130.195 19.107 131.665 20.3111 133.306 20.3111C134.955 20.3111 136.425 19.107 136.425 17.1598C136.425 15.2041 134.955 14 133.306 14C131.665 14 130.195 15.2041 130.195 17.1598ZM143.686 20.183V14.1281H142.507V18.1334L139.986 14.1281H138.516V20.183H139.695V15.8874L142.447 20.183H143.686ZM153.777 15.2468V14.1281H148.761V15.2468H150.675V20.183H151.863V15.2468H153.777ZM160.684 20.183V14.1281H159.496V16.562H156.855V14.1281H155.676V20.183H156.855V17.6722H159.496V20.183H160.684ZM166.931 20.183V19.0728H164.316V17.6722H166.683V16.6218H164.316V15.2383H166.931V14.1281H163.137V20.183H166.931Z" fill="#0F0F0F"/>
<path id="Vector_3" d="M52.3685 38.3489C51.6748 39.884 51.3436 40.5693 50.4503 41.9257C49.2058 43.8198 47.4497 46.179 45.2737 46.199C43.3409 46.217 42.8442 44.942 40.2201 44.9574C37.5962 44.9727 37.0494 46.2217 35.1164 46.2037C32.9404 46.1844 31.278 44.0539 30.032 42.1585C26.5494 36.861 26.1856 30.6448 28.3334 27.3402C29.8598 24.9903 32.2688 23.6173 34.5329 23.6173C36.8384 23.6173 38.2879 24.8802 40.1948 24.8802C42.0442 24.8802 43.1706 23.6152 45.8366 23.6152C47.8517 23.6152 49.9869 24.7115 51.5086 26.6055C46.523 29.335 47.3336 36.4467 52.3685 38.3489Z" fill="#0F0F0F"/>
<path id="Vector_4" d="M44.0953 20.2995C45.0641 19.0571 45.7985 17.3045 45.5314 15.5117C43.9491 15.6199 42.0996 16.626 41.0193 17.937C40.0385 19.1266 39.2286 20.8913 39.5437 22.6066C41.2697 22.6607 43.0571 21.6298 44.0953 20.2995Z" fill="#0F0F0F"/>
</g>
</g>
</svg>
