<svg width="202" height="61" viewBox="0 0 202 61" fill="none" xmlns="http://www.w3.org/2000/svg">
<g id="BTN 2">
<rect id="BG" width="202" height="61" rx="30.5" fill="white"/>
<g id="Play Store">
<path id="Vector" d="M75.076 44.5019H73.3031L73.1011 42.2601C72.7122 42.9625 72.0763 43.5678 71.1936 44.0759C70.3109 44.5841 69.2487 44.8381 68.0069 44.8381C66.6455 44.8381 65.3888 44.5318 64.2368 43.919C63.0848 43.2913 62.1348 42.3348 61.3867 41.0495C60.6537 39.7643 60.2871 38.2623 60.2871 36.5436C60.2871 34.8249 60.6761 33.3229 61.4541 32.0376C62.232 30.7524 63.2045 29.8034 64.3714 29.1906C65.5534 28.5779 66.8176 28.2715 68.164 28.2715C69.8696 28.2715 71.3507 28.7124 72.6074 29.5941C73.8791 30.4609 74.7469 31.6192 75.2106 33.0689L73.2134 33.9207C72.8543 32.77 72.2259 31.8807 71.3283 31.253C70.4456 30.6104 69.3908 30.2891 68.164 30.2891C66.6231 30.2891 65.299 30.8346 64.1919 31.9256C63.0848 33.0166 62.5312 34.5559 62.5312 36.5436C62.5312 38.5462 63.0698 40.1005 64.147 41.2065C65.2392 42.2975 66.5483 42.843 68.0743 42.843C68.9121 42.843 69.6527 42.7085 70.296 42.4394C70.9543 42.1704 71.4629 41.8192 71.822 41.3858C72.196 40.9375 72.4728 40.4891 72.6523 40.0408C72.8468 39.5924 72.959 39.144 72.9889 38.6957H67.4684V36.7229H75.076V44.5019ZM80.454 41.9463C81.1123 42.6188 81.9127 42.955 82.8552 42.955C83.7978 42.955 84.5907 42.6188 85.234 41.9463C85.8923 41.2588 86.2215 40.3098 86.2215 39.0992C86.2215 37.9036 85.8923 36.9695 85.234 36.297C84.5907 35.6095 83.7978 35.2658 82.8552 35.2658C81.9127 35.2658 81.1123 35.6095 80.454 36.297C79.8107 36.9695 79.489 37.9036 79.489 39.0992C79.489 40.3098 79.8107 41.2588 80.454 41.9463ZM78.8831 35.0192C79.9304 33.9282 81.2544 33.3827 82.8552 33.3827C84.4561 33.3827 85.7726 33.9282 86.8049 35.0192C87.8522 36.0952 88.3758 37.4552 88.3758 39.0992C88.3758 40.7581 87.8597 42.1331 86.8274 43.2241C85.7951 44.3001 84.471 44.8381 82.8552 44.8381C81.2395 44.8381 79.9154 44.3001 78.8831 43.2241C77.8508 42.1331 77.3347 40.7581 77.3347 39.0992C77.3347 37.4552 77.8508 36.0952 78.8831 35.0192ZM93.2965 41.9463C93.9548 42.6188 94.7552 42.955 95.6977 42.955C96.6403 42.955 97.4332 42.6188 98.0765 41.9463C98.7348 41.2588 99.0639 40.3098 99.0639 39.0992C99.0639 37.9036 98.7348 36.9695 98.0765 36.297C97.4332 35.6095 96.6403 35.2658 95.6977 35.2658C94.7552 35.2658 93.9548 35.6095 93.2965 36.297C92.6532 36.9695 92.3315 37.9036 92.3315 39.0992C92.3315 40.3098 92.6532 41.2588 93.2965 41.9463ZM91.7256 35.0192C92.7728 33.9282 94.0969 33.3827 95.6977 33.3827C97.2985 33.3827 98.6151 33.9282 99.6474 35.0192C100.695 36.0952 101.218 37.4552 101.218 39.0992C101.218 40.7581 100.702 42.1331 99.6698 43.2241C98.6375 44.3001 97.3135 44.8381 95.6977 44.8381C94.0819 44.8381 92.7579 44.3001 91.7256 43.2241C90.6933 42.1331 90.1771 40.7581 90.1771 39.0992C90.1771 37.4552 90.6933 36.0952 91.7256 35.0192ZM103.132 45.0847L105.174 44.614C105.249 45.3762 105.555 46.0038 106.094 46.497C106.633 47.0052 107.306 47.2592 108.114 47.2592C110.313 47.2592 111.413 46.0935 111.413 43.7621V42.2153C111.143 42.7383 110.717 43.1643 110.134 43.4931C109.565 43.8219 108.892 43.9863 108.114 43.9863C106.678 43.9863 105.488 43.5005 104.546 42.5291C103.618 41.5427 103.154 40.2873 103.154 38.7629C103.154 37.2834 103.618 36.0429 104.546 35.0416C105.473 34.0253 106.663 33.5172 108.114 33.5172C109.759 33.5172 110.867 34.0851 111.435 35.221V33.719H113.522V43.6948C113.522 44.4122 113.425 45.0773 113.231 45.69C113.051 46.3177 112.759 46.8931 112.355 47.4162C111.951 47.9392 111.383 48.3502 110.65 48.6491C109.932 48.948 109.086 49.0975 108.114 49.0975C106.782 49.0975 105.653 48.7164 104.725 47.9542C103.798 47.2069 103.266 46.2504 103.132 45.0847ZM108.428 42.2153C109.341 42.2153 110.081 41.9014 110.65 41.2737C111.218 40.6311 111.502 39.7942 111.502 38.7629C111.502 37.7317 111.218 36.9023 110.65 36.2746C110.081 35.6319 109.341 35.3106 108.428 35.3106C107.5 35.3106 106.745 35.6245 106.161 36.2522C105.593 36.8799 105.309 37.7168 105.309 38.7629C105.309 39.824 105.585 40.6684 106.139 41.2961C106.707 41.9089 107.47 42.2153 108.428 42.2153ZM119 44.5019H116.891V28.2715H119V44.5019ZM123.958 38.0007H129.86C129.83 37.1937 129.56 36.5361 129.052 36.028C128.543 35.5049 127.825 35.2434 126.897 35.2434C126.06 35.2434 125.371 35.5199 124.833 36.0728C124.294 36.6109 124.003 37.2535 123.958 38.0007ZM130.174 40.803L131.992 41.4306C131.677 42.432 131.094 43.2539 130.241 43.8966C129.388 44.5243 128.356 44.8381 127.144 44.8381C125.633 44.8381 124.347 44.3225 123.284 43.2913C122.237 42.2452 121.713 40.8403 121.713 39.0768C121.713 37.4328 122.222 36.0728 123.239 34.9968C124.257 33.9207 125.469 33.3827 126.875 33.3827C128.506 33.3827 129.777 33.8983 130.69 34.9295C131.603 35.9458 132.059 37.3133 132.059 39.032C132.059 39.301 132.044 39.5251 132.014 39.7045H123.89C123.905 40.661 124.219 41.4456 124.833 42.0583C125.461 42.6711 126.232 42.9775 127.144 42.9775C128.685 42.9775 129.695 42.2526 130.174 40.803ZM142.786 36.028H145.973C146.915 36.028 147.663 35.7889 148.217 35.3106C148.77 34.8174 149.047 34.1599 149.047 33.3379C149.047 32.5009 148.77 31.8359 148.217 31.3427C147.663 30.8346 146.915 30.5805 145.973 30.5805H142.786V36.028ZM146.377 38.0007H142.786V44.5019H140.587V28.6077H146.377C147.828 28.6077 149.01 29.0561 149.922 29.9528C150.835 30.8495 151.291 31.9704 151.291 33.3155C151.291 34.6755 150.835 35.7963 149.922 36.6781C149.01 37.5599 147.828 38.0007 146.377 38.0007ZM155.643 44.5019H153.533V28.2715H155.643V44.5019ZM158.558 41.61C158.558 40.6834 158.857 39.9436 159.456 39.3906C160.054 38.8227 160.847 38.4715 161.834 38.337L164.752 37.9111C165.305 37.8364 165.582 37.5673 165.582 37.104C165.582 36.5361 165.388 36.0728 164.999 35.7141C164.61 35.3555 164.026 35.1761 163.248 35.1761C162.53 35.1761 161.962 35.3779 161.543 35.7814C161.124 36.17 160.877 36.693 160.802 37.3506L158.782 36.8799C158.887 35.8487 159.358 35.0117 160.196 34.3691C161.034 33.7115 162.036 33.3827 163.203 33.3827C164.729 33.3827 165.859 33.7563 166.592 34.5036C167.325 35.2359 167.692 36.1774 167.692 37.3282V42.7309C167.692 43.3735 167.737 43.9638 167.826 44.5019H165.762C165.687 44.0535 165.649 43.5678 165.649 43.0447C165.35 43.523 164.909 43.9414 164.325 44.3001C163.757 44.6588 163.039 44.8381 162.171 44.8381C161.109 44.8381 160.241 44.5243 159.568 43.8966C158.895 43.2539 158.558 42.4917 158.558 41.61ZM162.463 43.0671C163.405 43.0671 164.161 42.8131 164.729 42.3049C165.298 41.7968 165.582 40.9898 165.582 39.8838V39.3906L162.283 39.8838C161.805 39.9586 161.423 40.1304 161.139 40.3994C160.854 40.6684 160.712 41.0346 160.712 41.4979C160.712 41.9164 160.869 42.2825 161.184 42.5964C161.513 42.9102 161.939 43.0671 162.463 43.0671ZM173.453 49.0078H171.141L173.834 43.3137L169.189 33.719H171.612L174.979 41.1616L178.21 33.719H180.477L173.453 49.0078Z" fill="#0F0F0F"/>
<path id="Vector_2" opacity="0.6" d="M66.5271 19.9486V16.7973H63.5007V17.8222H65.4157C65.3473 18.2492 64.9113 19.0007 63.7914 19.0007C62.7741 19.0007 61.8764 18.2919 61.8764 16.9254C61.8764 15.4907 62.8681 14.8673 63.7829 14.8673C64.766 14.8673 65.2704 15.4907 65.4243 16.0287L66.5528 15.6274C66.2535 14.6965 65.373 13.7656 63.7829 13.7656C62.1414 13.7656 60.6795 14.9698 60.6795 16.9254C60.6795 18.8811 62.073 20.0767 63.7059 20.0767C64.6207 20.0767 65.2191 19.6668 65.4927 19.2569L65.5696 19.9486H66.5271ZM73.1163 19.9486V18.8384H70.5003V17.4378H72.8684V16.3874H70.5003V15.0039H73.1163V13.8937H69.3205V19.9486H73.1163ZM80.4622 15.0125V13.8937H75.4438V15.0125H77.3588V19.9486H78.5472V15.0125H80.4622ZM87.8077 19.9486V13.8937H86.6108V19.9486H87.8077ZM95.2562 15.0125V13.8937H90.2379V15.0125H92.1529V19.9486H93.3412V15.0125H95.2562ZM102.268 16.9169C102.268 15.5505 103.226 14.9015 104.158 14.9015C105.098 14.9015 106.055 15.5505 106.055 16.9169C106.055 18.2833 105.098 18.9324 104.158 18.9324C103.226 18.9324 102.268 18.2833 102.268 16.9169ZM101.046 16.9254C101.046 18.8726 102.516 20.0767 104.158 20.0767C105.807 20.0767 107.278 18.8726 107.278 16.9254C107.278 14.9698 105.807 13.7656 104.158 13.7656C102.516 13.7656 101.046 14.9698 101.046 16.9254ZM115.076 19.9486V13.8937H113.897V17.899L111.374 13.8937H109.904V19.9486H111.084V15.653L113.837 19.9486H115.076Z" fill="#0F0F0F"/>
<g id="Group">
<path id="Vector_3" d="M26.2119 44.0649C25.5789 44.4735 24.8187 44.5971 24.1055 44.4288L36.6375 31.9102L40.6991 35.9674L26.2119 44.0649Z" fill="#0F0F0F"/>
<path id="Vector_4" d="M22.5507 43.4095C22.2012 42.9453 22 42.3754 22 41.7724V19.473C22 18.87 22.2012 18.3001 22.5507 17.8359L35.351 30.6226L22.5507 43.4095Z" fill="#0F0F0F"/>
<path id="Vector_5" d="M46.0003 33.004L42.3499 35.0442L37.9248 30.6238L42.3502 26.2031L46.0009 28.2436C46.8755 28.733 47.3976 29.6228 47.3976 30.6238C47.3976 31.6248 46.8755 32.5144 46.0003 33.004Z" fill="#0F0F0F"/>
<path id="Vector_6" d="M36.6376 29.3383L24.1064 16.8204C24.3118 16.772 24.521 16.7461 24.73 16.7461C25.2468 16.7461 25.7617 16.8929 26.2121 17.1836L40.6994 25.2809L36.6376 29.3383Z" fill="#0F0F0F"/>
</g>
</g>
</g>
</svg>
