<svg width="21" height="20" viewBox="0 0 21 20" fill="none" xmlns="http://www.w3.org/2000/svg">
<g id="Calendar">
<path id="Vector" d="M15.8483 3.83333H14.6045V3.33333C14.6045 2.83333 14.2728 2.5 13.7753 2.5C13.2778 2.5 12.9461 2.83333 12.9461 3.33333V3.83333H9.7952C9.29768 3.83333 8.96601 4.16667 8.96601 4.66667C8.96601 5.16667 9.29768 5.5 9.7952 5.5H13.029V6C13.029 6.5 13.3607 6.83333 13.8582 6.83333C14.3557 6.83333 14.6874 6.5 14.6874 6V5.5H15.9312C16.5116 5.5 17.092 6 17.092 6.66667V7.83333H3.82505V6.66667C3.82505 6 4.40548 5.5 5.06883 5.5H6.31261V6C6.31261 6.5 6.64428 6.83333 7.1418 6.83333C7.63931 6.83333 7.97098 6.5 7.97098 6V4.66667V3.33333C7.97098 2.83333 7.63931 2.5 7.1418 2.5C6.64428 2.5 6.31261 2.83333 6.31261 3.33333V3.83333H5.06883C3.41045 3.83333 2.16667 5.08333 2.16667 6.66667V14.6667C2.16667 16.25 3.41045 17.5 5.06883 17.5H15.9312C17.5066 17.5 18.8333 16.25 18.8333 14.6667V6.66667C18.7504 5.08333 17.5066 3.83333 15.8483 3.83333ZM15.8483 15.8333H5.06883C4.40548 15.8333 3.82505 15.3333 3.82505 14.6667V9.5H17.092V14.6667C17.092 15.3333 16.5116 15.8333 15.8483 15.8333Z" fill="black"/>
</g>
</svg>
