<svg width="20" height="20" viewBox="0 0 20 20" fill="none" xmlns="http://www.w3.org/2000/svg">
<g id="speedometer-01" clip-path="url(#clip0_1_5117)">
<path id="Icon" d="M10 1.66669V3.75002M10 1.66669C5.39765 1.66669 1.66669 5.39765 1.66669 10M10 1.66669C14.6024 1.66669 18.3334 5.39765 18.3334 10M10 16.25V18.3334M10 18.3334C14.6024 18.3334 18.3334 14.6024 18.3334 10M10 18.3334C5.39765 18.3334 1.66669 14.6024 1.66669 10M3.75002 10H1.66669M18.3334 10H16.25M15.8987 15.8987L14.4206 14.4206M4.10138 15.8987L5.58098 14.4191M4.10138 4.16669L5.54842 5.61373M15.8987 4.16669L11.2499 8.75002M11.6667 10C11.6667 10.9205 10.9205 11.6667 10 11.6667C9.07955 11.6667 8.33335 10.9205 8.33335 10C8.33335 9.07955 9.07955 8.33335 10 8.33335C10.9205 8.33335 11.6667 9.07955 11.6667 10Z" stroke="black" stroke-width="1.5" stroke-linecap="round" stroke-linejoin="round"/>
</g>
<defs>
<clipPath id="clip0_1_5117">
<rect width="20" height="20" fill="white"/>
</clipPath>
</defs>
</svg>
