<svg width="21" height="20" viewBox="0 0 21 20" fill="none" xmlns="http://www.w3.org/2000/svg">
<g id="users-01">
<path id="Icon" d="M18.6666 17.5V15.8333C18.6666 14.2801 17.6043 12.9751 16.1666 12.605M13.25 2.7423C14.4716 3.23679 15.3333 4.43443 15.3333 5.83333C15.3333 7.23224 14.4716 8.42988 13.25 8.92437M14.5 17.5C14.5 15.9469 14.5 15.1703 14.2462 14.5577C13.9079 13.741 13.259 13.092 12.4422 12.7537C11.8297 12.5 11.0531 12.5 9.49997 12.5H6.99997C5.44683 12.5 4.67026 12.5 4.05769 12.7537C3.24093 13.092 2.59202 13.741 2.2537 14.5577C1.99997 15.1703 1.99997 15.9469 1.99997 17.5M11.5833 5.83333C11.5833 7.67428 10.0909 9.16667 8.24997 9.16667C6.40902 9.16667 4.91664 7.67428 4.91664 5.83333C4.91664 3.99238 6.40902 2.5 8.24997 2.5C10.0909 2.5 11.5833 3.99238 11.5833 5.83333Z" stroke="black" stroke-width="1.5" stroke-linecap="round" stroke-linejoin="round"/>
</g>
</svg>
