<svg width="40" height="40" viewBox="0 0 40 40" fill="none" xmlns="http://www.w3.org/2000/svg">
<g id="bmw_logo_icon_145840 1">
<path id="Vector" d="M19.946 38.0681C9.96848 38.0681 1.87859 29.9782 1.87859 20.0007C1.87859 10.0232 9.96848 1.93328 19.946 1.93328C29.9235 1.93328 38.0134 10.0232 38.0134 20.0007C38.0134 29.9782 29.9235 38.0681 19.946 38.0681ZM19.946 0.980469C9.43814 0.980469 0.925781 9.49283 0.925781 20.0007C0.925781 30.5086 9.43814 39.0209 19.946 39.0209C30.4539 39.0209 38.9662 30.5086 38.9662 20.0007C38.9662 9.49283 30.4449 0.980469 19.946 0.980469ZM19.946 38.2209C22.4089 38.2209 24.791 37.7355 27.0381 36.7917C29.2044 35.8749 31.155 34.5625 32.8269 32.8906C34.4988 31.2187 35.8112 29.2681 36.728 27.1018C37.6808 24.8546 38.1572 22.4726 38.1572 20.0097C38.1572 17.5468 37.6719 15.1647 36.728 12.9175C35.8112 10.7513 34.4988 8.80069 32.8269 7.12878C31.155 5.45687 29.2044 4.14451 27.0381 3.22766C24.791 2.27485 22.4089 1.79845 19.946 1.79845C17.4831 1.79845 15.1011 2.28384 12.8539 3.22766C10.6876 4.14451 8.73702 5.45687 7.06511 7.12878C5.3932 8.80069 4.08084 10.7513 3.16398 12.9175C2.21117 15.1647 1.73477 17.5468 1.73477 20.0097C1.73477 22.4726 2.22016 24.8546 3.16398 27.1018C4.08084 29.2681 5.3932 31.2187 7.06511 32.8906C8.73702 34.5625 10.6876 35.8749 12.8539 36.7917C15.1011 37.7355 17.4831 38.2209 19.946 38.2209ZM19.946 1.13328C22.4898 1.13328 24.9617 1.62766 27.2898 2.61642C29.537 3.56923 31.5595 4.92654 33.2853 6.66137C35.0202 8.3962 36.3775 10.4097 37.3303 12.6569C38.3101 14.985 38.8134 17.4569 38.8134 20.0007C38.8134 22.5445 38.319 25.0164 37.3303 27.3445C36.3775 29.5917 35.0202 31.6052 33.2853 33.34C31.5505 35.0749 29.537 36.4322 27.2898 37.385C24.9617 38.3647 22.4898 38.8681 19.946 38.8681C17.4022 38.8681 14.9303 38.3737 12.6022 37.385C10.355 36.4322 8.33252 35.0749 6.60668 33.34C4.88084 31.6052 3.51455 29.5917 2.56174 27.3445C1.58196 25.0164 1.07859 22.5445 1.07859 20.0007C1.07859 17.4569 1.58196 14.985 2.56174 12.6569C3.51455 10.4097 4.87185 8.3962 6.60668 6.66137C8.34151 4.92654 10.355 3.56923 12.6022 2.61642C14.9213 1.62766 17.3932 1.13328 19.946 1.13328Z" fill="black"/>
<path id="Vector_2" d="M8.7366 8.37749C8.5029 8.17974 8.13436 8.17075 7.97256 8.36851L6.57031 10.0404L7.43323 10.7685L8.8175 9.11457C8.99728 8.89884 8.99728 8.59323 8.7366 8.37749ZM10.4355 10.3101C10.6332 10.0764 10.5973 9.71682 10.3186 9.48311C10.0669 9.27637 9.6984 9.3303 9.5366 9.52806L8.06245 11.2809L8.9793 12.0449L10.4355 10.3101Z" fill="black"/>
<path id="Vector_3" d="M19.9463 1.93164C9.96879 1.93164 1.87891 10.0215 1.87891 19.9991C1.87891 29.9766 9.96879 38.0665 19.9463 38.0665C29.9239 38.0665 38.0137 29.9766 38.0137 19.9991C38.0137 10.0215 29.9239 1.93164 19.9463 1.93164ZM17.1778 2.59681H18.616L19.9194 6.00355L21.2137 2.59681H22.6519V7.36984H21.6991V4.03501L20.4407 7.36984H19.398L18.1396 4.03501V7.36984H17.1868L17.1778 2.59681ZM5.13284 10.453L7.46093 7.67546C7.94632 7.10018 8.62048 6.64175 9.25868 7.18108C9.45643 7.35187 9.53733 7.4058 9.78003 7.83726C9.83396 7.99007 9.87891 8.27771 9.77104 8.54737C10.3283 8.2058 10.9216 8.31366 11.3081 8.69119C11.9014 9.26647 11.8115 9.93164 11.2542 10.5968L8.80025 13.5271L5.13284 10.453ZM19.9463 32.1159C13.2587 32.1159 7.82947 26.6957 7.82947 19.9991C7.82947 13.3114 13.2497 7.8822 19.9463 7.8822C26.634 7.8822 32.0632 13.3024 32.0632 19.9991C32.0542 26.6867 26.634 32.1159 19.9463 32.1159ZM31.1463 13.3564L30.3283 12.3676L31.8924 10.0125L31.8834 10.0036L29.2767 11.1182L28.4497 10.1384L31.1733 6.53389L31.8654 7.36984L30.1576 9.66198L32.8092 8.48445L33.5553 9.38333L31.9194 11.7653L34.4812 10.5069L35.1733 11.3429L31.1463 13.3564Z" fill="black"/>
<path id="Vector_4" d="M8.54785 20.0001H19.9366V8.61133C13.6535 8.61133 8.54785 13.708 8.54785 20.0001ZM19.9456 20.0001V31.3889C26.2377 31.3889 31.3344 26.2922 31.3344 20.0001H19.9456Z" fill="black"/>
</g>
</svg>
