<svg width="71" height="36" viewBox="0 0 71 36" fill="none" xmlns="http://www.w3.org/2000/svg">
<g id="Hyundai svg" clip-path="url(#clip0_1_2980)">
<g id="Group">
<g id="Group_2">
<path id="Vector" d="M35.1602 36C54.569 36 70.3202 27.9148 70.3202 18C70.3202 8.08525 54.628 0 35.1602 0C15.7514 0 0.000152588 8.08525 0.000152588 18C0.000152588 27.9148 15.6924 36 35.1602 36ZM41.7674 27.1475C41.1775 28.5049 40.1746 31.3377 37.8739 32.577C37.1659 32.9311 36.34 33.1082 35.5141 33.1082C35.3371 33.1082 35.2192 33.1082 35.1602 33.1082C29.2018 33.1672 23.3025 32.341 17.5802 30.6885L17.4032 30.6295C16.9312 30.4525 16.6953 30.2754 16.6953 29.9803C16.6953 29.8623 16.7543 29.7443 16.7543 29.6852C16.8132 29.5672 16.8722 29.5082 16.9312 29.4492L17.2262 29.1541C18.3471 28.1508 21.8867 25.6131 28.5529 23.1344C31.2666 22.0131 34.0393 21.1869 36.871 20.4787C38.6998 20.0656 45.307 19.0623 41.7674 27.1475ZM59.5834 9.02951C59.6424 8.91148 59.7014 8.79344 59.8194 8.73443C59.9374 8.67541 60.0553 8.61639 60.1733 8.61639C60.4093 8.61639 60.7043 8.67541 60.8812 8.85246C65.0108 11.3902 67.4885 14.577 67.4885 18C67.4885 24.1967 59.5244 29.5672 48.0797 31.8689C47.3718 32.0459 46.8408 31.9869 46.7228 31.8689C46.5459 31.7508 46.5459 31.5738 46.7228 31.3377C46.7818 31.1607 46.8998 31.0426 47.0178 30.9246C53.2121 23.6066 57.9906 12.8066 59.2884 9.67869C59.4064 9.38361 59.4654 9.14754 59.5834 9.02951ZM28.6709 8.79344C29.2608 7.43607 30.2637 4.54426 32.5645 3.36393C33.2724 3.00984 34.0983 2.83279 34.9242 2.83279C35.1012 2.83279 35.2192 2.83279 35.2781 2.83279C41.2365 2.77377 47.1358 3.6 52.8582 5.25246L53.0351 5.31148C53.5071 5.48852 53.743 5.66557 53.743 5.96066C53.743 6.07869 53.6841 6.19672 53.6841 6.25574C53.6251 6.37377 53.5661 6.43279 53.5071 6.4918L53.0941 6.8459C51.9733 7.84918 48.4926 10.3869 41.8264 12.9246C39.1127 14.0459 36.34 14.9311 33.5084 15.5803C31.7975 15.9344 25.1903 16.9377 28.6709 8.79344ZM22.2996 4.13115C23.0665 4.01311 23.5385 4.01311 23.7155 4.13115C23.7745 4.19016 23.7745 4.3082 23.7745 4.42623C23.7745 4.54426 23.7155 4.60328 23.7155 4.72131C23.5975 4.89836 23.5385 5.01639 23.4205 5.13443C17.1672 12.4525 12.3887 23.2525 11.0909 26.3803C10.9729 26.6164 10.9139 26.7934 10.7959 26.9705C10.7369 27.0885 10.6779 27.2066 10.56 27.2656C10.442 27.3246 10.324 27.3836 10.206 27.3836C9.97002 27.3836 9.67505 27.3246 9.49807 27.1475C5.36854 24.6098 2.89082 21.423 2.89082 18C2.89082 11.8033 10.8549 6.4918 22.2996 4.13115Z" fill="#0F0F0F"/>
</g>
</g>
</g>
<defs>
<clipPath id="clip0_1_2980">
<rect width="70.32" height="36" fill="white"/>
</clipPath>
</defs>
</svg>
