<svg width="90" height="32" viewBox="0 0 90 32" fill="none" xmlns="http://www.w3.org/2000/svg">
<g id="layer1">
<path id="path741" d="M63.2981 19.7126C63.3144 19.794 63.4122 19.8673 63.5182 19.908C63.5589 19.9243 63.5752 19.9487 63.5345 20.0301C63.241 20.6571 62.972 21.0154 62.6133 21.5528C62.2791 22.0576 61.8959 22.4485 61.4394 22.823C60.7465 23.393 59.7846 24.02 58.9939 23.5966C58.6433 23.4174 58.4884 22.9207 58.4966 22.5218C58.5129 21.3981 59.0102 20.25 59.9395 19.1182C61.0644 17.734 62.3117 17.0174 63.1269 17.4083C63.9747 17.8072 63.7056 18.7843 63.3225 19.5579C63.2899 19.6067 63.2899 19.6637 63.2981 19.7126ZM72.3629 10.9675C72.42 10.8617 72.3629 10.7803 72.2244 10.7803C71.5152 10.7803 70.594 10.7803 69.8603 10.7803C69.6891 10.7803 69.5913 10.8047 69.5098 10.9675C69.2408 11.4887 65.9311 16.4393 65.3197 17.4001C65.2137 17.5467 65.0915 17.5223 65.0752 17.3594C65.0099 16.7894 64.5208 16.1299 63.7383 15.8205C63.1432 15.5843 62.5644 15.5355 61.9611 15.6169C60.8769 15.7635 59.9069 16.3335 59.0509 16.9849C57.7711 17.962 56.6624 19.224 55.2277 20.1604C54.4451 20.6653 53.3772 21.1131 52.6598 20.4536C52.0158 19.851 52.0892 18.5238 53.0756 17.4897C53.1816 17.3838 53.3038 17.4734 53.2875 17.5711C53.1979 18.0352 53.312 18.4994 53.6625 18.8251C54.0946 19.2159 54.7141 19.2566 55.244 18.9961C55.8717 18.6866 56.2385 18.0922 56.3445 17.4164C56.5075 16.366 55.7005 15.4378 54.6897 15.3645C53.8663 15.3075 53.0756 15.5925 52.3093 16.2276C51.9262 16.5452 51.7061 16.7813 51.3718 17.2536C51.2903 17.3676 51.1681 17.3838 51.1681 17.2128C51.2088 15.8693 50.6463 15.1121 49.5377 15.0877C48.6736 15.0632 47.7524 15.5355 47.0269 16.1055C46.2362 16.7406 45.5514 17.5793 44.8096 18.3691C44.7199 18.4668 44.6384 18.4586 44.6139 18.2714C44.5895 17.3838 44.3694 16.5126 43.9536 15.9019C43.8069 15.6902 43.4971 15.5843 43.2444 15.7309C43.1221 15.796 42.7064 15.9833 42.4048 16.2276C42.258 16.3497 42.1928 16.5289 42.2662 16.7569C42.6656 18.0922 42.576 19.5986 42.0379 20.8851C41.5407 22.0576 40.5788 23.1162 39.4375 23.4663C38.6875 23.7024 37.9131 23.5884 37.4321 22.9289C36.7718 22.0169 37.0408 20.4291 38.0191 19.11C38.8913 17.9457 40.1467 17.2128 41.3939 16.7324C41.5407 16.6754 41.5733 16.5777 41.5325 16.4556C41.4673 16.252 41.3532 15.967 41.3124 15.8449C41.1983 15.5355 40.8722 15.4866 40.4809 15.5355C39.5679 15.6413 38.7527 15.9508 37.9375 16.3905C35.8099 17.5304 34.7502 19.7289 34.2773 20.9014C34.0491 21.4632 33.8616 21.8215 33.6089 22.1309C33.2747 22.5543 32.8508 22.937 32.0845 23.6047C32.0111 23.6698 31.9622 23.792 32.0193 23.9141C32.1008 24.077 32.5002 24.6388 32.6144 24.6877C32.7366 24.7528 32.8834 24.6632 32.9404 24.6225C33.4785 24.2561 34.1225 23.678 34.4404 23.2871C34.5545 23.1569 34.6605 23.2057 34.7257 23.4093C35.0192 24.4597 35.7854 25.3146 36.8533 25.6729C38.8016 26.3324 40.8233 25.3798 42.3477 23.7268C43.3178 22.6765 43.6683 22.0006 44.0352 21.5365C44.6628 20.7548 45.9101 19.0123 47.3856 17.8968C47.9318 17.4815 48.5676 17.1721 48.8937 17.3757C49.1545 17.5467 49.2361 17.9294 48.8203 18.6866C47.3122 21.4388 45.0949 24.6714 44.6873 25.4531C44.6139 25.5915 44.6791 25.6973 44.8177 25.6973C45.6085 25.6973 46.391 25.6973 47.1084 25.6973C47.2307 25.6892 47.2796 25.6403 47.3448 25.5508C48.5024 23.7431 49.5947 22.0169 50.7605 20.2337C50.8257 20.1279 50.8827 20.2093 50.8909 20.2581C50.9153 20.6734 51.0132 21.2352 51.2659 21.6098C51.7061 22.2938 52.3338 22.5869 53.0267 22.595C53.581 22.6032 53.8582 22.5136 54.4533 22.2938C54.9342 22.1146 55.3255 21.8785 55.6271 21.6668C55.7983 21.5447 55.8309 21.7482 55.8309 21.7808C55.5619 23.2139 55.8961 24.9238 57.3227 25.624C59.0346 26.4627 60.9096 25.2821 61.9938 24.2154C62.0997 24.1095 62.2139 24.1258 62.222 24.3457C62.2465 24.7528 62.4258 25.2413 62.7682 25.5752C63.673 26.4871 65.5072 26.1207 67.3414 24.7039C68.5234 23.792 69.7543 22.5136 70.863 21.1538C70.9038 21.105 70.9364 21.0154 70.8549 20.934C70.6837 20.7548 70.4391 20.5513 70.2679 20.3966C70.1945 20.3314 70.0804 20.3477 70.0152 20.3966C68.8739 21.4795 67.8468 22.7172 66.3632 23.7431C65.8659 24.0933 65.067 24.3701 64.7083 23.8897C64.5697 23.7024 64.5861 23.4419 64.7246 23.0999C65.1485 22.0006 72.0043 11.5782 72.3629 10.9675Z" fill="#0F0F0F"/>
<path id="path745" d="M40.1076 12.2174C40.1402 12.3721 40.1973 12.4047 40.2706 12.3884C40.6212 12.3151 41.0043 12.0301 41.2244 11.6963C41.4282 11.395 41.526 10.9635 41.3222 10.7843C41.1429 10.6296 40.8413 10.6703 40.6212 10.8658C40.181 11.2566 40.0505 11.8103 40.1076 12.2174ZM22.6299 25.6444C20.0703 25.6607 17.8203 24.081 17.5595 21.3533C17.4127 19.8388 17.8448 18.4871 18.7007 17.3797C19.4589 16.3864 20.7469 15.564 21.8392 15.3686C22.1979 15.3034 22.6707 15.3441 22.8664 15.5803C23.1761 15.9385 23.0865 16.3375 22.7767 16.4922C21.9452 16.9156 20.9425 17.6403 20.4534 18.6337C20.054 19.4398 19.9724 20.4169 20.5838 21.3451C21.611 22.8922 24.4723 22.9329 27.1298 20.4658C27.7901 19.8632 28.377 19.2769 28.9803 18.593C30.1541 17.2576 30.5454 16.7691 32.1024 14.6113C32.1187 14.5869 32.1269 14.5543 32.1187 14.538C32.1024 14.5054 32.0861 14.5054 32.0372 14.4973C30.9938 14.5299 30.0889 14.8393 29.2085 15.4907C28.9558 15.678 28.589 15.6535 28.4259 15.4093C28.2466 15.1324 28.377 14.7741 28.6705 14.5706C30.0889 13.5853 31.6378 13.4062 33.2192 13.1375C33.2192 13.1375 33.3252 13.1457 33.423 13.0235C34.0752 12.193 34.5643 11.4439 35.2572 10.5971C35.9583 9.74209 36.855 8.96041 37.5397 8.36601C38.5017 7.54362 39.1131 7.26677 39.7408 6.92479C39.9038 6.83522 39.7163 6.73751 39.6674 6.73751C36.1702 6.07797 32.5345 5.23115 29.0699 6.51766C26.6651 7.41334 25.6135 9.31868 26.119 10.5889C26.4776 11.4927 27.6678 11.6393 28.7846 11.0937C29.7058 10.6378 30.5617 9.91308 31.1731 8.9767C31.5155 8.45558 32.2247 8.83013 31.8416 9.73395C30.8226 12.1197 28.8824 14.0088 26.5184 14.0902C24.5049 14.1553 23.2087 12.6734 23.2087 10.8495C23.2169 7.25049 27.2276 4.88102 31.4421 4.53089C36.5208 4.11563 41.3222 5.45914 46.3601 6.06983C50.2241 6.53395 53.925 6.55023 57.8053 5.65456C58.2618 5.55685 58.5879 5.84998 58.5553 6.3141C58.5146 6.98178 58.001 7.62504 56.7211 8.3253C55.2701 9.12326 53.7457 9.35939 52.1561 9.37568C48.3165 9.40825 44.7379 7.91003 41.0369 7.11206C41.0451 7.27491 41.0858 7.47033 40.9472 7.56804C38.893 9.08255 37.0425 10.6133 35.8034 12.7711C35.7626 12.82 35.7789 12.8688 35.8605 12.8607C36.9365 12.8037 37.9066 12.7792 38.9174 12.6978C39.0968 12.6815 39.0968 12.6408 39.0805 12.5105C38.9908 11.7696 39.2109 10.9228 39.863 10.3365C40.5315 9.73395 41.3711 9.66881 41.9255 10.1004C42.5532 10.5889 42.5042 11.4764 42.1537 12.136C41.8032 12.8118 41.2244 13.1701 40.6619 13.3411C40.6619 13.3411 40.5478 13.3655 40.5641 13.4714C40.5886 13.6423 41.3467 14.0658 41.4119 14.1716C41.4771 14.2775 41.4445 14.4403 41.3304 14.5706C41.2489 14.6602 41.1266 14.7497 40.9635 14.7497C40.8331 14.7497 40.7516 14.7009 40.5886 14.6113C40.2462 14.424 39.8223 14.1228 39.537 13.7645C39.4391 13.6423 39.3902 13.6423 39.1457 13.6505C38.0533 13.7156 36.3577 13.8785 35.2083 14.0169C34.9311 14.0495 34.8904 14.1065 34.8333 14.196C32.9991 17.2169 31.0427 20.4739 28.8906 22.6561C26.5836 25.0093 24.6679 25.6281 22.6299 25.6444Z" fill="#0F0F0F"/>
<path id="path749" d="M44.8598 1.31908C20.9503 1.31908 1.57331 7.91451 1.57331 15.9919C1.57331 24.0692 20.9503 30.6646 44.8598 30.6646C68.7611 30.6646 88.1381 24.0692 88.1381 15.9919C88.1381 7.92265 68.7611 1.31908 44.8598 1.31908ZM44.8598 32C20.0862 32 0 24.8346 0 16C0 7.15725 20.0862 0 44.8598 0C69.6334 0 89.7196 7.1654 89.7196 16C89.7196 24.8346 69.6334 32 44.8598 32Z" fill="#0F0F0F"/>
</g>
</svg>
