<svg width="51" height="42" viewBox="0 0 51 42" fill="none" xmlns="http://www.w3.org/2000/svg">
<g id="Nissan USA svg" clip-path="url(#clip0_1_3020)">
<g id="Global_x2F_Logos_x2F_Logo-White-115x116">
<g id="Nissan-Brand-Logo-RGB-W-w_R">
<path id="Path" d="M7.54922 14.6642C10.1575 7.10219 17.3687 1.9927 25.5004 1.9927C33.6321 1.9927 40.8432 7.10219 43.4515 14.6642V14.7153H49.1795V14.0511L46.8269 13.7956C45.3438 13.6423 45.0369 12.9781 44.6278 12.1606L44.5255 11.9562C41.0989 4.70073 33.6321 0 25.5004 0C17.3687 0 9.90179 4.70073 6.42408 11.9562L6.32179 12.1606C5.96379 12.9781 5.60579 13.6423 4.17379 13.7956L1.77008 14.0511V14.7153H7.49808L7.54922 14.6642Z" fill="black"/>
<path id="Path_1_" d="M43.5027 27.2852V27.3363C40.8432 34.8983 33.6321 40.0078 25.5004 40.0078C17.3687 40.0078 10.1575 34.8983 7.54922 27.3363V27.2852H1.77008V27.9494L4.1738 28.2049C5.65694 28.3581 5.9638 29.0224 6.37294 29.8399L6.47522 30.0443C9.85065 37.2998 17.3687 42.0005 25.5004 42.0005C33.6321 42.0005 41.0989 37.2998 44.5767 30.0443L44.6789 29.8399C45.0881 29.0224 45.3949 28.4092 46.8781 28.2049L49.2818 27.9494V27.2852H43.5027Z" fill="black"/>
<path id="Rectangle" d="M12.049 18.3438H10.7193V24.1686H12.049V18.3438Z" fill="black"/>
<path id="Path_2_" d="M7.6 24.1175V18.3438H6.32143V22.6868L2.07657 18.3438H0.440002V24.1175H1.71857V19.7744L6.01457 24.1175H7.6Z" fill="black"/>
<path id="Shape" d="M36.7007 18.3438L33.1207 24.1686H34.655L35.2687 23.1467H39.4112L40.025 24.1686H41.5592L37.9792 18.3438H36.7007ZM38.7975 22.0226H35.9335L37.3655 19.6722L38.7975 22.0226Z" fill="black"/>
<path id="Path_3_" d="M29.4887 22.9407C29.4375 22.9407 29.2841 22.9407 29.233 22.9407H23.863V24.1158H29.2841C29.3352 24.1158 29.6421 24.1158 29.6932 24.1158C30.8184 24.0136 31.2787 23.145 31.2787 22.3275C31.2787 21.51 30.7672 20.6925 29.7444 20.5903C29.591 20.5903 29.4375 20.5903 29.3352 20.5903H25.8064C25.653 20.5903 25.5507 20.5903 25.3972 20.5392C25.1415 20.4881 24.9881 20.2837 25.0392 20.0282C25.0392 19.7728 25.1927 19.5684 25.4484 19.5173C25.5507 19.4662 25.7041 19.4662 25.8064 19.4662H30.9207V18.291H25.7552C25.6018 18.291 25.3972 18.291 25.2438 18.3421C24.3744 18.4443 23.7095 19.1596 23.7095 20.0282C23.7095 20.7436 24.1698 21.6122 25.1927 21.7144C25.3972 21.7144 25.5507 21.7655 25.7552 21.7144H29.1818C29.233 21.7144 29.3864 21.7144 29.4375 21.7144C29.7444 21.7655 29.949 22.0209 29.949 22.2764C29.949 22.6341 29.7444 22.8896 29.4887 22.9407Z" fill="black"/>
<path id="Path_4_" d="M20.0785 22.9423C20.0274 22.9423 19.8739 22.9423 19.8228 22.9423H14.5039V24.1175H19.8739C19.9251 24.1175 20.2319 24.1175 20.2831 24.1175C21.4082 24.0153 21.9197 23.1467 21.9197 22.3802C21.9197 21.6138 21.4082 20.7452 20.3854 20.643C20.2319 20.643 20.0785 20.643 19.9762 20.643H16.4474C16.2939 20.643 16.1917 20.643 16.0382 20.5919C15.7825 20.5408 15.6291 20.3365 15.6802 20.081C15.6802 19.8255 15.8337 19.6211 16.0894 19.57C16.1917 19.5189 16.3451 19.5189 16.4474 19.5189H21.5617V18.3438H16.3451C16.1917 18.3438 15.9871 18.3438 15.8337 18.3948C14.9642 18.497 14.2994 19.2124 14.2994 20.081C14.2994 20.7963 14.7597 21.6649 15.7825 21.7671C15.9871 21.7671 16.1405 21.8182 16.3451 21.7671H19.7717C19.8228 21.7671 19.9762 21.7671 20.0274 21.7671C20.3342 21.8182 20.5388 22.0737 20.5388 22.3292C20.5899 22.6357 20.3342 22.8912 20.0785 22.9423Z" fill="black"/>
<path id="Path_5_" d="M50.56 24.1175V18.3438H49.2814V22.6868L45.0365 18.3438H43.4V24.1175H44.6785V19.7744L48.9745 24.1175H50.56Z" fill="black"/>
<path id="Shape_1_" d="M47.236 38.4747C47.8498 38.4747 48.3612 38.9857 48.3612 39.5988C48.3612 40.212 47.8498 40.7229 47.236 40.7229C46.6223 40.7229 46.1109 40.212 46.1109 39.5988C46.1109 39.2923 46.2132 39.0368 46.4689 38.7813C46.6223 38.5769 46.9292 38.4237 47.236 38.4747ZM47.236 40.4674C47.4918 40.4674 47.6963 40.3653 47.8498 40.212C48.0032 40.0587 48.1055 39.8032 48.1055 39.5988C48.1055 39.139 47.6963 38.7302 47.236 38.7813C46.7758 38.7813 46.3666 39.1901 46.3666 39.6499C46.3666 40.0587 46.7246 40.4674 47.236 40.4674ZM46.7758 40.1609V39.0368C46.9292 39.0368 47.0315 38.9857 47.1849 38.9857C47.3895 38.9857 47.6963 39.0368 47.6963 39.2923C47.6963 39.4456 47.594 39.5477 47.4406 39.5477C47.5429 39.5988 47.594 39.701 47.6452 39.8032C47.6452 39.9054 47.6963 40.0076 47.7475 40.0587H47.4918C47.4406 39.9565 47.4406 39.8543 47.3895 39.8032C47.3383 39.6499 47.236 39.6499 47.0315 39.6499V40.1098L46.7758 40.1609ZM47.0315 39.4966C47.236 39.4966 47.4406 39.4966 47.4406 39.3434C47.4406 39.2412 47.3895 39.1901 47.1849 39.1901C47.1338 39.1901 47.0826 39.1901 47.0315 39.1901V39.4966Z" fill="black"/>
</g>
</g>
</g>
<defs>
<clipPath id="clip0_1_3020">
<rect width="50.12" height="42" fill="white" transform="translate(0.440002)"/>
</clipPath>
</defs>
</svg>
