<svg width="55" height="36" viewBox="0 0 55 36" fill="none" xmlns="http://www.w3.org/2000/svg">
<path id="Vector" d="M39.67 1.76931C36.2636 0.649949 32.0412 0 27.4639 0C22.8866 0 18.6641 0.649949 15.2578 1.76931C6.20963 4.73019 0.00012207 10.8686 0.00012207 17.9458C0.00012207 27.9117 12.2772 36 27.4284 36C42.5796 36 54.8567 27.9117 54.8567 17.9458C54.9276 10.8686 48.7181 4.73019 39.67 1.76931ZM27.4639 28.2728C25.193 28.2728 23.3479 23.7593 23.2414 18.0542C24.5898 18.1625 26.0091 18.2347 27.4639 18.2347C28.9187 18.2347 30.3025 18.1625 31.6863 18.0542C31.5799 23.7232 29.7348 28.2728 27.4639 28.2728ZM23.5253 13.5767C24.1285 9.56871 25.6542 6.75226 27.4639 6.75226C29.238 6.75226 30.7638 9.56871 31.4025 13.5767C30.1606 13.6851 28.8122 13.7573 27.4639 13.7573C26.1155 13.7573 24.8027 13.7212 23.5253 13.5767ZM33.8153 13.2879C32.8928 7.00501 30.409 2.52758 27.4639 2.52758C24.5188 2.52758 22.035 7.00501 21.1124 13.2879C15.5416 12.3852 11.6385 10.3992 11.6385 8.05215C11.6385 4.87462 18.6996 2.31093 27.4284 2.31093C36.1572 2.31093 43.2183 4.87462 43.2183 8.05215C43.2892 10.3992 39.3861 12.4213 33.8153 13.2879ZM4.04517 17.2959C4.04517 14.2267 5.21611 11.3741 7.20315 8.91875C7.16767 9.0993 7.16767 9.27984 7.16767 9.42427C7.16767 13.2879 12.8449 16.5376 20.7576 17.7292C20.7576 18.0181 20.7576 18.3069 20.7576 18.5958C20.7576 25.7452 22.7092 31.8114 25.4059 33.9057C13.4127 33.1836 4.04517 26.0341 4.04517 17.2959ZM29.5574 33.9057C32.2541 31.8114 34.2056 25.7452 34.2056 18.5958C34.2056 18.3069 34.2056 18.0181 34.2056 17.7292C42.1183 16.5376 47.7956 13.2518 47.7956 9.42427C47.7956 9.24373 47.7956 9.06319 47.7601 8.91875C49.7826 11.3741 50.9181 14.2628 50.9181 17.2959C50.9181 26.0341 41.5151 33.1836 29.5574 33.9057Z" fill="#0F0F0F"/>
</svg>
