<svg width="24" height="24" viewBox="0 0 24 24" fill="none" xmlns="http://www.w3.org/2000/svg">
<rect width="24" height="24" fill="#1E1E1E"/>
<g id="Home" clip-path="url(#clip0_0_1)">
<rect width="1440" height="6342" transform="translate(-1171 -6274)" fill="white"/>
<g id="Footer / Mini / 5">
<rect width="1440" height="113" transform="translate(-1171 -45)" fill="#0F0F0F"/>
<g id="Social Links" clip-path="url(#clip1_0_1)">
<g id="Social Icons">
<path id="BG" opacity="0.1" fill-rule="evenodd" clip-rule="evenodd" d="M0 12C0 5.37258 5.37258 0 12 0C18.6274 0 24 5.37258 24 12C24 18.6274 18.6274 24 12 24C5.37258 24 0 18.6274 0 12Z" fill="white"/>
<path id="Path" fill-rule="evenodd" clip-rule="evenodd" d="M18.4 11.9912C18.4 12.424 18.3559 12.8563 18.2694 13.2776C18.185 13.6889 18.06 14.0927 17.8962 14.4787C17.7363 14.8579 17.5378 15.2233 17.3059 15.5641C17.0775 15.9027 16.8143 16.2204 16.5252 16.5099C16.2355 16.7983 15.9168 17.0607 15.5783 17.2901C15.2364 17.5204 14.8705 17.7186 14.4911 17.8793C14.1045 18.0422 13.6998 18.167 13.2888 18.2513C12.867 18.338 12.4332 18.3823 11.9997 18.3823C11.5659 18.3823 11.1322 18.338 10.7109 18.2513C10.2993 18.167 9.89462 18.0422 9.50835 17.8793C9.12896 17.7186 8.76267 17.5204 8.42079 17.2901C8.08234 17.0607 7.76357 16.7983 7.47449 16.5099C7.18511 16.2204 6.92196 15.9027 6.6932 15.5641C6.46256 15.2233 6.26379 14.8579 6.10317 14.4787C5.93939 14.0927 5.81409 13.6889 5.72939 13.2776C5.64377 12.8563 5.60001 12.424 5.60001 11.9912C5.60001 11.5581 5.64374 11.1249 5.72942 10.7045C5.81411 10.2932 5.93941 9.88881 6.10319 9.50342C6.26381 9.12396 6.46259 8.75823 6.69322 8.41744C6.92198 8.07854 7.18514 7.76147 7.47452 7.47155C7.7636 7.18319 8.08236 6.92139 8.42081 6.69234C8.7627 6.46108 9.12898 6.26295 9.50837 6.10191C9.89465 5.93866 10.2993 5.81354 10.7109 5.72992C11.1322 5.6438 11.566 5.6001 11.9997 5.6001C12.4332 5.6001 12.867 5.6438 13.2889 5.72992C13.6998 5.81357 14.1045 5.93869 14.4911 6.10191C14.8705 6.26292 15.2365 6.46108 15.5783 6.69234C15.9168 6.92139 16.2356 7.18319 16.5253 7.47155C16.8144 7.76147 17.0775 8.07854 17.3059 8.41744C17.5378 8.75823 17.7363 9.12398 17.8962 9.50342C18.06 9.88881 18.185 10.2932 18.2694 10.7045C18.3559 11.1249 18.4 11.5581 18.4 11.9912ZM9.6677 7.05463C8.14354 7.77334 7.00598 9.17575 6.65127 10.8659C6.79536 10.8672 9.07298 10.8959 11.6972 10.1996C10.7512 8.52133 9.74052 7.15171 9.6677 7.05463ZM12.15 11.0401C9.3358 11.8814 6.63534 11.8208 6.53847 11.8171C6.53689 11.8758 6.53408 11.9325 6.53408 11.9912C6.53408 13.3933 7.06379 14.6715 7.93447 15.638C7.93259 15.6352 9.42831 12.9855 12.3778 12.033C12.4491 12.0093 12.5216 11.9881 12.5935 11.9675C12.4563 11.6573 12.3066 11.3465 12.15 11.0401ZM15.6093 7.89504C14.647 7.04776 13.3835 6.53382 11.9997 6.53382C11.5556 6.53382 11.1246 6.5875 10.7118 6.68673C10.7937 6.79659 11.8203 8.15656 12.755 9.8704C14.8174 9.09836 15.5958 7.915 15.6093 7.89504ZM12.966 12.8719C12.9538 12.8759 12.9417 12.8794 12.9298 12.8837C9.70498 14.0063 8.65187 16.2687 8.64048 16.2934C9.56836 17.0139 10.7322 17.4486 11.9997 17.4486C12.7566 17.4486 13.4776 17.2947 14.1336 17.0161C14.0526 16.5393 13.7351 14.8678 12.966 12.8719ZM15.0539 16.5174C16.2812 15.6905 17.1528 14.3773 17.3959 12.8562C17.2834 12.82 15.7543 12.3366 13.9901 12.6191C14.707 14.5864 14.9983 16.1885 15.0539 16.5174ZM13.1757 10.6837C13.3026 10.9439 13.4254 11.2088 13.5389 11.4751C13.5792 11.5706 13.6186 11.6642 13.657 11.7578C15.5346 11.5219 17.3844 11.9188 17.4635 11.935C17.451 10.6412 16.9875 9.45379 16.2206 8.52416C16.2103 8.5388 15.3337 9.80361 13.1757 10.6837Z" fill="white"/>
</g>
</g>
</g>
</g>
<defs>
<clipPath id="clip0_0_1">
<rect width="1440" height="6342" fill="white" transform="translate(-1171 -6274)"/>
</clipPath>
<clipPath id="clip1_0_1">
<rect width="144" height="24" fill="white" transform="translate(-40)"/>
</clipPath>
</defs>
</svg>
