<svg width="25" height="26" viewBox="0 0 25 26" fill="none" xmlns="http://www.w3.org/2000/svg">
<path id="Vector" d="M21.7832 0H8.85037C6.72184 0 4.64719 1.72437 4.24304 3.79902L0.09375 25.246H2.76115C4.88968 25.246 6.96433 23.5486 7.36848 21.447L10.467 5.44257C10.5748 4.93065 11.0867 4.49955 11.6255 4.49955H17.7148C18.2536 4.49955 18.6039 4.93065 18.4961 5.44257L17.4723 10.6696C17.3645 11.1815 16.8526 11.6126 16.3137 11.6126H10.2245L10.0898 12.2593C9.68562 14.3609 11.0867 16.0583 13.2422 16.0583H18.6578C20.7863 16.0583 22.861 14.3339 23.2651 12.2593L24.9087 3.79902C25.3398 1.72437 23.9387 0 21.7832 0Z" fill="#424242"/>
</svg>
