<svg width="85" height="27" viewBox="0 0 85 27" fill="none" xmlns="http://www.w3.org/2000/svg">
<g id="Group">
<path id="Vector" d="M63.0859 0.174407C32.8372 -0.639979 10.0344 3.81006 9.01642 11.285C8.49289 15.1242 22.1048 21.6975 30.365 23.1808C23.0064 24.6351 13.1465 25.4204 0.814386 25.3913L0 26.0021C33.1862 27.7472 56.1927 24.8969 57.1816 16.8693C57.8214 11.6631 40.3121 5.67152 40.3121 5.67152L39.585 5.84603C39.585 5.84603 46.2164 8.98724 46.2164 13.0883C46.2164 17.451 41.2719 20.8249 31.5866 22.9191C25.1296 20.5922 21.3486 17.7419 21.4067 14.6589C21.5231 7.4748 36.4147 1.86135 62.6496 1.10514L63.0859 0.174407Z" fill="black"/>
<path id="Vector_2" d="M70.0086 21.1449C70.9103 21.1449 71.8701 20.4178 72.161 19.5161L72.7427 17.7419H78.7924L76.1456 25.8276H57.2402L65.6749 0.0581055H84.5803L82.3408 6.89313H76.2911L76.3783 6.63137C76.6692 5.72973 76.1747 5.00259 75.3022 5.00259H72.51H72.4809C71.5792 5.00259 70.6485 5.75881 70.3577 6.63137L66.1403 19.5452C65.8495 20.3887 66.3439 21.174 67.2456 21.174H70.0086V21.1449Z" fill="black"/>
</g>
</svg>
