<svg width="226" height="44" viewBox="0 0 226 44" fill="none" xmlns="http://www.w3.org/2000/svg">
<g id="Group 6">
<path id="Vector" fill-rule="evenodd" clip-rule="evenodd" d="M40.7527 9.90724C44.0469 9.96737 44.0096 10.1297 46.1697 8.74301C47.648 7.80262 49.0953 6.81426 50.5091 5.77951C52.7161 4.16186 52.9374 3.47751 49.0274 2.60434C45.845 1.89353 44.8804 1.63735 41.5128 3.55689C36.821 6.23173 23.0968 15.8342 9.12603 29.17C5.5275 29.8038 2.56401 31.1809 1.40098 32.0264C0.236747 32.8743 0.152557 33.0932 1.29514 34.7794C2.85627 37.0814 2.9164 37.1332 5.50224 35.8907C6.87815 35.2281 8.91556 34.0374 10.7148 32.6602C18.6528 31.1809 36.3279 31.0751 58.1308 37.2125C60.0635 37.7574 60.5987 38.058 59.1891 34.9899C57.8397 32.0517 57.9985 32.2104 54.2147 31.2855C40.1513 27.8446 25.1089 27.3695 16.4301 28.215C25.2136 20.9145 32.0739 15.0934 40.7527 9.90724Z" fill="black"/>
<path id="Vector_2" fill-rule="evenodd" clip-rule="evenodd" d="M61.0773 5.14438C59.5282 5.5521 54.9386 6.94365 52.9277 7.57868C50.9167 8.21372 50.7243 8.21492 50.8109 10.1188C50.9167 12.4473 51.1284 12.4473 52.5043 11.9181C53.8802 11.3889 60.5745 9.30818 62.5061 8.75614C63.9878 8.33278 64.0167 7.92506 63.7762 6.53352C63.419 4.46965 63.0894 4.61518 61.0773 5.14438ZM45.4395 13.2411C43.9313 14.4318 38.0573 19.5914 34.6439 23.481C33.7118 24.543 33.6914 24.1954 34.5646 26.8943C34.9795 28.1764 35.3572 30.0707 37.1841 28.0056C39.0098 25.9406 47.1859 19.1152 48.7735 17.8451C50.3611 16.575 50.3767 16.3272 49.0116 13.9555C47.5046 11.3372 46.9477 12.0504 45.4395 13.2411Z" fill="black"/>
<path id="Vector_3" fill-rule="evenodd" clip-rule="evenodd" d="M77.3347 1.89095C73.0482 2.12909 69.7924 4.43109 65.1102 8.55881C62.7008 10.6761 60.3521 12.8615 58.0671 15.1124C55.2804 14.3788 52.9063 13.6211 52.4095 13.401C51.6951 13.0834 51.2982 13.1628 51.457 14.1947C51.6927 15.7294 52.0968 17.2172 54.8354 18.3994C52.628 20.7131 50.4953 23.0969 48.4406 25.5472C47.5638 26.5924 47.5674 26.7355 48.7581 28.5636C49.8526 30.2414 50.4407 29.9287 51.1395 29.1974C53.516 26.7126 56.6491 23.2969 60.1358 19.8523C62.3981 20.3346 65.0008 20.6281 66.4465 20.8145C65.8604 21.5515 65.3004 22.3089 64.7675 23.0852C63.8065 24.4924 63.9737 25.4666 65.0056 27.1324C66.0375 28.8005 67.3076 30.2282 71.1178 28.72C74.9268 27.2118 78.2607 24.9097 79.0557 23.6385C79.8495 22.3696 79.9289 22.1303 77.9444 22.6871C75.9599 23.244 73.4198 24.4323 69.4508 24.9891C70.0089 23.9223 71.0493 22.5981 72.2688 21.2571C75.6136 21.4086 80.5038 21.3377 84.5329 19.3532C87.1128 18.0819 86.5968 15.7811 85.0874 13.5585C83.5804 11.3359 82.071 9.7483 77.4682 11.6534C74.8234 12.7479 72.1016 14.7877 69.6457 17.2268C67.82 17.0091 65.1956 16.7036 63.7512 16.4138C66.9504 13.496 70.318 10.7838 73.6026 8.87513C76.8403 6.99408 78.6035 7.28754 79.2386 8.79575C79.6679 9.81445 80.4593 10.1608 81.3024 9.51016C82.1756 8.83424 82.7709 7.60506 82.6916 6.33499C82.5111 3.4196 80.6638 1.70573 77.3347 1.89095ZM79.9434 14.4822C82.9598 13.2121 84.5858 15.721 81.359 16.4955C79.6643 16.9021 77.9468 17.3374 76.1752 17.4553C77.6329 16.1925 79.1989 14.7961 79.9434 14.4822ZM146.482 3.66255C146.027 4.02096 144.065 6.01747 141.45 8.73441C138 9.22872 134.485 9.7952 130.924 10.4363C128.39 10.8921 128.92 11.3876 129.445 13.0822C129.868 14.4593 130.222 15.015 131.667 14.6698C132.966 14.3583 134.305 14.0685 135.66 13.7858C131.195 16.4246 123.708 20.3887 117.084 24.1953C119.374 21.8267 121.739 19.5323 124.176 17.3158C125.233 16.3632 124.915 16.0457 123.858 14.2465C122.705 12.2872 122.587 11.7063 121.105 12.8694C119.626 14.0336 112.216 21.8657 108.194 26.3109C107.19 27.4222 107.559 28.3219 108.935 29.6978C110.311 31.0737 110.628 31.497 113.061 30.1211C115.437 28.7801 126.397 22.2986 132.782 17.8558C128.849 22.0268 125.204 25.9405 123.621 27.688C122.618 28.7969 122.882 29.1698 124.257 30.4386C125.686 31.7592 125.951 32.2379 128.385 30.8644C130.49 29.6737 142.153 21.5878 149.214 16.5461C146.294 19.2907 142.673 22.965 140.117 26.3121C139.205 27.5076 139.271 27.7939 140.647 29.3827C142.022 30.9702 142.34 31.0761 143.609 29.806C144.88 28.5347 152.183 22.0798 158.744 19.3279C155.676 23.6673 153.877 25.7841 152.923 26.9496C151.972 28.1126 152.395 28.7212 154.194 30.1235C155.653 31.2625 155.806 31.0869 157.593 29.9515C160.238 28.2738 163.355 27.0674 166.454 25.7793C166.621 27.854 167.607 30.2282 169.524 30.2282C171.809 30.2282 180.423 25.3331 188.723 19.5504C189.376 20.3875 190.126 21.0045 190.798 21.5361C187.606 22.9794 184.716 24.4311 182.738 25.5724C181.136 26.4985 180.939 26.418 181.681 28.0055C182.421 29.5931 182.097 29.7555 183.375 29.9107C194.117 31.2216 198.364 27.7939 198.364 24.407C198.364 22.918 197.495 21.8885 196.626 21.144C198.555 20.2167 201.292 19.2967 203.673 18.3946C204.481 21.5626 208.442 21.832 208.747 23.9584C209.006 25.7673 203.044 26.5238 200.715 26.1004C198.387 25.6771 199.207 27.0073 200.61 28.2172C202.157 29.5534 202.507 30.3569 205.796 30.1223C210.451 29.7916 215.001 28.0056 215.001 25.0433C215.001 20.9143 210.174 19.1944 209.394 17.5275C208.765 16.1816 210.769 15.5033 213.31 15.9399C214.316 17.1558 214.076 17.1667 216.287 16.7734C217.058 16.6404 217.826 16.4884 218.589 16.3175C219.165 16.1792 219.106 16.1792 218.979 15.4636C218.899 14.9814 218.79 14.5043 218.654 14.0348C218.336 12.9235 218.282 12.7647 211.721 12.2355C207.581 11.9024 203.948 13.8387 203.566 16.8022C201.064 17.5768 197.639 18.6268 194.87 19.7729C191.96 17.3687 192.122 15.8208 195.346 15.8208C197.885 15.8208 199.391 16.0457 199.99 16.1516C201.338 16.3897 201.816 15.887 201.575 14.3523C201.373 13.0437 201.39 13.0257 200.345 12.5663C199.354 12.1297 197.131 11.7075 195.966 11.7075C189.168 11.7075 186.519 14.9549 187.864 18.136C184.333 20.2456 176.206 24.2326 174.287 25.0433C172.48 25.8022 171.447 26.4673 171.867 23.7588C177.033 22.0208 185.398 19.18 185.398 16.5749C185.398 13.2939 182.647 12.4472 179.682 12.4472C172.741 12.4472 167.937 18.6845 166.728 23.0973C165.412 23.5483 163.364 24.0209 161.814 24.5117C162.898 23.0299 164.261 20.1626 164.987 18.373C165.73 16.5473 165.73 16.5208 164.67 15.4347C163.588 14.3246 163.533 14.3511 162.447 14.564C160.756 14.8935 157.366 16.4691 155.144 17.9496C156.626 16.4691 156.838 16.1504 157.475 15.4107C158.109 14.6698 157.687 14.1394 156.627 13.081C155.413 11.8663 155.38 11.4586 154.424 12.078C150.813 14.0781 141.46 19.7321 132.406 24.9338C134.602 22.6691 141.057 16.332 145.408 12.0984C157.09 10.4603 170.254 9.91788 184.161 10.9642C186.522 11.141 185.643 10.2234 184.481 8.74163C183.316 7.25988 182.997 6.76556 180.988 6.62484C172.076 6.00304 161.489 6.37948 149.974 7.65316C150.462 6.99888 150.107 6.519 149.237 5.03726C148.082 3.08043 147.964 2.49952 146.482 3.66255ZM184.41 27.6387C186.362 26.3795 190.281 24.5213 192.561 23.2512C194.316 25.1611 191.481 26.97 184.41 27.6387ZM181.162 15.1028C183.811 15.6332 180.243 17.7728 172.942 20.7772C175.007 17.673 178.84 14.6373 181.162 15.1028Z" fill="black"/>
<path id="Vector_4" fill-rule="evenodd" clip-rule="evenodd" d="M132.874 5.43067C132.098 3.45701 132.021 3.42334 131.011 3.42334C117.992 3.42334 106.337 4.79564 94.5707 6.91483C92.4635 7.29489 92.7846 7.67975 93.5965 9.34071C94.4275 11.0413 95.0686 11.0786 95.9105 10.9487C97.4667 10.6991 99.02 10.4309 100.57 10.1441C98.7669 11.7419 97.0102 13.3911 95.3019 15.0897C93.4209 15.3495 91.5486 15.6684 89.6876 16.0459C87.8775 16.4187 88.0664 16.5534 88.6858 18.3539C89.1536 19.7154 89.4579 20.1988 90.2156 20.0678L90.5247 20.0172C86.7061 24.1089 83.0847 28.3605 80.5301 31.8556C79.6076 33.1172 79.4621 33.7655 80.286 36.0579C81.2626 38.7784 81.6426 38.9023 82.7997 37.3809C86.148 32.9741 92.5453 25.5281 98.7946 18.9949C102.818 18.6991 107.085 18.4802 112.558 18.7015C114.264 18.77 114.222 18.159 113.372 15.9148C112.634 13.97 112.443 13.8136 111.385 13.8232C109.323 13.8413 106.569 13.9628 103.538 14.1997C105.823 11.9783 107.963 10.0431 109.783 8.61187C113.127 8.23061 117.915 7.85777 121.551 7.88904C122.385 9.378 122.916 9.38281 124.292 9.18316C125.671 8.9835 129.324 8.59382 131.393 8.1861C133.61 7.75312 133.701 7.53904 132.874 5.43067Z" fill="black"/>
<path id="Vector_5" fill-rule="evenodd" clip-rule="evenodd" d="M40.2716 8.03089C43.5658 8.08983 43.5297 8.25339 45.6898 6.86666C47.1683 5.92655 48.6156 4.93819 50.0292 3.90317C52.235 2.28551 52.4563 1.60117 48.5475 0.727994C45.3651 0.0171884 44.4005 -0.238991 41.0329 1.68055C36.3423 4.35539 22.6169 13.9579 8.64613 27.2948C5.0476 27.9286 2.0841 29.3058 0.919872 30.1513C-0.245561 30.9968 -0.328548 31.2181 0.814033 32.9019C2.37516 35.2063 2.4353 35.258 5.02234 34.0156C6.39825 33.3529 8.43565 32.1622 10.2337 30.7851C18.1716 29.3058 35.8468 29.1999 57.6496 35.3374C59.5812 35.8798 60.1176 36.1829 58.708 33.1148C57.3586 30.1765 57.5173 30.3353 53.7336 29.4104C39.6702 25.967 24.6278 25.4943 15.949 26.3399C24.7337 19.0382 31.5928 13.217 40.2716 8.03089Z" fill="#CF4044"/>
<path id="Vector_6" fill-rule="evenodd" clip-rule="evenodd" d="M60.5958 3.26816C59.0467 3.67468 54.4572 5.06622 52.4462 5.70126C50.4353 6.33629 50.2428 6.3387 50.3294 8.2414C50.4353 10.5699 50.6469 10.5699 52.0229 10.0419C53.3988 9.51266 60.0931 7.43196 62.0246 6.87992C63.5064 6.45656 63.5353 6.04884 63.2947 4.6573C62.9387 2.59343 62.608 2.73896 60.5958 3.26816ZM44.9581 11.3649C43.4499 12.5555 37.5758 17.7152 34.1625 21.6048C33.2304 22.6668 33.2099 22.3192 34.0831 25.0181C34.4993 26.3002 34.8769 28.1945 36.7026 26.1294C38.5296 24.0643 46.7044 17.2389 48.292 15.9689C49.8796 14.6988 49.8952 14.451 48.5302 12.0793C47.0232 9.45974 46.4663 10.173 44.9581 11.3649Z" fill="#CF4044"/>
<path id="Vector_7" fill-rule="evenodd" clip-rule="evenodd" d="M76.8532 0.0136303C72.5679 0.251768 69.3122 2.55377 64.6288 6.68149C62.2197 8.79906 59.871 10.9845 57.5857 13.2351C54.799 12.5002 52.4236 11.7437 51.9281 11.5236C51.2137 11.2061 50.8168 11.2855 50.9755 12.3174C51.2113 13.8533 51.6154 15.3399 54.3552 16.5221C52.1479 18.8355 50.0148 21.2185 47.9591 23.6675C47.0823 24.715 47.086 24.8582 48.2766 26.6839C49.3711 28.3629 49.9592 28.0514 50.658 27.3201C53.0358 24.8353 56.1677 21.4184 59.6556 17.9738C61.9179 18.4561 64.5193 18.7496 65.9662 18.936C65.3801 19.673 64.8201 20.4304 64.2872 21.2067C63.3262 22.6139 63.4934 23.5893 64.5254 25.2551C65.5573 26.9232 66.8274 28.3509 70.6376 26.8426C74.4478 25.3344 77.7817 23.0324 78.5755 21.7624C79.3693 20.4923 79.4487 20.2542 77.4642 20.8098C75.4797 21.3643 72.9396 22.555 68.9706 23.1118C69.5299 22.045 70.569 20.7196 71.7898 19.3798C75.1345 19.5301 80.0248 19.4604 84.0527 17.4759C86.6337 16.2046 86.1165 13.9038 84.6083 11.6812C83.1001 9.45857 81.5919 7.87099 76.9879 9.77609C74.3431 10.8706 71.6202 12.9104 69.1642 15.3495C67.3397 15.1318 64.7154 14.8263 63.2709 14.5364C66.4702 11.6187 69.8378 8.90652 73.1224 6.99781C76.3601 5.11676 78.1245 5.41022 78.7583 6.91843C79.1877 7.93713 79.9803 8.28351 80.8222 7.63284C81.6965 6.95812 82.2919 5.72774 82.2113 4.45767C82.0297 1.54228 80.1823 -0.171588 76.8532 0.0136303ZM79.4619 12.6061C82.4783 11.336 84.1044 13.8437 80.8775 14.6194C79.1829 15.0259 77.4666 15.4613 75.695 15.5792C77.1515 14.3151 78.7186 12.9188 79.4619 12.6061ZM146.003 1.78643C145.548 2.14484 143.584 4.14136 140.971 6.8583C137.518 7.35261 134.004 7.9203 130.445 8.56014C127.911 9.01597 128.441 9.51029 128.963 11.2061C129.387 12.582 129.74 13.1389 131.186 12.7937C132.485 12.4834 133.824 12.1923 135.179 11.9109C130.713 14.5497 123.226 18.5126 116.605 22.3192C118.894 19.9504 121.259 17.656 123.695 15.4397C124.755 14.4871 124.438 14.1684 123.378 12.3704C122.227 10.4123 122.107 9.83021 120.627 10.9944C119.146 12.1587 111.736 19.9908 107.715 24.436C106.711 25.5473 107.08 26.447 108.456 27.8229C109.832 29.1988 110.149 29.6221 112.584 28.2462C114.96 26.9052 125.918 20.4237 132.303 15.9809C128.373 20.1519 124.725 24.0632 123.145 25.8131C122.139 26.922 122.403 27.2949 123.778 28.5637C125.208 29.8843 125.472 30.363 127.906 28.9871C130.011 27.7988 141.676 19.7141 148.735 14.6699C145.815 17.4146 142.194 21.0888 139.64 24.4372C138.726 25.6327 138.792 25.919 140.168 27.5078C141.544 29.0965 141.861 29.2012 143.133 27.9311C144.401 26.6598 151.704 20.2048 158.265 17.453C155.197 21.7924 153.398 23.9092 152.446 25.0722C151.493 26.2377 151.916 26.8463 153.715 28.2486C155.177 29.3876 155.329 29.2096 157.117 28.0766C159.761 26.3988 162.879 25.1925 165.975 23.9044C166.144 25.9791 167.128 28.3533 169.045 28.3533C171.33 28.3533 179.944 23.4582 188.244 17.6743C188.897 18.5114 189.646 19.1284 190.321 19.66C187.129 21.1033 184.237 22.555 182.262 23.6963C180.657 24.6224 180.462 24.5419 181.202 26.1294C181.944 27.717 181.618 27.8794 182.896 28.0345C193.638 29.3431 197.885 25.9178 197.885 22.5309C197.885 21.0407 197.016 20.0124 196.147 19.2679C198.076 18.3406 200.812 17.4206 203.194 16.5185C204.002 19.6853 207.965 19.9547 208.268 22.0811C208.527 23.8912 202.567 24.6477 200.236 24.2243C197.908 23.801 198.728 25.1312 200.131 26.3411C201.678 27.6773 202.028 28.4783 205.317 28.2462C209.975 27.9155 214.525 26.1294 214.525 23.1647C214.525 19.0382 209.695 17.3183 208.915 15.6514C208.286 14.3055 210.292 13.6272 212.831 14.0638C213.839 15.2797 213.6 15.2905 215.808 14.8973C216.579 14.7637 217.346 14.6117 218.11 14.4414C218.686 14.3019 218.627 14.3019 218.5 13.5875C218.42 13.1052 218.311 12.6281 218.175 12.1587C217.857 11.0474 217.803 10.8886 211.242 10.3594C207.102 10.025 203.469 11.9626 203.089 14.9261C200.585 15.7007 197.16 16.7507 194.391 17.8956C191.483 15.4914 191.643 13.9447 194.867 13.9447C197.406 13.9447 198.912 14.1696 199.511 14.2743C200.859 14.5124 201.337 14.0097 201.099 12.475C200.894 11.1664 200.911 11.1484 199.868 10.6889C198.875 10.2524 196.652 9.82901 195.489 9.82901C188.689 9.82901 186.04 13.0763 187.385 16.2587C183.854 18.3683 175.727 22.3565 173.808 23.1647C172.001 23.9261 170.971 24.5888 171.39 21.8826C176.554 20.1435 184.921 17.3027 184.921 14.6988C184.921 11.4178 182.168 10.5711 179.206 10.5711C172.262 10.5711 167.458 16.8084 166.249 21.2212C164.933 21.6722 162.887 22.1448 161.334 22.6355C162.419 21.1538 163.784 18.2865 164.511 16.4969C165.251 14.6699 165.251 14.6447 164.191 13.5586C163.108 12.4485 163.054 12.475 161.968 12.6867C160.28 13.0174 156.889 14.5918 154.668 16.0735C156.147 14.5918 156.361 14.2742 156.996 13.5334C157.63 12.7925 157.208 12.2633 156.148 11.2049C154.934 9.98897 154.901 9.58245 153.945 10.2006C150.334 12.2008 140.983 17.8547 131.927 23.0577C134.123 20.793 140.578 14.4559 144.929 10.2235C156.614 8.58539 169.775 8.04177 183.685 9.08813C186.043 9.26613 185.166 8.34726 184.002 6.86551C182.838 5.38376 182.518 4.88945 180.509 4.74873C171.597 4.12693 161.01 4.50337 149.495 5.77705C149.986 5.12277 149.631 4.64409 148.758 3.15994C147.603 1.20311 147.485 0.621001 146.003 1.78643ZM183.931 25.7602C185.881 24.5034 189.799 22.6452 192.082 21.3739C193.837 23.2838 191.002 25.0927 183.931 25.7602ZM180.68 13.2243C183.332 13.7547 179.761 15.8943 172.461 18.8987C174.525 15.7957 178.359 12.7612 180.68 13.2243Z" fill="#CF4044"/>
<path id="Vector_8" fill-rule="evenodd" clip-rule="evenodd" d="M132.393 3.55321C131.62 1.57955 131.543 1.54468 130.53 1.54468C117.512 1.54468 105.857 2.91698 94.09 5.03617C91.984 5.41502 92.304 5.8023 93.1158 7.46205C93.9481 9.16269 94.5867 9.20117 95.4298 9.07008C96.8707 8.84637 98.4306 8.56614 100.089 8.26546C98.2861 9.86266 96.5298 11.5119 94.8225 13.211C92.9415 13.4708 91.0691 13.7897 89.2082 14.1672C87.3981 14.5412 87.5881 14.6747 88.2063 16.4752C88.6742 17.8367 88.9772 18.319 89.7374 18.1891L90.0453 18.1386C86.2266 22.229 82.6052 26.4818 80.0519 29.9769C79.1294 31.2386 78.9839 31.8868 79.8065 34.1792C80.7831 36.8998 81.1632 37.0236 82.3202 35.5022C85.6686 31.0954 92.0658 23.6494 98.3139 17.1163C102.337 16.8204 106.603 16.6015 112.078 16.8228C113.782 16.8925 113.742 16.2816 112.891 14.0373C112.154 12.0925 111.962 11.9349 110.904 11.9458C108.844 11.9638 106.088 12.0853 103.057 12.3222C105.341 10.1008 107.482 8.16563 109.302 6.7344C112.647 6.35314 117.434 5.9803 121.073 6.01157C121.906 7.50053 122.436 7.50535 123.812 7.30449C125.19 7.10484 128.844 6.71636 130.912 6.30864C133.128 5.87566 133.22 5.66158 132.393 3.55321Z" fill="#CF4044"/>
<path id="Vector_9" fill-rule="evenodd" clip-rule="evenodd" d="M103.736 40.8387C103.462 41.2259 102.944 41.8249 102.54 41.8249C102.202 41.8249 102.059 41.5519 102.059 41.0708C102.059 40.3167 102.527 36.6003 102.683 36.1589C102.462 36.2226 102.254 36.2767 102.032 36.3393V36.1324L103.54 35.43C103.293 36.6376 102.838 40.1988 102.838 40.8098C102.838 41.0852 102.903 41.1742 103.02 41.1742C103.111 41.1742 103.293 41.0311 103.604 40.7064L103.736 40.8387ZM103.347 33.0655C103.502 33.0655 103.788 33.1569 103.788 33.662C103.788 34.0397 103.593 34.3007 103.281 34.3007C103.073 34.3007 102.813 34.1948 102.813 33.727C102.814 33.2086 103.086 33.0655 103.347 33.0655ZM110.105 40.9938C109.74 41.369 109.312 41.8249 108.831 41.8249C108.403 41.8249 108.325 41.4087 108.325 40.9277C108.325 40.0701 108.897 37.0826 108.897 36.6664C108.897 36.5089 108.832 36.4692 108.754 36.4692C107.96 36.4692 106.102 39.915 105.829 41.6156L105.114 41.695C105.335 39.8091 105.646 37.8355 105.841 36.1841C105.62 36.2359 105.413 36.2876 105.191 36.3393V36.1324L106.776 35.43C106.542 36.5341 106.321 38.1193 106.152 39.4591H106.178C106.646 38.0688 108.206 35.5599 109.271 35.5599C109.635 35.5599 109.739 35.7548 109.739 36.1962C109.739 36.7807 109.103 40.004 109.103 40.7725C109.103 41.0191 109.194 41.1742 109.35 41.1742C109.531 41.1742 109.752 40.9794 109.935 40.8098L110.105 40.9938ZM111.64 35.7692H112.199L112.42 34.0517L113.213 33.7534L112.94 35.7692H114.045V36.1589H112.888C112.525 38.7832 112.42 39.7971 112.42 40.5632C112.42 41.0563 112.537 41.1742 112.771 41.1742C113.044 41.1742 113.278 40.9277 113.733 40.4225L113.903 40.5777C113.474 41.2139 113.046 41.8249 112.421 41.8249C112.032 41.8249 111.642 41.4605 111.642 40.8904C111.642 40.111 112.018 37.2233 112.149 36.1589H111.642V35.7692H111.64ZM118.24 40.2C117.732 40.9168 116.889 41.8261 115.955 41.8261C114.836 41.8261 114.654 40.8399 114.654 39.9535C114.654 37.4193 116.46 35.4312 117.747 35.4312C118.318 35.4312 118.578 35.8847 118.578 36.4836C118.578 37.8619 116.875 39.0586 115.536 39.3677C115.506 39.6139 115.494 39.8619 115.499 40.1098C115.499 40.8892 115.772 41.3053 116.253 41.3053C116.929 41.3053 117.656 40.526 118.06 40.0437L118.24 40.2ZM117.265 36.0819C116.966 36.0819 116.745 36.1336 116.473 36.3922C115.966 36.8877 115.642 38.1614 115.576 39.0045C116.823 38.6545 117.799 37.6418 117.799 36.6532C117.797 36.2768 117.577 36.0819 117.265 36.0819ZM119.644 36.1336L121.229 35.4312C121.049 36.3371 120.893 37.2474 120.761 38.1614H120.786C121.188 37.186 121.956 35.4312 122.982 35.4312C123.138 35.4312 123.281 35.4565 123.475 35.4974L123.32 36.2767H123.034C122.137 36.2767 121.552 37.186 121.018 38.4188C120.668 39.2246 120.41 40.8495 120.279 41.6156L119.564 41.695C119.786 39.8091 120.097 37.8355 120.292 36.1841L119.641 36.3393V36.1336H119.644ZM128.274 41.0455C127.988 41.3318 127.52 41.8249 127.119 41.8249C126.648 41.8249 126.637 41.3835 126.637 40.9421C126.637 40.3948 126.766 39.1729 126.872 38.2901L126.844 38.2648C126.391 39.6155 125.494 41.8261 124.364 41.8261C123.585 41.8261 123.337 41.0203 123.337 40.1375C123.337 37.7068 125.001 35.4324 126.716 35.4324C127.054 35.4324 127.289 35.5094 127.47 35.5611L127.977 35.3025C127.756 36.8336 127.418 39.6407 127.418 40.7857C127.418 41.0588 127.443 41.2416 127.598 41.2416C127.729 41.2416 128.015 40.9685 128.131 40.8916L128.274 41.0455ZM124.648 41.0455C125.56 41.0455 127.12 36.848 127.12 36.1853C127.12 36.0567 126.716 36.0158 126.455 36.0158C126.028 36.0158 125.637 36.0927 125.325 36.4427C124.637 37.2221 124.118 39.1212 124.118 40.1351C124.117 40.7593 124.257 41.0455 124.648 41.0455ZM132.59 39.7839C132.355 40.4742 131.419 41.8249 130.445 41.8249C129.471 41.8249 129.107 40.6955 129.107 39.5253C129.107 37.524 130.472 35.4312 132.094 35.4312C132.329 35.4312 132.498 35.4565 132.668 35.5082L132.459 36.2106C132.252 36.1853 132.017 36.1336 131.667 36.1444C131.056 36.1444 130.899 36.2359 130.615 36.6773C130.262 37.2221 129.887 38.5499 129.887 39.3665C129.887 40.1723 130.042 41.1093 130.627 41.1093C131.421 41.1093 132.109 40.1976 132.356 39.7045L132.59 39.7839ZM134.044 35.7692H134.603L134.824 34.0517L135.618 33.7534L135.345 35.7692H136.449V36.1589H135.291C134.929 38.7832 134.823 39.7971 134.823 40.5632C134.823 41.0563 134.941 41.1742 135.176 41.1742C135.449 41.1742 135.681 40.9277 136.136 40.4225L136.306 40.5777C135.879 41.2139 135.449 41.8249 134.824 41.8249C134.435 41.8249 134.045 41.4605 134.045 40.8904C134.045 40.111 134.423 37.2233 134.553 36.1589H134.045V35.7692H134.044ZM139.138 40.8387C138.863 41.2259 138.345 41.8249 137.943 41.8249C137.605 41.8249 137.462 41.5519 137.462 41.0708C137.462 40.3167 137.93 36.6003 138.085 36.1589C137.864 36.2226 137.658 36.2767 137.437 36.3393V36.1324L138.945 35.43C138.696 36.6376 138.242 40.1988 138.242 40.8098C138.242 41.0852 138.306 41.1742 138.423 41.1742C138.514 41.1742 138.696 41.0311 139.007 40.7064L139.138 40.8387ZM138.749 33.0655C138.904 33.0655 139.19 33.1569 139.19 33.662C139.19 34.0397 138.995 34.3007 138.683 34.3007C138.473 34.3007 138.215 34.1948 138.215 33.727C138.216 33.2086 138.488 33.0655 138.749 33.0655ZM139.983 36.1336L141.425 35.4312C141.425 37.263 141.605 39.4856 141.841 40.8507C142.555 40.0052 143.765 37.8631 143.765 36.925C143.765 36.5233 143.585 36.4054 143.063 36.1336L143.556 35.4312C144.012 35.5347 144.48 35.9123 144.48 36.4439C144.48 37.6935 142.582 40.5524 141.816 41.6962L141.256 41.8249C140.881 40.0954 140.581 36.8877 140.581 36.1853L139.984 36.3405V36.1336H139.983ZM148.587 40.2C148.079 40.9168 147.234 41.8261 146.299 41.8261C145.181 41.8261 145.001 40.8399 145.001 39.9535C145.001 37.4193 146.807 35.4312 148.091 35.4312C148.665 35.4312 148.923 35.8847 148.923 36.4836C148.923 37.8619 147.222 39.0586 145.883 39.3677C145.852 39.6138 145.839 39.8618 145.844 40.1098C145.844 40.8892 146.117 41.3053 146.598 41.3053C147.274 41.3053 148.002 40.526 148.404 40.0437L148.587 40.2ZM147.612 36.0819C147.311 36.0819 147.09 36.1336 146.818 36.3922C146.31 36.8877 145.987 38.1614 145.921 39.0045C147.168 38.6545 148.143 37.6418 148.143 36.6532C148.143 36.2768 147.922 36.0819 147.612 36.0819ZM152.876 35.7692C153.395 35.7692 153.616 35.5996 153.707 34.7421C153.877 32.8562 154.877 32.2188 155.8 32.2188H156.073C156.051 32.4602 156.011 32.6998 155.955 32.9356C155.774 32.9079 155.565 32.8694 155.332 32.8694C154.799 32.8694 154.681 33.1425 154.552 34.0914L154.343 35.6369H155.578V36.1589H154.267L153.669 40.6294C153.344 43.0865 153.006 43.5544 151.733 43.9958L151.682 43.7492C152.396 43.4365 152.709 42.6572 152.863 41.1886C153.045 39.5 153.319 37.8078 153.528 36.1589H152.877V35.7692H152.876ZM157.553 40.8387C157.28 41.2259 156.762 41.8249 156.358 41.8249C156.022 41.8249 155.879 41.5519 155.879 41.0708C155.879 40.3167 156.347 36.6003 156.502 36.1589C156.281 36.2226 156.075 36.2767 155.854 36.3393V36.1324L157.36 35.43C157.113 36.6376 156.66 40.1988 156.66 40.8098C156.66 41.0852 156.723 41.1742 156.84 41.1742C156.931 41.1742 157.113 41.0311 157.425 40.7064L157.553 40.8387ZM157.164 33.0655C157.321 33.0655 157.605 33.1569 157.605 33.662C157.605 34.0397 157.41 34.3007 157.1 34.3007C156.891 34.3007 156.632 34.1948 156.632 33.727C156.632 33.2086 156.905 33.0655 157.164 33.0655ZM158.958 35.7692H159.517L159.739 34.0517L160.53 33.7534L160.257 35.7692H161.361V36.1589H160.205C159.841 38.7832 159.737 39.7971 159.737 40.5632C159.737 41.0563 159.853 41.1742 160.087 41.1742C160.36 41.1742 160.595 40.9277 161.051 40.4225L161.218 40.5777C160.791 41.2139 160.36 41.8249 159.739 41.8249C159.349 41.8249 158.959 41.4605 158.959 40.8904C158.959 40.111 159.335 37.2233 159.467 36.1589H158.958V35.7692ZM167.535 40.9938C167.17 41.369 166.741 41.8249 166.261 41.8249C165.832 41.8249 165.753 41.4087 165.753 40.9277C165.753 40.0701 166.325 37.0826 166.325 36.6664C166.325 36.5089 166.261 36.4692 166.182 36.4692C165.39 36.4692 163.532 39.915 163.257 41.6156L162.542 41.695C162.763 39.8091 163.075 37.8355 163.27 36.1841L162.619 36.3393V36.1324L164.204 35.43C163.972 36.5341 163.751 38.1193 163.581 39.4591H163.607C164.074 38.0688 165.634 35.5599 166.7 35.5599C167.064 35.5599 167.168 35.7548 167.168 36.1962C167.168 36.7807 166.532 40.004 166.532 40.7725C166.532 41.0191 166.621 41.1742 166.778 41.1742C166.959 41.1742 167.18 40.9794 167.363 40.8098L167.535 40.9938ZM172.059 40.2C171.552 40.9168 170.706 41.8261 169.772 41.8261C168.653 41.8261 168.473 40.8399 168.473 39.9535C168.473 37.4193 170.279 35.4312 171.564 35.4312C172.137 35.4312 172.397 35.8847 172.397 36.4836C172.397 37.8619 170.694 39.0586 169.356 39.3677C169.324 39.6138 169.311 39.8618 169.316 40.1098C169.316 40.8892 169.589 41.3053 170.07 41.3053C170.746 41.3053 171.475 40.526 171.876 40.0437L172.059 40.2ZM171.084 36.0819C170.783 36.0819 170.562 36.1336 170.29 36.3922C169.783 36.8877 169.459 38.1614 169.393 39.0045C170.642 38.6545 171.618 37.6418 171.618 36.6532C171.617 36.2768 171.397 36.0819 171.084 36.0819ZM176.296 36.3405C175.932 36.2226 175.554 36.0819 175.035 36.0819C174.399 36.0819 173.707 36.2515 173.707 36.925C173.707 37.8078 176.138 38.6798 176.138 39.8356C176.138 41.0311 175.008 41.8249 173.941 41.8249C173.552 41.8249 173.059 41.7479 172.706 41.5122L172.837 40.7725C173.15 40.9421 173.565 41.1742 174.202 41.1742C174.994 41.1742 175.553 40.8098 175.553 40.2253C175.553 39.1981 173.124 38.4332 173.124 37.3027C173.124 36.1072 174.319 35.43 175.254 35.43C175.604 35.43 176.111 35.507 176.294 35.6369V36.3405H176.296ZM180.621 36.3405C180.257 36.2226 179.882 36.0819 179.36 36.0819C178.724 36.0819 178.034 36.2515 178.034 36.925C178.034 37.8078 180.465 38.6798 180.465 39.8356C180.465 41.0311 179.333 41.8249 178.266 41.8249C177.879 41.8249 177.384 41.7479 177.034 41.5122L177.162 40.7725C177.475 40.9421 177.89 41.1742 178.527 41.1742C179.321 41.1742 179.881 40.8098 179.881 40.2253C179.881 39.1981 177.45 38.4332 177.45 37.3027C177.45 36.1072 178.645 35.43 179.58 35.43C179.932 35.43 180.437 35.507 180.62 35.6369V36.3405H180.621ZM188.197 36.3405C187.833 36.2226 187.458 36.0819 186.936 36.0819C186.299 36.0819 185.61 36.2515 185.61 36.925C185.61 37.8078 188.04 38.6798 188.04 39.8356C188.04 41.0311 186.91 41.8249 185.844 41.8249C185.454 41.8249 184.961 41.7479 184.611 41.5122L184.74 40.7725C185.052 40.9421 185.467 41.1742 186.105 41.1742C186.898 41.1742 187.458 40.8098 187.458 40.2253C187.458 39.1981 185.027 38.4332 185.027 37.3027C185.027 36.1072 186.222 35.43 187.157 35.43C187.509 35.43 188.015 35.507 188.197 35.6369V36.3405ZM191.899 35.4312C193.003 35.4312 193.316 36.5606 193.316 37.536C193.316 39.3569 192.261 41.8249 190.418 41.8249C189.402 41.8249 189.039 40.7581 189.039 39.9005C189.038 38.4705 190.027 35.4312 191.899 35.4312ZM190.793 41.3065C191.093 41.3065 191.352 41.2007 191.572 40.9806C192.248 40.3059 192.536 37.9521 192.536 37.4338C192.536 36.4066 192.106 36.017 191.56 36.017C190.976 36.017 190.858 36.1974 190.468 36.9779C190.143 37.6286 189.817 38.9275 189.817 39.7478C189.805 40.5897 190.093 41.3065 190.793 41.3065ZM196.329 40.8507C195.809 41.4761 195.353 41.8261 195.042 41.8261C194.758 41.8261 194.574 41.6457 194.574 40.9806C194.574 40.6306 194.589 40.1495 194.666 39.5638L195.497 32.8574C195.285 32.9369 195.068 32.9981 194.846 33.0402V32.831C195.29 32.6614 195.938 32.3775 196.369 32.131L195.445 39.0959C195.393 39.5517 195.302 40.4237 195.302 40.7737C195.302 41.1117 195.379 41.1754 195.471 41.1754C195.589 41.1754 195.681 41.0984 196.134 40.6967L196.329 40.8507ZM202.631 40.9024C202.215 41.3582 201.877 41.8261 201.409 41.8261C201.045 41.8261 200.813 41.5278 200.813 40.8399C200.813 40.3588 200.916 39.3689 201.034 38.604L201.009 38.5787C200.099 40.8266 199.372 41.8273 198.396 41.8273C198.007 41.8273 197.68 41.5146 197.68 40.918C197.68 39.6708 198.278 36.551 198.278 36.1865L197.628 36.3417V36.1348L199.213 35.4324C198.915 36.7061 198.459 40.1122 198.459 40.6053C198.459 40.918 198.565 41.0467 198.745 41.0467C199.812 41.0467 201.084 37.7465 201.449 35.7969L202.203 35.5623C201.956 37.0308 201.592 39.6311 201.592 40.8002C201.592 41.1249 201.629 41.2416 201.747 41.2416C201.942 41.2416 202.215 40.9168 202.41 40.722L202.631 40.9024ZM204.077 35.7692H204.636L204.857 34.0517L205.649 33.7534L205.376 35.7692H206.482V36.1589H205.324C204.96 38.7832 204.856 39.7971 204.856 40.5632C204.856 41.0563 204.974 41.1742 205.206 41.1742C205.482 41.1742 205.714 40.9277 206.17 40.4225L206.339 40.5777C205.91 41.2139 205.482 41.8249 204.857 41.8249C204.468 41.8249 204.078 41.4605 204.078 40.8904C204.078 40.111 204.453 37.2233 204.586 36.1589H204.078V35.7692H204.077ZM209.169 40.8387C208.896 41.2259 208.378 41.8249 207.974 41.8249C207.636 41.8249 207.493 41.5519 207.493 41.0708C207.493 40.3167 207.963 36.6003 208.118 36.1589C207.897 36.2226 207.689 36.2767 207.467 36.3393V36.1324L208.975 35.43C208.729 36.6376 208.273 40.1988 208.273 40.8098C208.273 41.0852 208.339 41.1742 208.456 41.1742C208.547 41.1742 208.729 41.0311 209.04 40.7064L209.169 40.8387ZM208.779 33.0655C208.937 33.0655 209.221 33.1569 209.221 33.662C209.221 34.0397 209.026 34.3007 208.713 34.3007C208.506 34.3007 208.245 34.1948 208.245 33.727C208.245 33.2086 208.518 33.0655 208.779 33.0655ZM212.834 35.4312C213.94 35.4312 214.251 36.5606 214.251 37.536C214.251 39.3569 213.198 41.8249 211.354 41.8249C210.339 41.8249 209.976 40.7581 209.976 39.9005C209.975 38.4705 210.964 35.4312 212.834 35.4312ZM211.73 41.3065C211.875 41.3083 212.019 41.2803 212.153 41.2243C212.287 41.1682 212.408 41.0853 212.509 40.9806C213.185 40.3059 213.47 37.9521 213.47 37.4338C213.47 36.4066 213.043 36.017 212.495 36.017C211.91 36.017 211.795 36.1974 211.405 36.9779C211.079 37.6286 210.754 38.9275 210.754 39.7478C210.741 40.5897 211.027 41.3065 211.73 41.3065ZM220.593 40.9938C220.228 41.369 219.801 41.8249 219.319 41.8249C218.889 41.8249 218.811 41.4087 218.811 40.9277C218.811 40.0701 219.385 37.0826 219.385 36.6664C219.385 36.5089 219.319 36.4692 219.242 36.4692C218.448 36.4692 216.59 39.915 216.317 41.6156L215.602 41.695C215.824 39.8091 216.133 37.8355 216.329 36.1841C216.108 36.2359 215.902 36.2876 215.681 36.3393V36.1324L217.266 35.43C217.031 36.5341 216.81 38.1193 216.64 39.4591H216.666C217.133 38.0688 218.693 35.5599 219.759 35.5599C220.123 35.5599 220.227 35.7548 220.227 36.1962C220.227 36.7807 219.591 40.004 219.591 40.7725C219.591 41.0191 219.682 41.1742 219.837 41.1742C220.02 41.1742 220.241 40.9794 220.422 40.8098L220.593 40.9938ZM225.014 36.3405C224.649 36.2226 224.272 36.0819 223.752 36.0819C223.116 36.0819 222.427 36.2515 222.427 36.925C222.427 37.8078 224.856 38.6798 224.856 39.8356C224.856 41.0311 223.727 41.8249 222.66 41.8249C222.27 41.8249 221.777 41.7479 221.427 41.5122L221.556 40.7725C221.869 40.9421 222.284 41.1742 222.921 41.1742C223.715 41.1742 224.272 40.8098 224.272 40.2253C224.272 39.1981 221.842 38.4332 221.842 37.3027C221.842 36.1072 223.038 35.43 223.972 35.43C224.322 35.43 224.83 35.507 225.012 35.6369V36.3405H225.014Z" fill="black"/>
</g>
</svg>
