<svg width="8" height="7" viewBox="0 0 8 7" fill="none" xmlns="http://www.w3.org/2000/svg">
<path id="Vector" d="M7.99999 2.35618C7.99999 2.65737 7.93702 2.97122 7.81201 3.2905C7.70829 3.55732 7.55735 3.8341 7.36566 4.11358C7.06192 4.55587 6.64428 5.01715 6.1257 5.48477M7.99999 2.35618L6.95344 3.8306C6.6776 4.23225 6.28881 4.66441 5.79101 5.11331L6.1257 5.48477M7.99999 2.35618C8.00092 2.03689 7.93517 1.72666 7.80645 1.43451L7.99999 2.35618ZM6.1257 5.48477C5.26542 6.25991 4.41532 6.79446 4.37921 6.81707L5.79086 5.11344M6.1257 5.48477L5.79086 5.11344M5.79086 5.11344C4.96213 5.86013 4.14019 6.3768 4.11387 6.39328L4.11377 6.39334L4 6.46461L3.88622 6.39334L3.88626 6.39327L3.87837 6.38852C3.87841 6.38855 3.87825 6.38845 3.87786 6.38821C3.87225 6.3847 3.82044 6.35229 3.73038 6.2924C3.63658 6.23003 3.50502 6.1403 3.34815 6.02751C3.03363 5.80135 2.62141 5.48532 2.20918 5.11349L2.20913 5.11344M5.79086 5.11344H2.20913M6.93415 1.04714L6.93375 1.04676C6.75599 0.876556 6.54579 0.740733 6.31433 0.647191L6.31369 0.646933C6.07344 0.549457 5.81536 0.499419 5.55454 0.500005L5.55341 0.500008C5.18598 0.500006 4.82913 0.598276 4.52031 0.782284L4.5203 0.782293C4.44643 0.826301 4.37672 0.874364 4.31095 0.926469L4.00046 1.17245L3.68997 0.926468C3.6242 0.874364 3.55448 0.826302 3.48062 0.782293L3.4806 0.782284C3.17179 0.598276 2.81494 0.500006 2.4475 0.500006C2.18212 0.500006 1.92748 0.549459 1.68722 0.646935L1.68669 0.647151C1.45423 0.741151 1.24594 0.875735 1.06701 1.0469L1.06632 1.04756C0.889551 1.21602 0.74899 1.41609 0.652024 1.63611L6.93415 1.04714ZM6.93415 1.04714C7.1109 1.21599 7.25162 1.41625 7.34902 1.63639C7.44985 1.86535 7.50071 2.1064 7.49999 2.35473V2.35618C7.49999 2.58722 7.45171 2.83931 7.34642 3.1082L7.34598 3.10935M6.93415 1.04714L7.34598 3.10935M2.20913 5.11344C1.71132 4.66456 1.32253 4.23241 1.04667 3.83077L2.20913 5.11344ZM7.34598 3.10935C7.25889 3.3334 7.12795 3.57613 6.95349 3.83053L7.34598 3.10935ZM0.5 2.35618C0.5 2.10678 0.551104 1.86517 0.652007 1.63615L1.0465 3.83053C0.872646 3.57701 0.74202 3.33375 0.653468 3.10795C0.548254 2.83916 0.5 2.58715 0.5 2.35618Z" stroke="black"/>
</svg>
