<svg width="135" height="22" viewBox="0 0 135 22" fill="none" xmlns="http://www.w3.org/2000/svg">
<g id="Social">
<g id="001-facebook">
<path id="Path" d="M9.07842 4.29509H10.8901V1.13974C10.5775 1.09674 9.50261 1 8.25072 1C5.63863 1 3.84928 2.643 3.84928 5.66274V8.44186H0.966797V11.9693H3.84928V20.845H7.38333V11.9701H10.1492L10.5883 8.44269H7.38251V6.01251C7.38333 4.99297 7.65786 4.29509 9.07842 4.29509Z" fill="white"/>
</g>
<g id="003-twitter">
<path id="Path_2" d="M72.9287 4.11613C72.1106 4.475 71.2388 4.71288 70.33 4.82838C71.265 4.27013 71.9786 3.39287 72.3141 2.3355C71.4423 2.85525 70.4798 3.22238 69.4541 3.42725C68.6263 2.54588 67.4466 2 66.1596 2C63.6626 2 61.6523 4.02675 61.6523 6.51137C61.6523 6.86888 61.6826 7.21263 61.7568 7.53988C58.0072 7.357 54.6893 5.55988 52.4605 2.82225C52.0713 3.49738 51.8431 4.27012 51.8431 5.102C51.8431 6.664 52.6475 8.04862 53.8465 8.85025C53.1218 8.8365 52.411 8.62613 51.8087 8.29475C51.8087 8.3085 51.8087 8.32638 51.8087 8.34425C51.8087 10.536 53.3721 12.3565 55.4222 12.7759C55.0551 12.8763 54.655 12.9244 54.2397 12.9244C53.951 12.9244 53.6595 12.9079 53.3858 12.8474C53.9702 14.6335 55.6285 15.9466 57.6002 15.9893C56.0657 17.1896 54.1173 17.9129 52.0081 17.9129C51.6382 17.9129 51.2835 17.8964 50.9287 17.851C52.9266 19.1394 55.2943 19.875 57.8477 19.875C66.1472 19.875 70.6847 13 70.6847 7.04075C70.6847 6.84137 70.6778 6.64887 70.6682 6.45775C71.5633 5.8225 72.3155 5.02913 72.9287 4.11613Z" fill="white"/>
</g>
<g id="004-instagram">
<path id="Shape" fill-rule="evenodd" clip-rule="evenodd" d="M119.804 0H128.054C131.85 0 134.929 3.07862 134.929 6.875V15.125C134.929 18.9214 131.85 22 128.054 22H119.804C116.007 22 112.929 18.9214 112.929 15.125V6.875C112.929 3.07862 116.007 0 119.804 0ZM128.054 19.9375C130.707 19.9375 132.866 17.7787 132.866 15.125V6.875C132.866 4.22125 130.707 2.0625 128.054 2.0625H119.804C117.15 2.0625 114.991 4.22125 114.991 6.875V15.125C114.991 17.7787 117.15 19.9375 119.804 19.9375H128.054Z" fill="white"/>
<path id="Shape_2" fill-rule="evenodd" clip-rule="evenodd" d="M118.429 11C118.429 7.96263 120.891 5.5 123.929 5.5C126.966 5.5 129.429 7.96263 129.429 11C129.429 14.0374 126.966 16.5 123.929 16.5C120.891 16.5 118.429 14.0374 118.429 11ZM120.491 11C120.491 12.8948 122.034 14.4375 123.929 14.4375C125.823 14.4375 127.366 12.8948 127.366 11C127.366 9.10388 125.823 7.5625 123.929 7.5625C122.034 7.5625 120.491 9.10388 120.491 11Z" fill="white"/>
<circle id="Oval" cx="129.841" cy="5.08761" r="0.732875" fill="white"/>
</g>
</g>
</svg>
