<svg width="70" height="13" viewBox="0 0 70 13" fill="none" xmlns="http://www.w3.org/2000/svg">
<g id="Group 21">
<path id="Vector" d="M12.5798 4.57767L8.68268 3.98457L6.94055 0.28611C6.89297 0.184848 6.81469 0.102875 6.71799 0.0530477C6.47547 -0.0723237 6.18077 0.0321525 6.05951 0.28611L4.31738 3.98457L0.420236 4.57767C0.312792 4.59374 0.214557 4.64679 0.139346 4.72715C0.0484205 4.82502 -0.00168366 4.95668 4.32016e-05 5.09321C0.00177006 5.22974 0.0551867 5.35996 0.148556 5.45527L2.96819 8.33399L2.30204 12.3989C2.28642 12.4935 2.29641 12.5907 2.33088 12.6796C2.36536 12.7686 2.42293 12.8456 2.49708 12.902C2.57123 12.9584 2.65898 12.9919 2.75039 12.9987C2.8418 13.0055 2.9332 12.9854 3.01424 12.9406L6.50003 11.0214L9.98582 12.9406C10.081 12.9936 10.1915 13.0113 10.2974 12.992C10.5645 12.9438 10.7441 12.6786 10.698 12.3989L10.0319 8.33399L12.8515 5.45527C12.9283 5.37651 12.9789 5.27364 12.9943 5.16113C13.0357 4.87985 12.8484 4.61946 12.5798 4.57767Z" fill="#F3B004"/>
<path id="Vector_2" d="M26.5798 4.57767L22.6827 3.98457L20.9406 0.28611C20.893 0.184848 20.8147 0.102875 20.718 0.0530477C20.4755 -0.0723237 20.1808 0.0321525 20.0595 0.28611L18.3174 3.98457L14.4202 4.57767C14.3128 4.59374 14.2146 4.64679 14.1393 4.72715C14.0484 4.82502 13.9983 4.95668 14 5.09321C14.0018 5.22974 14.0552 5.35996 14.1486 5.45527L16.9682 8.33399L16.302 12.3989C16.2864 12.4935 16.2964 12.5907 16.3309 12.6796C16.3654 12.7686 16.4229 12.8456 16.4971 12.902C16.5712 12.9584 16.659 12.9919 16.7504 12.9987C16.8418 13.0055 16.9332 12.9854 17.0142 12.9406L20.5 11.0214L23.9858 12.9406C24.081 12.9936 24.1915 13.0113 24.2974 12.992C24.5645 12.9438 24.7441 12.6786 24.698 12.3989L24.0319 8.33399L26.8515 5.45527C26.9283 5.37651 26.9789 5.27364 26.9943 5.16113C27.0357 4.87985 26.8484 4.61946 26.5798 4.57767Z" fill="#F3B004"/>
<path id="Vector_3" d="M40.6121 4.57767L37.0148 3.98457L35.4067 0.28611C35.3627 0.184848 35.2905 0.102875 35.2012 0.0530477C34.9774 -0.0723237 34.7053 0.0321525 34.5934 0.28611L32.9853 3.98457L29.3879 4.57767C29.2887 4.59374 29.1981 4.64679 29.1286 4.72715C29.0447 4.82502 28.9984 4.95668 29 5.09321C29.0016 5.22974 29.0509 5.35996 29.1371 5.45527L31.7399 8.33399L31.125 12.3989C31.1105 12.4935 31.1198 12.5907 31.1516 12.6796C31.1834 12.7686 31.2366 12.8456 31.305 12.902C31.3734 12.9584 31.4544 12.9919 31.5388 12.9987C31.6232 13.0055 31.7076 12.9854 31.7824 12.9406L35 11.0214L38.2177 12.9406C38.3055 12.9936 38.4075 13.0113 38.5053 12.992C38.7518 12.9438 38.9176 12.6786 38.8751 12.3989L38.2602 8.33399L40.8629 5.45527C40.9338 5.37651 40.9805 5.27364 40.9947 5.16113C41.033 4.87985 40.8601 4.61946 40.6121 4.57767Z" fill="#F3B004"/>
<path id="Vector_4" d="M45.302 12.3989L45.9682 8.33399L43.1486 5.45527C43.0552 5.35996 43.0018 5.22974 43 5.09321C42.9983 4.95668 43.0484 4.82502 43.1393 4.72715L45.302 12.3989ZM45.302 12.3989C45.2864 12.4935 45.2964 12.5907 45.3309 12.6796C45.3654 12.7686 45.4229 12.8456 45.4971 12.902L45.302 12.3989ZM51.4565 4.0911L51.5133 4.21167L51.6451 4.23172L55.5414 4.8247C55.5415 4.82471 55.5416 4.82473 55.5417 4.82474C55.6673 4.84446 55.7694 4.97201 55.7469 5.12469L55.7465 5.12734C55.7384 5.18694 55.7118 5.24034 55.6727 5.28056C55.6726 5.28064 55.6725 5.28072 55.6725 5.2808L52.8533 8.15906L52.7647 8.24949L52.7852 8.37442L53.4513 12.4393L53.4513 12.4395C53.4767 12.5938 53.3765 12.7237 53.253 12.746L53.2526 12.7461C53.2031 12.7551 53.1515 12.7467 53.1075 12.7222L53.1064 12.7216L49.6206 10.8024L49.5 10.7361L49.3795 10.8024L45.8937 12.7216L45.8933 12.7218C45.8543 12.7433 45.8114 12.7526 45.769 12.7494C45.7266 12.7462 45.6848 12.7306 45.6484 12.703C45.6119 12.6752 45.5822 12.6362 45.564 12.5893C45.5458 12.5423 45.5403 12.4903 45.5487 12.4397L45.5487 12.4393L46.2149 8.37442L46.2354 8.24949L46.1468 8.15906L43.3272 5.28034L43.3271 5.28032C43.2799 5.23214 43.251 5.16393 43.25 5.09004C43.2491 5.0163 43.2762 4.94727 43.3222 4.89762C43.3606 4.85677 43.4081 4.83226 43.4572 4.82492L43.4578 4.82482L47.355 4.23172L47.4868 4.21167L47.5435 4.0911L49.2851 0.393829C49.2852 0.39366 49.2853 0.393491 49.2854 0.393321C49.3493 0.260088 49.4931 0.218202 49.6032 0.275128L49.6035 0.27528C49.6497 0.299085 49.6894 0.339539 49.7143 0.392431L49.7144 0.392643L51.4565 4.0911Z" fill="white" stroke="#969696" stroke-width="0.5"/>
<path id="Vector_5" d="M59.302 12.3989L59.9682 8.33399L57.1486 5.45527C57.0552 5.35996 57.0018 5.22974 57 5.09321C56.9983 4.95668 57.0484 4.82502 57.1393 4.72715L59.302 12.3989ZM59.302 12.3989C59.2864 12.4935 59.2964 12.5907 59.3309 12.6796C59.3654 12.7686 59.4229 12.8456 59.4971 12.902L59.302 12.3989ZM65.4565 4.0911L65.5133 4.21167L65.6451 4.23172L69.5414 4.8247C69.5415 4.82471 69.5416 4.82473 69.5417 4.82474C69.6673 4.84446 69.7694 4.97201 69.7469 5.12469L69.7465 5.12734C69.7384 5.18694 69.7118 5.24034 69.6727 5.28056C69.6726 5.28064 69.6725 5.28072 69.6725 5.2808L66.8533 8.15906L66.7647 8.24949L66.7852 8.37442L67.4513 12.4393L67.4513 12.4395C67.4767 12.5938 67.3765 12.7237 67.253 12.746L67.2526 12.7461C67.2031 12.7551 67.1515 12.7467 67.1075 12.7222L67.1064 12.7216L63.6206 10.8024L63.5 10.7361L63.3795 10.8024L59.8937 12.7216L59.8933 12.7218C59.8543 12.7433 59.8114 12.7526 59.769 12.7494C59.7266 12.7462 59.6848 12.7306 59.6484 12.703C59.6119 12.6752 59.5822 12.6362 59.564 12.5893C59.5458 12.5423 59.5403 12.4903 59.5487 12.4397L59.5487 12.4393L60.2149 8.37442L60.2354 8.24949L60.1468 8.15906L57.3272 5.28034L57.3271 5.28032C57.2799 5.23214 57.251 5.16393 57.25 5.09004C57.2491 5.0163 57.2762 4.94727 57.3222 4.89762C57.3606 4.85677 57.4081 4.83226 57.4572 4.82492L57.4578 4.82482L61.355 4.23172L61.4868 4.21167L61.5435 4.0911L63.2851 0.393829C63.2852 0.39366 63.2853 0.393491 63.2854 0.393321C63.3493 0.260088 63.4931 0.218202 63.6032 0.275128L63.6035 0.27528C63.6497 0.299085 63.6894 0.339539 63.7143 0.392431L63.7144 0.392643L65.4565 4.0911Z" fill="white" stroke="#969696" stroke-width="0.5"/>
</g>
</svg>
