<svg width="87" height="21" viewBox="0 0 87 21" fill="none" xmlns="http://www.w3.org/2000/svg">
<path id="Vector" d="M35.9149 20.4597C33.2628 20.4597 31.604 19.9333 30.8292 18.8307C30.5524 18.3345 30.3965 17.78 30.3741 17.2122C30.3516 16.6444 30.4633 16.0793 30.7001 15.5628V15.5131L34.3256 7.65626H18.9694C16.8438 7.65626 16.3769 8.86806 16.3571 8.91772V8.96739L13.3772 15.3443C13.2282 15.6323 13.1885 15.8509 13.2481 15.9502C13.3077 16.0495 14.142 16.278 14.589 16.2482H21.6314C23.096 16.2449 24.5509 16.0102 25.9423 15.5529L27.5415 14.9668L23.906 20.4696H5.97722C3.643 20.4696 2.00408 19.8538 1.26905 18.6917C0.953359 18.1469 0.787109 17.5284 0.787109 16.8988C0.787109 16.2691 0.953359 15.6507 1.26905 15.1059L4.24891 8.63961C6.82152 3.24606 13.1885 3.45466 13.4964 3.4646H36.2426L37.8418 0.0576172H50.1387L48.5395 3.50432H80.6127C83.5926 3.50432 85.3904 4.09036 86.1652 5.26244C87.0393 6.60338 86.4135 8.37142 85.6288 10.2289L82.0033 18.046C81.6159 18.94 81.7649 19.1486 82.0033 19.4664L82.6887 20.4597H69.9746L70.1038 19.5459C68.9099 20.1905 67.5661 20.5059 66.2101 20.4597H57.3798C54.7674 20.4597 53.2874 20.0127 52.612 19.0194C52.2411 18.4281 52.1163 17.715 52.2643 17.0329L50.0096 20.4895H35.9149V20.4597ZM31.7331 15.9999C31.5522 16.3428 31.4576 16.7246 31.4576 17.1123C31.4576 17.5 31.5522 17.8819 31.7331 18.2248C32.2695 18.9897 33.7197 19.3969 35.9149 19.3969H49.3342L50.7943 17.1819C50.0292 17.3373 49.2507 17.4171 48.47 17.4202H43.5036C42.5699 17.4202 41.9441 17.4203 41.6263 16.9038C41.5287 16.6943 41.4849 16.4638 41.4987 16.2332C41.5126 16.0025 41.5838 15.7789 41.7057 15.5827L45.8974 6.64311H73.7094C75.0304 6.64311 75.4874 7.29868 75.4874 7.90458C75.4874 8.82834 74.355 9.81169 72.6764 9.82162H62.1873C59.4955 9.82162 56.754 10.2487 54.9562 13.3975C54.6482 14.0332 53.794 15.831 53.645 16.1886C53.2278 17.2713 53.1782 18.0162 53.496 18.4831C53.9331 19.1287 55.1945 19.4764 57.35 19.4764H66.1703C68.1569 19.4764 69.5773 18.9599 70.4017 17.9566L71.6533 16.4468L71.2262 19.4764H80.6823C80.5814 18.8778 80.6827 18.2627 80.9703 17.7282L84.6057 9.87129C85.2712 8.31183 85.8076 6.89142 85.2315 5.96766C84.6554 5.04391 83.1456 4.736 80.6028 4.71613H46.8311L48.4303 1.27935H38.5868L36.9975 4.68633H13.5163C13.4368 4.68633 7.55655 4.4976 5.29185 9.22564L2.312 15.682C2.08043 16.0563 1.94798 16.4834 1.92713 16.9231C1.90628 17.3627 1.99771 17.8005 2.19281 18.195C2.71925 19.0195 4.06018 19.4664 5.96729 19.4664H23.3995L24.949 17.1123C23.8912 17.3408 22.8129 17.4606 21.7307 17.4699H14.6983C14.3606 17.4699 12.9302 17.5395 12.3641 16.6852C12.2113 16.424 12.1359 16.1248 12.1464 15.8224C12.157 15.5199 12.2531 15.2267 12.4236 14.9768L15.4035 8.63961C15.5227 8.34162 16.2776 6.65303 19.0489 6.65303H36.183L31.7331 15.9999ZM42.6593 16.2581C42.9901 16.2758 43.3217 16.2758 43.6526 16.2581H48.5395C49.6917 16.2532 50.8355 16.062 51.9266 15.6919L52.7809 15.3741C53.1285 14.5993 53.9033 13.0001 54.0026 12.7915C56.1084 9.10646 59.3365 8.61975 62.2171 8.61975H72.7658C73.0544 8.63674 73.3435 8.59437 73.6151 8.49529C73.8867 8.3962 74.1352 8.24249 74.3451 8.04364C74.4543 7.91452 74.4742 7.82511 74.4643 7.81518C74.4544 7.80524 74.2756 7.6662 73.7988 7.65626H46.6821L42.7487 15.9999L42.6593 16.2581ZM69.1899 17.4004H66.0015C65.275 17.4903 64.539 17.3403 63.9057 16.9733C63.6077 16.715 63.3395 16.1985 63.7765 15.2549L64.6506 13.3776C65.1572 12.2949 66.3193 11.7387 68.1271 11.7387H73.8882L72.4578 14.8278C72.16 15.6131 71.6958 16.3247 71.097 16.9137C70.5258 17.2636 69.8571 17.4203 69.1899 17.3607V17.4004ZM64.6605 16.1389C65.0938 16.2744 65.5491 16.325 66.0015 16.2879H69.1899C69.6187 16.3346 70.051 16.2405 70.4216 16.0197C70.8623 15.5403 71.2003 14.9758 71.4149 14.3609L72.1102 12.8511H68.0973C66.7663 12.8511 65.932 13.1889 65.634 13.8444L64.75 15.7217C64.6956 15.8405 64.6652 15.9687 64.6605 16.0992V16.1389Z" fill="#231F20"/>
</svg>
