<svg width="72" height="26" viewBox="0 0 72 26" fill="none" xmlns="http://www.w3.org/2000/svg">
<path id="Vector" d="M43.2665 20.9704H33.1739C33.1739 20.9704 31.1961 20.8832 31.7778 19.0508L32.9994 15.3279H43.8191L45.3897 10.5288H34.5409C34.5409 10.5288 35.1808 8.60922 35.8497 6.57325C36.4896 4.59546 38.4383 4.79906 38.4383 4.79906H47.2511L48.8218 0H31.2252L22.7905 25.7695H41.6959L43.2665 20.9704ZM56.1803 17.8583C56.0058 17.8583 55.9185 18.0619 55.715 18.3528L50.6832 25.7986H42.8011L51.7012 12.8266L50.7414 0.0290781H57.6637L58.1581 7.00953C58.1581 7.12587 58.1581 7.32947 58.2454 7.32947C58.3035 7.32947 58.3326 7.21313 58.449 7.09679L63.4225 0.0290781H71.421L62.6372 11.9831L63.8879 25.7986H57.0529L56.3257 18.4109C56.3257 18.0328 56.2966 17.8583 56.1803 17.8583ZM14.094 20.9414C14.9666 20.9414 16.3626 20.3015 16.7698 19.3708L17.2352 18.0037C17.7878 16.2877 18.4277 15.0661 15.9264 15.0661H11.3891L9.44036 20.9704L14.094 20.9414ZM23.3722 0.0290781C26.8042 0.0290781 27.9386 2.44316 27.0369 5.20625L25.5827 9.42361C24.681 11.8668 21.9761 12.4485 21.9761 12.4485C25.2336 13.0302 24.0121 16.055 24.0121 16.055C23.663 17.3057 23.4594 18.0037 23.0522 19.2253C22.4996 20.9414 22.0634 22.3374 21.5398 23.5881C21.0454 24.7806 19.3875 25.7695 17.177 25.7695H0.976562L9.41128 0L23.3722 0.0290781ZM18.0496 4.82814H14.7339L12.9015 10.4416H16.1009C18.515 10.5288 19.562 9.51086 20.1146 7.79484L20.6091 6.39875C20.8999 5.52619 20.58 4.82814 19.911 4.82814H18.0496Z" fill="black"/>
</svg>
