<svg width="187" height="12" viewBox="0 0 187 12" fill="none" xmlns="http://www.w3.org/2000/svg">
<path id="Vector" d="M185.693 7.94873C185.678 8.74447 185.35 9.50234 184.782 10.0595C184.214 10.6167 183.45 10.9287 182.654 10.9286L0.882357 10.9783L1.36907 11.455V4.02525C1.38464 3.23123 1.71037 2.47482 2.27655 1.91791C2.84274 1.36101 3.60442 1.04784 4.39859 1.04539H186.17L185.683 0.558679L185.693 7.94873ZM186.19 0.00244141H4.41846C3.36471 0.00244141 2.35413 0.421036 1.60902 1.16615C0.863911 1.91125 0.445312 2.92184 0.445312 3.97558V11.9219H0.932024H182.703C183.757 11.9219 184.768 11.5033 185.513 10.7582C186.258 10.0131 186.676 9.00247 186.676 7.94873V0.00244141H186.19Z" fill="#010101"/>
</svg>
