<svg width="37" height="24" viewBox="0 0 37 24" fill="none" xmlns="http://www.w3.org/2000/svg">
<path id="Vector" fill-rule="evenodd" clip-rule="evenodd" d="M21.6808 12.5176C21.6808 12.5176 21.5285 12.3957 21.7112 12.3653C26.2493 11.6343 30.4523 9.98964 30.8178 6.51756C31.1224 1.85768 25.9143 0.213007 19.9143 0.0607228C18.5742 0.030266 12.8178 0.0302734 10.5031 0.0302734H0.574219V23.6038H10.5031V12.883C10.625 12.883 10.8077 12.883 10.96 12.883C11.2646 12.883 11.3864 13.0353 11.3864 13.0353L23.3559 23.6038H36.2696L21.6808 12.5176ZM10.5336 11.0556V2.07087C10.5336 2.07087 12.7265 2.00996 15.1021 2.13179C18.5742 2.43636 20.5843 3.50234 20.5843 6.36528C20.5843 11.7257 10.5336 11.0556 10.5336 11.0556Z" fill="black"/>
</svg>
