<svg width="24" height="24" viewBox="0 0 24 24" fill="none" xmlns="http://www.w3.org/2000/svg">
<rect width="24" height="24" fill="#1E1E1E"/>
<g id="Home" clip-path="url(#clip0_0_1)">
<rect width="1440" height="6342" transform="translate(-1131 -6274)" fill="white"/>
<g id="Footer / Mini / 5">
<rect width="1440" height="113" transform="translate(-1131 -45)" fill="#0F0F0F"/>
<g id="Social Links" clip-path="url(#clip1_0_1)">
<g id="Social Icons">
<path id="BG" opacity="0.1" fill-rule="evenodd" clip-rule="evenodd" d="M0 12C0 5.37258 5.37258 0 12 0C18.6274 0 24 5.37258 24 12C24 18.6274 18.6274 24 12 24C5.37258 24 0 18.6274 0 12Z" fill="white"/>
<path id="Path" fill-rule="evenodd" clip-rule="evenodd" d="M12.0006 5.6001C10.2625 5.6001 10.0443 5.6077 9.36165 5.63876C8.68031 5.66997 8.21523 5.77783 7.8083 5.9361C7.38736 6.09957 7.03029 6.31824 6.67455 6.67411C6.31855 7.02985 6.09988 7.38692 5.93588 7.80772C5.77721 8.21479 5.66921 8.68 5.63854 9.36107C5.60801 10.0437 5.60001 10.262 5.60001 12.0002C5.60001 13.7383 5.60774 13.9558 5.63867 14.6385C5.67001 15.3198 5.77787 15.7849 5.93601 16.1918C6.09961 16.6127 6.31828 16.9698 6.67415 17.3256C7.02975 17.6816 7.38682 17.9008 7.8075 18.0642C8.2147 18.2225 8.6799 18.3304 9.36111 18.3616C10.0438 18.3926 10.2618 18.4002 11.9998 18.4002C13.7381 18.4002 13.9556 18.3926 14.6382 18.3616C15.3196 18.3304 15.7852 18.2225 16.1924 18.0642C16.6132 17.9008 16.9697 17.6816 17.3253 17.3256C17.6813 16.9698 17.9 16.6127 18.064 16.1919C18.2213 15.7849 18.3293 15.3197 18.3613 14.6386C18.392 13.9559 18.4 13.7383 18.4 12.0002C18.4 10.262 18.392 10.0439 18.3613 9.3612C18.3293 8.67986 18.2213 8.21479 18.064 7.80785C17.9 7.38692 17.6813 7.02985 17.3253 6.67411C16.9693 6.31811 16.6133 6.09944 16.192 5.9361C15.784 5.77783 15.3186 5.66997 14.6373 5.63876C13.9546 5.6077 13.7373 5.6001 11.9986 5.6001H12.0006ZM11.4264 6.75343C11.5968 6.75316 11.787 6.75343 12.0006 6.75343C13.7094 6.75343 13.9119 6.75956 14.5867 6.79023C15.2107 6.81876 15.5494 6.92303 15.775 7.01063C16.0737 7.12663 16.2866 7.2653 16.5105 7.4893C16.7345 7.7133 16.8732 7.92664 16.9894 8.22531C17.077 8.45064 17.1814 8.78931 17.2098 9.41332C17.2405 10.088 17.2472 10.2907 17.2472 11.9987C17.2472 13.7067 17.2405 13.9094 17.2098 14.584C17.1813 15.208 17.077 15.5467 16.9894 15.7721C16.8734 16.0707 16.7345 16.2834 16.5105 16.5073C16.2865 16.7313 16.0738 16.8699 15.775 16.9859C15.5497 17.0739 15.2107 17.1779 14.5867 17.2065C13.9121 17.2371 13.7094 17.2438 12.0006 17.2438C10.2916 17.2438 10.0891 17.2371 9.41442 17.2065C8.79041 17.1777 8.45174 17.0734 8.22601 16.9858C7.92734 16.8698 7.714 16.7311 7.49 16.5071C7.266 16.2831 7.12733 16.0703 7.01106 15.7715C6.92346 15.5462 6.81906 15.2075 6.79066 14.5835C6.75999 13.9088 6.75386 13.7062 6.75386 11.9971C6.75386 10.288 6.75999 10.0864 6.79066 9.41172C6.81919 8.78771 6.92346 8.44904 7.01106 8.22344C7.12706 7.92477 7.266 7.71143 7.49 7.48743C7.714 7.26343 7.92734 7.12476 8.22601 7.00849C8.45161 6.92049 8.79041 6.81649 9.41442 6.78783C10.0048 6.76116 10.2336 6.75316 11.4264 6.75182V6.75343ZM15.4169 7.81611C14.9929 7.81611 14.6489 8.15971 14.6489 8.58385C14.6489 9.00785 14.9929 9.35185 15.4169 9.35185C15.8409 9.35185 16.1849 9.00785 16.1849 8.58385C16.1849 8.15984 15.8409 7.81611 15.4169 7.81611ZM12.0006 8.71345C10.1855 8.71345 8.71392 10.1851 8.71392 12.0001C8.71392 13.8152 10.1855 15.2862 12.0006 15.2862C13.8157 15.2862 15.2868 13.8152 15.2868 12.0001C15.2868 10.1851 13.8157 8.71345 12.0006 8.71345ZM12.0006 9.86679C13.1787 9.86679 14.1339 10.8219 14.1339 12.0001C14.1339 13.1783 13.1787 14.1335 12.0006 14.1335C10.8223 14.1335 9.86724 13.1783 9.86724 12.0001C9.86724 10.8219 10.8223 9.86679 12.0006 9.86679Z" fill="white"/>
</g>
</g>
</g>
</g>
<defs>
<clipPath id="clip0_0_1">
<rect width="1440" height="6342" fill="white" transform="translate(-1131 -6274)"/>
</clipPath>
<clipPath id="clip1_0_1">
<rect width="144" height="24" fill="white"/>
</clipPath>
</defs>
</svg>
