<svg width="186" height="23" viewBox="0 0 186 23" fill="none" xmlns="http://www.w3.org/2000/svg">
<path id="Vector" d="M70.151 22.7345C67.4989 22.7345 65.8401 22.1981 65.0654 21.0956C64.7886 20.5993 64.6326 20.0448 64.6102 19.4771C64.5878 18.9093 64.6995 18.3442 64.9363 17.8277L68.5717 9.96083H53.2056C51.0799 9.96083 50.6131 11.1726 50.5932 11.2223V11.272L47.6134 17.6489C47.4644 17.9468 47.4246 18.1654 47.4842 18.2647C47.5438 18.364 48.3683 18.5826 48.8252 18.5528H55.8775C57.3423 18.5423 58.7966 18.3044 60.1884 17.8475L61.7776 17.2615L58.1521 22.7643H40.2134C37.8792 22.7643 36.2402 22.1484 35.5052 20.9863C35.1904 20.443 35.0246 19.8263 35.0246 19.1984C35.0246 18.5705 35.1904 17.9537 35.5052 17.4105L38.4851 10.9343C41.0577 5.54071 47.4246 5.7493 47.7326 5.75923H70.4788L72.0681 2.34232H84.3749L82.7757 5.78903H114.779C117.759 5.78903 119.557 6.37507 120.332 7.54715C121.206 8.88808 120.58 10.6561 119.795 12.5136L116.16 20.3804C115.763 21.2644 115.922 21.473 116.16 21.7909L116.379 22.0988L116.289 21.7313L116.627 21.5425L117.263 21.2148C117.989 20.3697 118.57 19.4097 118.981 18.374L122.954 9.76217C123.27 9.17426 123.504 8.54601 123.649 7.8948C123.679 7.42562 123.587 6.95667 123.381 6.53399L123.113 5.78903H136.026L135.817 6.55386C135.941 6.4689 136.07 6.39258 136.205 6.32541C136.962 5.95698 137.796 5.77317 138.638 5.78903H147.528C150.359 5.78903 152.127 6.40487 152.941 7.68621C153.666 8.81855 153.557 10.3979 152.633 12.3745L149.654 18.8408C149.335 19.4561 149.088 20.106 148.919 20.7777C148.908 21.1978 149.011 21.6129 149.217 21.9796L149.604 22.7742H133.612L135.201 21.5922C135.559 21.324 135.926 21.0558 136.294 20.7678C136.854 20.0226 137.327 19.2162 137.704 18.364L141.35 10.527C141.428 10.3767 141.485 10.2162 141.519 10.0502C141.224 9.9934 140.924 9.97007 140.625 9.9807H136.592C136.156 9.95471 135.72 10.019 135.311 10.1694C135.181 10.1694 134.933 10.3979 134.655 11.0038L131.01 18.8309C130.675 19.4587 130.422 20.1261 130.255 20.8174C130.24 21.238 130.343 21.6544 130.553 22.0193L130.9 22.804H104.181L104.31 21.8902C103.115 22.5402 101.766 22.8558 100.406 22.804H91.5861C88.9639 22.804 87.4938 22.357 86.8184 21.3638C86.4474 20.7724 86.3226 20.0594 86.4707 19.3772L84.2259 22.7146H70.2007L70.151 22.7345ZM65.9693 18.225C65.7883 18.5696 65.6937 18.9531 65.6937 19.3424C65.6937 19.7317 65.7883 20.1152 65.9693 20.4599C66.5057 21.2148 67.9558 21.622 70.151 21.622H83.5703L85.0304 19.407C84.2653 19.5624 83.4868 19.6422 82.7061 19.6454H77.8688C76.8756 19.6454 76.2299 19.6454 75.8823 19.1289C75.782 18.9201 75.7367 18.6892 75.7506 18.458C75.7645 18.2268 75.8372 18.003 75.9617 17.8078L80.1534 8.86822H107.965C109.277 8.86822 109.743 9.52379 109.743 10.1297C109.743 11.0535 108.611 12.0368 106.932 12.0467H96.4234C93.7316 12.0467 90.9902 12.4738 89.1923 15.6325C88.8844 16.2583 88.0202 18.0561 87.8812 18.4236C87.464 19.4964 87.4143 20.2413 87.7322 20.7082C88.1692 21.3538 89.4307 21.7015 91.5861 21.7015H100.406C102.393 21.7015 103.804 21.185 104.638 20.1817L105.889 18.6719L105.462 21.7015H114.918C114.812 21.1062 114.914 20.4923 115.206 19.9632L118.842 12.0964C119.507 10.5469 120.044 9.11654 119.468 8.20272C118.892 7.2889 117.382 6.96111 114.839 6.94124H81.0672L82.6664 3.50447H72.8229L71.2337 6.91145H47.7524C47.663 6.91145 41.7927 6.72271 39.528 11.4508L36.5482 17.9071C36.3166 18.2833 36.1842 18.712 36.1634 19.1532C36.1425 19.5945 36.2339 20.0338 36.429 20.4301C36.9554 21.2446 38.2963 21.6915 40.2034 21.6915H57.576L59.1255 19.3374C58.0678 19.5659 56.9894 19.6857 55.9073 19.695H48.8748C48.5371 19.695 47.1068 19.7546 46.5406 18.9004C46.3879 18.6392 46.3124 18.34 46.323 18.0375C46.3335 17.7351 46.4297 17.4419 46.6002 17.1919L49.5801 10.8548C49.6893 10.5568 50.4542 8.86822 53.2254 8.86822H70.3199L65.9693 18.225ZM136.949 21.6021H147.955C147.849 21.2585 147.818 20.8959 147.866 20.5393C148.049 19.7668 148.325 19.0195 148.69 18.3144L151.67 11.8381C152.425 10.229 152.544 9.01721 152.047 8.23252C151.551 7.44782 149.952 6.83198 147.568 6.83198H138.678C138.012 6.81959 137.352 6.96242 136.751 7.24916C136.216 7.57111 135.714 7.94365 135.251 8.36164L133.89 9.54365L134.625 6.83198H124.692C124.796 7.21343 124.827 7.61123 124.782 8.00405C124.61 8.75675 124.343 9.48444 123.987 10.1694L120.014 18.7812C119.581 19.781 119.035 20.7276 118.385 21.6021H129.232C129.128 21.2648 129.095 20.91 129.132 20.5592C129.322 19.7763 129.605 19.0192 129.977 18.3044L133.632 10.4674C133.861 9.86155 134.307 9.36241 134.883 9.06687C135.435 8.85748 136.023 8.76285 136.612 8.78876H140.645C141.638 8.78876 142.184 8.92781 142.452 9.26553C142.899 9.81184 142.502 10.6462 142.373 10.9243L138.727 18.7514C138.307 19.706 137.774 20.6065 137.138 21.4333L137.049 21.5227L136.949 21.6021ZM76.8954 18.4832C77.2263 18.5009 77.5579 18.5009 77.8887 18.4832H82.7657C83.9179 18.4783 85.0617 18.2871 86.1528 17.9171L87.0071 17.5992C87.3547 16.8244 88.1295 15.2253 88.2288 15.0167C90.3346 11.3316 93.5628 10.8448 96.4433 10.8448H106.972C107.261 10.8618 107.55 10.8195 107.821 10.7204C108.093 10.6213 108.342 10.4676 108.551 10.2688C108.613 10.2063 108.655 10.1267 108.671 10.0403C108.671 10.0403 108.482 9.89131 108.005 9.88138H80.8884L76.9848 18.215L76.8954 18.4832ZM178.588 22.7146H156.289C153.786 22.7146 152.216 22.3074 151.481 21.4829C150.746 20.6585 150.776 19.1587 151.73 17.1324L154.66 10.8349C155.331 9.19792 156.493 7.80963 157.987 6.86178C159.763 6.0037 161.729 5.61392 163.699 5.72943H180.495C182.998 5.72943 184.578 6.12675 185.332 6.96111C186.087 7.79547 186.058 9.27546 185.114 11.3018L182.68 16.5463H164.205L163.659 17.6985C163.562 17.8521 163.53 18.0378 163.57 18.215C163.57 18.215 163.798 18.523 164.95 18.523H175.608C176.999 18.523 177.962 18.5229 178.489 18.4336C179.245 18.312 179.987 18.1157 180.704 17.8475L182.273 17.3111L178.588 22.7146ZM163.689 6.82205C161.914 6.71939 160.143 7.06078 158.534 7.81534C157.241 8.65035 156.238 9.86466 155.663 11.2918L152.683 17.5992C151.958 19.1388 151.819 20.2215 152.266 20.738C152.713 21.2545 153.577 21.5922 156.239 21.5922H177.972L179.492 19.3474C179.166 19.4332 178.834 19.493 178.499 19.5262C177.507 19.6054 176.513 19.6353 175.519 19.6156H164.95C163.738 19.6156 162.964 19.3573 162.626 18.8011C162.489 18.5603 162.417 18.2883 162.417 18.0114C162.417 17.7346 162.489 17.4625 162.626 17.2218L163.46 15.4239H181.925L184.071 10.825C184.786 9.2854 184.925 8.20272 184.468 7.68621C184.011 7.1697 183.127 6.82205 180.495 6.82205H163.689ZM23.7646 22.7146H6.74958C4.01804 22.7146 2.25993 22.1981 1.35603 21.1353C0.452145 20.0725 0.481944 18.0859 1.64409 15.5928L5.81589 6.6532C6.70456 4.58257 8.1964 2.82766 10.0969 1.61723C12.1476 0.481296 14.4688 -0.0749614 16.8116 0.00811228H33.8961C36.6872 0.00811228 38.4851 0.554412 39.3989 1.67683C40.3922 2.8489 40.2432 4.65669 39.0711 7.12997L34.9092 16.0695C34.0214 18.1545 32.5216 19.921 30.6083 21.1353C28.515 22.2697 26.1533 22.8155 23.7745 22.7146H23.7646ZM16.7619 1.12059C14.6218 1.03552 12.4992 1.53699 10.6234 2.57079C8.89974 3.6626 7.54873 5.25263 6.74958 7.12997L2.58771 16.0695C1.59443 18.1455 1.47523 19.6156 2.14073 20.4301C2.80623 21.2446 4.32596 21.6121 6.68005 21.6121H23.7745C25.9414 21.705 28.0932 21.2108 30.0024 20.1817C31.7209 19.078 33.0673 17.4824 33.8663 15.6027L38.0281 6.66312C39.0214 4.67655 39.1406 3.18662 38.495 2.39199C37.8494 1.59736 36.2502 1.12059 33.8464 1.12059H16.7619ZM11.279 20.6089C10.056 20.6859 8.84433 20.3347 7.85213 19.6156C7.50393 19.3389 7.23059 18.9794 7.05708 18.5699C6.88357 18.1604 6.81541 17.714 6.85884 17.2714C7.04756 14.4902 10.6035 10.5171 15.9275 7.15977C23.0991 2.63038 30.8268 0.812662 33.4392 3.03762C33.7838 3.31509 34.0548 3.67325 34.228 4.08039C34.4013 4.48753 34.4715 4.93111 34.4325 5.37185C34.2537 8.16298 30.6977 12.1262 25.3737 15.4835C20.2682 18.7614 14.9045 20.6089 11.279 20.6089ZM30.0819 3.24622C26.9033 3.24622 21.7979 4.84541 16.5533 8.15305C10.832 11.7587 8.14018 15.3941 8.00112 17.4005C7.9699 17.6633 8.00438 17.9297 8.10146 18.1759C8.19854 18.422 8.35518 18.6403 8.55736 18.811C10.5439 20.4797 17.4969 19.1785 24.7777 14.5995C30.499 10.9839 33.1908 7.34848 33.32 5.35198C33.3549 5.08898 33.3221 4.82141 33.2248 4.5746C33.1275 4.32778 32.9688 4.10989 32.7637 3.94152C31.9751 3.41101 31.0289 3.16571 30.0819 3.24622ZM103.426 19.6255H100.238C99.5111 19.7169 98.7746 19.5668 98.1418 19.1984C97.8438 18.9401 97.5756 18.4236 98.0127 17.48L98.8868 15.6027C99.3933 14.52 100.555 13.9638 102.363 13.9638H108.124L106.694 17.0628C106.394 17.8442 105.93 18.5521 105.333 19.1388C104.766 19.5013 104.098 19.6719 103.426 19.6255ZM98.8967 18.374C99.3307 18.5059 99.7853 18.5565 100.238 18.523H103.426C103.855 18.5641 104.285 18.4703 104.658 18.2548C105.097 17.7704 105.435 17.203 105.651 16.5861L106.346 15.0763H102.324C100.993 15.0763 100.158 15.414 99.8602 16.0695L98.9762 17.9469C98.9216 18.0825 98.8946 18.2277 98.8967 18.374ZM173.393 13.4075H164.404L165.785 10.4277C166.006 9.85956 166.421 9.38807 166.957 9.09667C167.446 8.87734 167.98 8.77206 168.516 8.78876H173.045C173.336 8.74764 173.632 8.78383 173.904 8.8937C174.176 9.00356 174.415 9.18321 174.595 9.41453C174.724 9.63984 174.792 9.89493 174.792 10.1545C174.792 10.4141 174.724 10.6692 174.595 10.8945L173.393 13.4075ZM166.152 12.2951H172.678L173.542 10.4475C173.691 10.1396 173.661 10.0304 173.661 10.0204C173.469 9.93324 173.256 9.89896 173.045 9.9211H168.516C168.148 9.90829 167.782 9.97609 167.443 10.1198C167.142 10.3033 166.911 10.5833 166.788 10.9144L166.152 12.2951Z" fill="white"/>
</svg>
