<svg width="26" height="26" viewBox="0 0 26 26" fill="none" xmlns="http://www.w3.org/2000/svg">
<path id="Vector" d="M23.9278 12.2593L25.5714 3.79902C25.9755 1.69743 24.5475 0 22.419 0H9.48611C7.35758 0 5.28294 1.72437 4.87879 3.79902L0.729492 25.246H7.27675L11.1027 5.41563C11.2105 4.87676 11.7224 4.47261 12.2613 4.47261H18.3505C18.8894 4.47261 19.2396 4.9037 19.1319 5.41563L18.108 10.6427C18.0002 11.1546 17.4883 11.5857 16.9495 11.5857H10.8872L10.7525 12.2323C10.6716 12.6634 10.5908 13.5526 10.968 14.2531L17.1919 25.2191H24.1703L18.9702 16.0852H19.3205C21.449 16.0852 23.5237 14.3609 23.9278 12.2593Z" fill="#424242"/>
</svg>
