<svg width="26" height="26" viewBox="0 0 26 26" fill="none" xmlns="http://www.w3.org/2000/svg">
<path id="Vector" d="M7.725 19.8304L10.5002 5.44257C10.608 4.93065 11.1199 4.49955 11.6587 4.49955H17.748C18.2868 4.49955 18.6371 4.93065 18.5293 5.44257L15.7542 19.8304C15.6464 20.3423 15.1344 20.7734 14.5956 20.7734H8.50636C7.99443 20.7734 7.64417 20.3423 7.725 19.8304ZM22.2475 0H8.91051C6.78198 0 4.70734 1.72437 4.30318 3.79902L0.908309 21.447C0.504157 23.5486 1.93215 25.246 4.06069 25.246H17.3977C19.5262 25.246 21.6009 23.5216 22.005 21.447L25.4268 3.79902C25.8041 1.72437 24.376 0 22.2475 0Z" fill="#424242"/>
</svg>
