<svg width="26" height="26" viewBox="0 0 26 26" fill="none" xmlns="http://www.w3.org/2000/svg">
<path id="Vector" d="M23.463 12.2593L25.1065 3.79902C25.5107 1.69743 24.1096 0 21.9541 0H9.02127C6.89274 0 4.81809 1.72437 4.41394 3.79902L0.264648 25.246H6.8119L10.6379 5.41563C10.7456 4.87676 11.2576 4.47261 11.7964 4.47261H17.8857C18.4245 4.47261 18.7748 4.9037 18.667 5.41563L17.6432 10.6427C17.5354 11.1546 17.0235 11.5857 16.4846 11.5857H10.3954L10.2607 12.2323C10.1798 12.6634 10.099 13.5526 10.4762 14.2531L16.7002 25.2191H23.6785L18.4784 16.0314H18.8287C20.9842 16.0852 23.0588 14.3609 23.463 12.2593Z" fill="#424242"/>
</svg>
