<svg width="69" height="40" viewBox="0 0 69 40" fill="none" xmlns="http://www.w3.org/2000/svg">
<g id="compact-red 1" clip-path="url(#clip0_1_3036)">
<path id="Vector" d="M67.1013 27.9965L65.7663 20.124C65.4996 18.789 64.4329 17.5882 63.0979 17.3215L52.2896 14.9199C51.7554 14.7865 51.2221 14.5199 50.8213 14.119L41.8813 4.5107C39.7463 2.2432 36.8104 0.908203 33.6079 0.908203H17.1946C10.7896 0.908203 5.31792 5.4457 4.11709 11.8499L0.916257 29.3307C0.64959 30.5315 1.04959 31.7332 1.84959 32.6674C2.24797 33.1261 2.73982 33.4943 3.29215 33.7474C3.84448 34.0005 4.44454 34.1326 5.05209 34.1349H5.85209C7.18792 37.4715 10.3896 39.8724 14.2604 39.8724C17.9963 39.8724 21.3321 37.4707 22.6663 34.1349H45.0829C46.4179 37.4715 49.6196 39.8724 53.4896 39.8724C57.2254 39.8724 60.5613 37.4707 61.8963 34.1349H63.0963C64.2979 34.1349 65.3654 33.7349 66.1663 32.8007C66.9663 31.999 67.4996 30.9324 67.4996 29.7315L67.0996 27.9965H67.1013ZM5.05126 33.2007C4.11792 33.2007 3.31792 32.8007 2.64959 32.134C2.11626 31.4665 1.84959 30.5324 1.98292 29.5982L2.11626 28.7982H5.45209C5.31876 29.4649 5.18542 30.2649 5.18542 30.9324C5.18542 31.7324 5.31876 32.4007 5.45209 33.2015H5.05209L5.05126 33.2007ZM21.7321 33.2007C21.7321 33.334 21.5988 33.6007 21.5988 33.7349C21.5988 33.869 21.4654 34.1349 21.3321 34.269C20.1321 37.0715 17.3296 38.939 14.1263 38.939C10.9238 38.939 8.12126 37.0715 6.92042 34.269C6.78709 34.1357 6.78709 33.869 6.65376 33.7357C6.65376 33.6024 6.52042 33.3357 6.52042 33.2007C6.25376 32.534 6.12042 31.7332 6.12042 30.9324C6.11132 30.2013 6.24728 29.4756 6.52042 28.7974C6.52042 28.664 6.65376 28.3974 6.65376 28.264C6.65376 28.1299 6.78709 27.864 6.78709 27.7299C7.98792 24.9274 10.7904 22.9257 13.9929 22.9257C17.1954 22.9257 19.9979 24.9274 21.1988 27.7299C21.3321 27.8632 21.3321 28.1299 21.3321 28.2632C21.3321 28.3965 21.4654 28.6632 21.4654 28.7974C21.5988 29.4649 21.8654 30.2657 21.8654 30.9324C21.9988 31.7324 21.8654 32.3999 21.7321 33.2007ZM22.7988 33.2007C22.9321 32.534 23.0654 31.7332 23.0654 30.9324C23.0654 30.1324 22.9321 29.464 22.7988 28.7974H44.5504C44.4171 29.4649 44.2838 30.2657 44.2838 30.9324C44.2838 31.7324 44.4171 32.4007 44.5504 33.2015H22.7996L22.7988 33.2007ZM60.8288 33.2007C60.8288 33.334 60.6954 33.6007 60.6954 33.7349C60.6954 33.869 60.5621 34.1349 60.4288 34.269C59.2288 37.0715 56.4263 38.939 53.2229 38.939C50.0204 38.939 47.2188 37.0715 46.0179 34.269C45.8846 34.1357 45.8846 33.869 45.7513 33.7357C45.7513 33.6024 45.6179 33.3357 45.6179 33.2007C45.3513 32.534 45.2179 31.7332 45.2179 30.9324C45.2088 30.2013 45.3448 29.4756 45.6179 28.7974C45.6179 28.664 45.7513 28.3974 45.7513 28.264C45.7513 28.1299 45.8846 27.864 45.8846 27.7299C47.0846 24.9274 49.8871 22.9257 53.0904 22.9257C56.2929 22.9257 59.0946 24.9274 60.2954 27.7299C60.4288 27.8632 60.4288 28.1299 60.4288 28.2632C60.4288 28.3965 60.5621 28.6632 60.5621 28.7974C60.6954 29.4649 60.9629 30.2657 60.9629 30.9324C61.2296 31.7324 61.0963 32.4007 60.8296 33.2015L60.8288 33.2007ZM53.2229 21.9924C49.3538 21.9924 46.1513 24.394 44.8163 27.7299H22.3988C21.0638 24.3932 17.8621 21.9915 13.9921 21.9915C10.1213 21.9915 6.91959 24.394 5.58542 27.7299H2.11626L3.31626 20.924H6.25209C6.51876 20.924 6.78542 20.6574 6.78542 20.3899C6.78542 20.1232 6.51876 19.8565 6.25209 19.8565H3.58292L3.84959 18.2549H6.51876C6.78542 18.2549 7.05209 17.9882 7.05209 17.7215C7.05209 17.4549 6.78542 17.1874 6.51876 17.1874H3.98292L4.91709 11.8499C5.98459 5.9782 11.0554 1.8407 16.9271 1.8407H33.3396C36.1421 1.8407 38.9438 3.04154 40.8121 5.04404L49.7521 14.6515C50.2863 15.1849 50.9529 15.5849 51.7538 15.7182L62.5629 18.1207C63.4963 18.254 64.1629 18.9215 64.2971 19.8557H60.2946C60.0279 19.8557 59.7604 20.1224 59.7604 20.389C59.7604 20.6574 60.0271 20.924 60.2938 20.924H64.4313L65.6313 27.5957H61.2279C60.2946 24.3924 57.0913 21.9915 53.2221 21.9915H53.2238L53.2229 21.9924ZM66.0329 29.8649C66.0329 30.799 65.6329 31.5999 65.0996 32.2674C64.4329 32.934 63.6321 33.2007 62.6979 33.2007H61.8971C62.0304 32.534 62.1638 31.7332 62.1638 30.9324C62.1638 30.1324 62.0304 29.464 61.8971 28.7974H66.0329V29.8649Z" fill="#0F0F0F" stroke="#0F0F0F" stroke-width="0.3"/>
<path id="Vector_2" d="M23.2012 17.3236H20.5337C20.267 17.3236 19.9995 17.5902 19.9995 17.8569C19.9995 18.1252 20.2662 18.3919 20.5329 18.3919H23.202C23.4687 18.3919 23.7362 18.1252 23.7362 17.8577C23.7362 17.5902 23.4695 17.3236 23.2029 17.3236H23.2012ZM57.6254 28.2636C57.492 28.1302 57.3587 27.8636 57.2254 27.7302C56.292 26.5294 54.8237 25.7286 53.222 25.7286C51.6204 25.7286 50.1537 26.5286 49.2195 27.7294C49.0862 27.8627 48.952 28.1302 48.8187 28.2636C48.6854 28.3969 48.6854 28.6636 48.552 28.7977C48.2854 29.4652 48.0187 30.1327 48.0187 30.9327C48.0187 31.7327 48.2854 32.5344 48.552 33.2011C48.6854 33.3344 48.6854 33.6011 48.8187 33.7352C48.952 33.8694 49.0854 34.1352 49.2187 34.2694C50.1537 35.4694 51.6212 36.1377 53.222 36.1377C54.8237 36.1377 56.2912 35.3369 57.2254 34.2694C57.3587 34.1361 57.492 34.0027 57.6254 33.7361C57.7587 33.6027 57.7587 33.3361 57.8929 33.2011C58.1595 32.5344 58.4262 31.7336 58.4262 30.9327C58.4262 30.1319 58.2929 29.4644 57.8929 28.7977C57.8929 28.5311 57.7595 28.3977 57.6262 28.2644L57.6254 28.2636ZM56.692 33.2011C56.5587 33.3344 56.4254 33.6011 56.292 33.7352L55.7579 34.2694C55.0904 34.8027 54.1562 35.0694 53.222 35.0694C52.2887 35.0694 51.4879 34.8027 50.687 34.2694C50.4489 34.1645 50.2586 33.9742 50.1537 33.7361C50.0204 33.6027 49.8862 33.4694 49.7529 33.2011C49.3529 32.5344 49.0862 31.7336 49.0862 30.9327C49.0862 30.1319 49.3529 29.4644 49.7529 28.7977C49.8862 28.6644 50.0195 28.3977 50.1529 28.2644L50.6862 27.7294C51.3537 27.1961 52.2879 26.7961 53.222 26.7961C54.1562 26.7961 55.0904 27.1961 55.7579 27.7294C55.8912 27.8627 56.1579 27.9961 56.2912 28.2636C56.4245 28.3969 56.5579 28.5302 56.6912 28.7977C57.092 29.4652 57.3587 30.1327 57.3587 30.9327C57.3587 31.7327 57.092 32.5344 56.692 33.2011ZM18.5304 28.2636C18.397 28.1302 18.2637 27.8636 18.1304 27.7302C17.1962 26.5294 15.7279 25.7286 14.1262 25.7286C12.5254 25.7286 11.0579 26.5286 10.1237 27.7294C9.99035 27.8627 9.85702 28.1302 9.72369 28.2636C9.59035 28.3969 9.59035 28.6636 9.45702 28.7977C9.19035 29.4652 8.92285 30.1327 8.92285 30.9327C8.92285 31.7327 9.18952 32.5344 9.45619 33.2011C9.58952 33.3344 9.58952 33.6011 9.72285 33.7352C9.85618 33.8694 9.98952 34.1352 10.1229 34.2694C11.0579 35.4694 12.5254 36.1377 14.1262 36.1377C15.727 36.1377 17.1962 35.3369 18.1304 34.2694C18.2637 34.1361 18.397 34.0027 18.5304 33.7361C18.6637 33.6027 18.6637 33.3361 18.797 33.2011C19.0637 32.5344 19.3312 31.7336 19.3312 30.9327C19.3312 30.1319 19.1979 29.4644 18.7979 28.7977C18.6645 28.5311 18.5312 28.3977 18.5312 28.2644L18.5304 28.2636ZM17.597 33.2011C17.4637 33.3344 17.3304 33.6011 17.197 33.7352L16.6629 34.2694C15.9954 34.8027 15.0612 35.0694 14.127 35.0694C13.1937 35.0694 12.392 34.8027 11.592 34.2694C11.3535 34.1647 11.163 33.9744 11.0579 33.7361C10.9245 33.6027 10.7912 33.4694 10.6579 33.2011C10.257 32.5344 9.99035 31.7336 9.99035 30.9327C9.99035 30.1319 10.257 29.4644 10.657 28.7977C10.7904 28.6644 10.9237 28.3977 11.057 28.2644L11.592 27.7294C12.2587 27.1961 13.1929 26.7961 14.127 26.7961C15.0604 26.7961 15.9954 27.1961 16.6629 27.7294C16.7962 27.8627 17.0629 27.9961 17.1962 28.2636C17.3295 28.3969 17.4629 28.5302 17.5962 28.7977C17.997 29.4652 18.2637 30.1327 18.2637 30.9327C18.2637 31.7327 17.997 32.5344 17.597 33.2011ZM46.9512 14.2536L40.1462 6.38107C38.4112 4.3794 35.8762 3.17773 33.207 3.17773H18.662C15.4595 3.17773 12.5237 5.04607 11.1895 8.11523L9.85535 11.1844C9.45452 11.9844 9.58869 13.0527 9.98869 13.8536C10.522 14.6536 11.322 15.1877 12.257 15.1877L46.017 16.2552C46.417 16.2552 46.8179 15.9886 47.0845 15.5886C47.2179 15.1886 47.2179 14.6536 46.9512 14.2536ZM12.257 14.1202C11.5904 14.1202 11.057 13.8536 10.7887 13.3194C10.522 12.7852 10.3887 12.1186 10.6554 11.5844L11.9904 8.51607C12.7904 6.64773 14.3929 5.1794 16.2604 4.64607L17.7287 14.3877L12.2579 14.1211L12.257 14.1202ZM46.017 15.1869L18.7954 14.3869L17.327 4.37857C17.7279 4.24523 18.1279 4.24523 18.5279 4.24523H33.0729C35.4745 4.24523 37.7429 5.31273 39.3445 7.04773L46.1495 14.9202L46.017 15.1869Z" fill="#0F0F0F" stroke="#0F0F0F" stroke-width="0.3"/>
</g>
<defs>
<clipPath id="clip0_1_3036">
<rect width="68.3333" height="40" fill="white"/>
</clipPath>
</defs>
</svg>
