<svg width="112" height="40" viewBox="0 0 112 40" fill="none" xmlns="http://www.w3.org/2000/svg">
<g id="convertible-red 1" clip-path="url(#clip0_1_3007)">
<path id="Vector" d="M110.211 18.5662C108.797 15.7378 105.811 14.0078 102.04 13.852L78.7813 11.652C76.7372 11.652 74.8522 11.022 73.123 9.76535L65.108 4.26535C64.7947 4.10701 64.4797 3.79368 64.008 3.47952C60.0788 0.651182 59.2938 0.336181 58.8222 0.651181C58.508 0.808681 58.3513 1.12285 58.1938 1.59368L58.0355 1.90785C57.7222 2.53701 57.7222 3.32201 58.3505 3.95118L66.3655 10.5512L66.523 10.8653L66.2088 11.022L40.4363 10.0803L38.2355 5.05035C37.9213 4.26535 37.1355 3.79202 36.3497 3.79202C35.7205 3.79202 35.093 4.10701 34.778 4.57785C34.6085 4.82849 34.493 5.11167 34.4389 5.40937C34.3849 5.70707 34.3933 6.01277 34.4638 6.30701L35.4072 9.92202L13.2488 9.13702H7.59051C5.86217 9.13702 4.13301 9.76535 2.87634 11.022C1.61967 12.2795 0.833008 13.8512 0.833008 15.7378V21.3945C0.833008 27.9945 6.17634 33.4945 12.933 33.4945H14.1905C15.9188 37.1095 19.5338 39.7812 23.7772 39.7812C28.0205 39.7812 31.7922 37.2662 33.3638 33.4953H79.2522C80.9805 37.1095 84.5947 39.7812 88.838 39.7812C93.238 39.7812 96.853 37.1095 98.5822 33.4953C102.667 33.0237 106.282 31.1378 108.64 27.9945C109.111 27.3654 109.425 26.7362 109.74 26.1087H109.896V25.9512C111.154 23.1228 111.311 20.6087 110.211 18.5653V18.5662ZM35.7213 5.20785C36.0347 4.73618 36.8213 4.89368 37.1355 5.36535L39.0205 9.92368L36.5063 9.76535L35.5638 5.83702C35.5638 5.67868 35.5647 5.52285 35.7213 5.20785ZM13.563 32.0812H12.7772C8.53384 32.0812 4.76217 29.5662 3.03384 25.9512H13.7197C13.4055 26.8945 13.248 27.9945 13.248 29.0945C13.0913 30.0378 13.4072 30.9804 13.563 32.0812ZM32.5772 32.0812C32.4205 32.552 32.2638 32.8662 32.1063 33.3378C30.5347 36.3237 27.3922 38.367 23.9347 38.367C20.3197 38.367 17.1772 36.3237 15.763 33.3378C15.6047 33.0237 15.4488 32.552 15.2913 32.0812C14.9772 31.1378 14.6622 30.0378 14.6622 28.937C14.6622 27.837 14.8205 26.737 15.2913 25.7937C15.4488 25.3228 15.6055 25.0087 15.763 24.537C17.3347 21.5512 20.4772 19.5078 23.9347 19.5078C27.5497 19.5078 30.5347 21.5512 32.1063 24.537C32.2638 24.8512 32.4205 25.3228 32.578 25.7937C32.8913 26.737 33.2063 27.837 33.2063 28.937C33.0488 30.037 32.8922 30.9804 32.5772 32.0812ZM78.7805 32.0812H33.8355C34.1497 31.1378 34.3063 30.0378 34.3063 28.937C34.3063 27.837 34.1497 26.737 33.8355 25.7937H78.938C78.623 26.737 78.4663 27.837 78.4663 28.937C78.4663 30.037 78.623 30.9804 78.7805 32.0812ZM97.7955 31.9228C97.6388 32.3945 97.4822 32.7087 97.3247 33.1812C96.5261 34.6986 95.3281 35.969 93.8602 36.8553C92.3923 37.7417 90.7102 38.2102 88.9955 38.2104C85.3813 38.2104 82.2372 36.167 80.8238 33.1812C80.6655 32.867 80.5088 32.3953 80.3522 31.9228C80.0372 30.9812 79.723 29.8803 79.723 28.7812C79.723 27.6812 79.8813 26.5803 80.3522 25.6378C80.5088 25.1662 80.6663 24.852 80.8238 24.3795C82.3955 21.3937 85.538 19.3503 88.9955 19.3503C92.453 19.3503 95.5963 21.3937 97.1672 24.3795C97.3247 24.6937 97.4822 25.1653 97.6388 25.6378C97.953 26.5795 98.2672 27.6803 98.2672 28.7812C98.2672 30.0378 98.1105 30.9812 97.7955 31.9228ZM107.696 26.8945C105.654 29.5653 102.667 31.2945 99.0538 31.7662C99.3749 30.8035 99.534 29.7943 99.5247 28.7795C99.5247 27.6795 99.3672 26.5795 99.0538 25.6362H108.482C108.168 26.1078 108.01 26.5803 107.696 26.8945ZM109.111 24.537H98.5822C96.853 20.922 93.238 18.2512 88.9955 18.2512C84.7522 18.2512 80.9805 20.7653 79.4097 24.537H33.3638C31.6347 20.922 28.0205 18.2512 23.7772 18.2512C19.533 18.2512 15.7622 20.7653 14.1913 24.537H2.56217C2.24065 23.5747 2.08126 22.5657 2.09051 21.5512H5.23384C5.39687 21.5396 5.55023 21.4695 5.6658 21.354C5.78137 21.2384 5.85139 21.085 5.86301 20.922C5.85103 20.7592 5.78087 20.6061 5.66535 20.4908C5.54984 20.3754 5.39667 20.3054 5.23384 20.2937H2.09134V16.3645H5.23467C5.39764 16.3527 5.55091 16.2827 5.66645 16.1671C5.78198 16.0516 5.85205 15.8983 5.86384 15.7353C5.85203 15.5725 5.78193 15.4193 5.66638 15.3039C5.55083 15.1885 5.39757 15.1186 5.23467 15.107H2.24801C2.40634 13.8503 2.87717 12.592 3.81967 11.6495C4.76301 10.707 6.17717 10.2353 7.43467 10.2353H13.0922L66.2105 12.2787C66.8388 12.2787 67.4688 11.9645 67.6247 11.3353C67.7067 11.0313 67.7062 10.711 67.6233 10.4072C67.5404 10.1034 67.3781 9.82724 67.153 9.60702L59.138 3.16368C59.0628 3.07629 59.0214 2.96481 59.0214 2.84951C59.0214 2.73422 59.0628 2.62274 59.138 2.53535L59.2963 2.22118L59.453 1.90701C60.2388 2.22118 62.4388 3.79285 63.3822 4.42201C63.853 4.73535 64.1672 5.05035 64.4822 5.20702L72.4972 10.5503C74.383 11.9645 76.583 12.5937 78.783 12.7503L102.042 14.9503C104.713 15.1078 107.071 16.207 108.485 17.9362H102.514C102.351 17.9475 102.197 18.0174 102.081 18.133C101.966 18.2486 101.896 18.4022 101.885 18.5653C101.896 18.7283 101.966 18.8817 102.082 18.9972C102.197 19.1126 102.351 19.1824 102.514 19.1937H109.271C109.899 20.7653 109.899 22.652 109.113 24.537H109.111Z" fill="#0F0F0F" stroke="#0F0F0F" stroke-width="0.3"/>
<path id="Vector_2" d="M93.2396 24.5433C92.1396 23.4433 90.7254 22.8141 88.9971 22.8141C87.4254 22.8141 85.8537 23.4433 84.7537 24.5433C84.4396 24.8574 84.1254 25.3291 83.8104 25.7999C83.1934 26.732 82.8655 27.8255 82.8679 28.9433C82.8679 30.0433 83.1821 31.1441 83.8104 32.0874C84.1254 32.5583 84.4396 32.8724 84.7537 33.3441C85.8537 34.4441 87.4254 35.0733 88.9971 35.0733C90.7254 35.0733 92.1396 34.4441 93.2396 33.3441C93.5546 33.0299 93.8687 32.5583 94.1829 32.0874C94.6537 31.1441 95.1254 30.2016 95.1254 28.9433C95.1254 27.8433 94.8112 26.7433 94.1829 25.7999C93.8687 25.3291 93.5546 25.0149 93.2396 24.5433ZM92.6113 32.0874C92.1396 32.5583 91.6679 33.0299 91.0404 33.3441C90.4121 33.6583 89.6263 33.9724 88.8396 33.9724C88.0529 33.9724 87.2679 33.8158 86.6396 33.3441C86.0112 33.0299 85.5396 32.5583 85.0679 32.0874C84.3571 31.1935 83.9694 30.0854 83.9679 28.9433C83.9679 27.6858 84.4396 26.7433 85.0679 25.7999C85.5396 25.3291 86.0112 24.8574 86.6396 24.5433C87.2687 24.2291 88.0546 24.0716 88.8396 24.0716C89.6254 24.0716 90.2537 24.2299 91.0404 24.5433C91.6679 24.8574 92.1396 25.3291 92.6113 25.7999C93.3971 26.5858 93.7113 27.6858 93.7113 28.9433C93.8688 30.0433 93.3971 31.1441 92.6113 32.0874ZM44.0504 14.7949H40.9071C40.7442 14.8067 40.591 14.8768 40.4756 14.9924C40.3602 15.1079 40.2903 15.2612 40.2787 15.4241C40.2907 15.5868 40.3607 15.7397 40.4761 15.8551C40.5914 15.9704 40.7444 16.0405 40.9071 16.0524H44.0504C44.2133 16.0408 44.3666 15.9709 44.4821 15.8555C44.5977 15.7401 44.6678 15.587 44.6796 15.4241C44.6678 15.2611 44.5977 15.1079 44.4822 14.9923C44.3666 14.8768 44.2134 14.8067 44.0504 14.7949ZM28.0212 24.5433C26.9212 23.4433 25.5071 22.8141 23.7787 22.8141C22.2071 22.8141 20.6354 23.4433 19.5362 24.5433C19.2221 24.8574 18.9071 25.3291 18.5929 25.7999C17.9755 26.7318 17.6476 27.8254 17.6504 28.9433C17.6504 30.0433 17.9646 31.1441 18.5929 32.0874C18.9071 32.5583 19.2221 32.8724 19.5354 33.3441C20.6354 34.4441 22.2079 35.0733 23.7787 35.0733C25.3496 35.0733 26.9221 34.4441 28.0212 33.3441C28.3354 33.0299 28.6504 32.5583 28.9646 32.0874C29.4354 31.1441 29.9071 30.2016 29.9071 28.9433C29.9098 27.8255 29.5819 26.7318 28.9646 25.7999C28.6504 25.3291 28.3354 25.0149 28.0212 24.5433ZM27.3929 32.0874C26.9212 32.5583 26.4496 33.0299 25.8212 33.3441C25.1921 33.6583 24.4071 33.9724 23.6204 33.9724C22.8337 33.9724 22.0487 33.8158 21.4204 33.3441C20.7921 33.0299 20.3204 32.5583 19.8487 32.0874C19.1377 31.1936 18.75 30.0854 18.7487 28.9433C18.7487 27.6858 19.2204 26.7433 19.8487 25.7999C20.3204 25.3291 20.7921 24.8574 21.4204 24.5433C22.0496 24.2291 22.8346 24.0716 23.6204 24.0716C24.4054 24.0716 25.0346 24.2299 25.8204 24.5433C26.4496 24.8574 26.9204 25.3291 27.3929 25.7999C28.1779 26.5858 28.4929 27.6858 28.4929 28.9433C28.6504 30.0433 28.1787 31.1441 27.3929 32.0874Z" fill="#0F0F0F" stroke="#0F0F0F" stroke-width="0.3"/>
</g>
<defs>
<clipPath id="clip0_1_3007">
<rect width="111.667" height="40" fill="white"/>
</clipPath>
</defs>
</svg>
