<svg width="101" height="40" viewBox="0 0 101 40" fill="none" xmlns="http://www.w3.org/2000/svg">
<g id="coup-red 1" clip-path="url(#clip0_1_2888)">
<path id="Vector" d="M92.8238 14.0773L71.4638 12.084C70.8947 12.084 70.1822 11.799 69.6122 11.6565L54.6605 4.53648C49.6772 2.11565 43.9805 0.833984 38.4272 0.833984C28.458 0.833984 18.918 4.53648 11.6547 11.0873C11.3697 11.229 11.0855 11.3723 10.7997 11.3723L6.95467 11.514C5.38884 11.3723 3.82217 12.084 2.68301 13.2223C1.54384 14.3623 0.833008 15.7865 0.833008 17.4956V22.6223C0.833008 28.6031 5.67467 33.5865 11.798 33.5865H12.9363C14.503 36.8615 17.778 39.2831 21.6238 39.2831C25.468 39.2831 28.8863 37.0048 30.3105 33.5865H75.1655C76.7322 36.8615 80.0072 39.2831 83.8522 39.2831C87.9822 39.2831 91.3997 36.7198 92.8238 33.1606C97.3805 31.8782 100.656 27.6065 100.656 22.7648C100.941 17.7815 97.3805 14.2207 92.8238 14.0773ZM12.6522 32.1615H11.9405C10.0966 32.1554 8.29139 31.6318 6.73046 30.6501C5.16953 29.6685 3.91557 28.2683 3.11134 26.609H12.7947C12.5113 27.464 12.368 28.4606 12.368 29.4573C12.2263 30.3123 12.368 31.1657 12.6522 32.1632V32.1615ZM29.883 32.1615C29.7413 32.589 29.598 32.874 29.4555 33.3006C28.7321 34.6757 27.6468 35.8269 26.3167 36.6299C24.9867 37.433 23.4625 37.8574 21.9088 37.8573C18.6338 37.8573 15.7855 36.0056 14.5038 33.3006C14.3622 33.0165 14.2188 32.589 14.0763 32.1615C13.7913 31.3073 13.5072 30.3106 13.5072 29.3132C13.5072 28.3165 13.6488 27.3198 14.0763 26.4657C14.218 26.0382 14.3613 25.754 14.5038 25.3265C15.928 22.6215 18.7763 20.7698 21.9088 20.7698C25.1838 20.7698 27.8897 22.6215 29.313 25.3265C29.4555 25.6115 29.5988 26.0382 29.7405 26.4657C30.0255 27.3198 30.3105 28.3165 30.3105 29.314C30.3105 30.3106 30.1688 31.3073 29.883 32.1615ZM75.0238 32.1615H31.0222C31.3072 31.3073 31.4488 30.3106 31.4488 29.3132C31.4488 28.3165 31.3072 27.3198 31.0222 26.4657H75.0238C74.7397 27.3198 74.5963 28.3165 74.5963 29.314C74.5963 30.3106 74.7397 31.1648 75.0238 32.1615ZM92.1122 31.8781C91.9688 32.3048 91.8272 32.7323 91.6847 33.0165C90.2605 35.8648 87.4122 37.7156 84.138 37.7156C80.863 37.7156 78.0138 35.864 76.733 33.1581C76.5897 32.8748 76.448 32.4473 76.3055 32.0198C76.0205 31.1648 75.7363 30.1682 75.7363 29.1715C75.7363 28.1748 75.878 27.1782 76.3055 26.3232C76.4472 25.8957 76.5897 25.6115 76.733 25.184C78.1572 22.4781 81.0047 20.6273 84.138 20.6273C87.4122 20.6273 90.1188 22.479 91.5422 25.184C91.6847 25.4698 91.8272 25.8957 91.9688 26.3232C92.2538 27.1782 92.5397 28.1748 92.5397 29.1715C92.5478 30.0909 92.4034 31.0061 92.1122 31.8781ZM93.393 31.4498C93.5363 30.7381 93.678 30.0265 93.678 29.314C93.678 28.3173 93.5363 27.3207 93.2513 26.4665H98.8047C97.808 28.7448 95.8138 30.5956 93.393 31.4498ZM92.8238 25.3273C91.2572 22.0523 87.9822 19.6315 84.138 19.6315C80.2938 19.6315 76.8755 21.9107 75.4513 25.3273H30.5938C29.0272 22.0523 25.7522 19.6315 21.9072 19.6315C18.0622 19.6315 14.6447 21.9107 13.2205 25.3273H2.68467C2.39321 24.4556 2.24874 23.5414 2.25717 22.6223H5.10551C5.25308 22.6117 5.39186 22.5482 5.4964 22.4435C5.60094 22.3388 5.66423 22.1999 5.67467 22.0523C5.66404 21.9049 5.60066 21.7662 5.49614 21.6617C5.39162 21.5572 5.25294 21.4938 5.10551 21.4832H2.25717V17.9232H5.10551C5.25294 17.9125 5.39162 17.8491 5.49614 17.7446C5.60066 17.6401 5.66404 17.5014 5.67467 17.354C5.66423 17.2064 5.60094 17.0675 5.4964 16.9628C5.39186 16.8581 5.25308 16.7946 5.10551 16.784H2.39967C2.54217 15.6448 2.96967 14.5057 3.82467 13.6515C4.67884 12.7982 5.95968 12.3698 7.09968 12.3698H7.24134L11.0872 12.2282C11.5922 12.2193 12.0849 12.0713 12.5113 11.8007C19.6313 5.39232 29.0288 1.83232 38.713 1.83232C44.1238 1.83232 49.5355 3.11398 54.5188 5.39232L69.4713 12.5123C70.183 12.7973 70.8955 13.0823 71.6072 13.0823L92.9663 15.0757C95.5305 15.2173 97.6663 16.5007 98.8055 18.4932H93.2522C93.1046 18.5041 92.966 18.5677 92.8613 18.6723C92.7567 18.7769 92.6932 18.9156 92.6822 19.0632C92.6935 19.2105 92.7572 19.3489 92.8618 19.4533C92.9663 19.5577 93.1048 19.6212 93.2522 19.6323H99.3747C99.6597 20.4873 99.9447 21.3407 99.9447 22.3373C99.9447 23.4765 99.8022 24.4732 99.3747 25.4706H92.8247V25.3281L92.8238 25.3273Z" fill="#0F0F0F" stroke="#0F0F0F" stroke-width="0.3"/>
<path id="Vector_2" d="M87.9822 25.3282C86.9855 24.3315 85.703 23.7615 84.1371 23.7615C82.7122 23.7615 81.2888 24.3315 80.2921 25.3282C80.008 25.6132 79.7221 26.0399 79.4371 26.4674C78.8751 27.3108 78.5752 28.3017 78.5752 29.3153C78.5752 30.3288 78.8751 31.3197 79.4371 32.1632C79.7221 32.5907 80.0071 32.8757 80.2921 33.3024C81.2888 34.299 82.713 34.869 84.1371 34.869C85.703 34.869 86.9855 34.299 87.9822 33.3024C88.2663 33.0174 88.5513 32.5907 88.8363 32.1632C89.263 31.309 89.6905 30.4549 89.6905 29.3157C89.6929 28.3028 89.3957 27.3118 88.8363 26.4674C88.5513 26.0399 88.2663 25.7557 87.9822 25.3282ZM87.4121 32.1632C86.9855 32.5907 86.558 33.0182 85.988 33.3024C85.4188 33.5865 84.7063 33.8724 83.9947 33.8724C83.283 33.8724 82.5705 33.7299 82.0013 33.3024C81.4313 33.0174 81.0047 32.5907 80.5763 32.1632C79.9328 31.3535 79.5819 30.35 79.5805 29.3157C79.5805 28.1757 80.008 27.3215 80.5772 26.4674C81.0047 26.0399 81.4313 25.6124 82.0013 25.3282C82.5705 25.044 83.2822 24.9007 83.9947 24.9007C84.7072 24.9007 85.2755 25.0424 85.988 25.3282C86.558 25.6132 86.9855 26.0399 87.4121 26.4674C88.1238 27.179 88.4088 28.1757 88.4088 29.3157C88.5513 30.454 88.1238 31.309 87.4121 32.1632ZM37.1463 16.4982H34.298C34.1504 16.5088 34.0116 16.5723 33.9071 16.677C33.8026 16.7817 33.7393 16.9206 33.7288 17.0682C33.7395 17.2156 33.8028 17.3543 33.9074 17.4588C34.0119 17.5633 34.1506 17.6267 34.298 17.6374H37.1463C37.2938 17.6267 37.4324 17.5633 37.5369 17.4588C37.6415 17.3543 37.7049 17.2156 37.7155 17.0682C37.705 16.9206 37.6417 16.7817 37.5372 16.677C37.4327 16.5723 37.2939 16.5088 37.1463 16.4982ZM25.7547 25.3282C24.758 24.3315 23.4755 23.7615 21.9096 23.7615C20.343 23.7615 19.0613 24.3315 18.0646 25.3282C17.7796 25.6132 17.4946 26.0399 17.2096 26.4674C16.6503 27.3118 16.3531 28.3028 16.3555 29.3157C16.3555 30.3124 16.6405 31.309 17.2096 32.1632C17.4946 32.5907 17.7796 32.8757 18.0646 33.3024C19.0613 34.299 20.4855 34.869 21.9096 34.869C23.4763 34.869 24.758 34.299 25.7547 33.3024C26.0388 33.0182 26.3238 32.5907 26.6088 32.1632C27.0363 31.309 27.4638 30.4549 27.4638 29.3157C27.4659 28.3027 27.1684 27.3117 26.6088 26.4674C26.3238 26.0399 26.0396 25.7557 25.7547 25.3282ZM25.1847 32.1632C24.758 32.5907 24.3305 33.0182 23.7605 33.3024C23.1913 33.5865 22.4788 33.8724 21.7672 33.8724C21.0555 33.8724 20.343 33.7299 19.7738 33.3024C19.2038 33.0182 18.7771 32.5907 18.3496 32.1632C17.7058 31.3536 17.3545 30.3501 17.353 29.3157C17.353 28.1757 17.7805 27.3215 18.3496 26.4674C18.7771 26.0399 19.2046 25.6124 19.7738 25.3282C20.343 25.044 21.0555 24.9007 21.7672 24.9007C22.4788 24.9007 23.0488 25.0424 23.7605 25.3282C24.3305 25.6132 24.758 26.0399 25.1855 26.4674C25.8972 27.179 26.1821 28.1757 26.1821 29.3157C26.3238 30.454 25.8963 31.309 25.1847 32.1632ZM63.0638 12.0865L50.533 6.38986C48.6813 5.53486 46.8296 4.96569 44.9788 4.53819C41.8471 3.82569 38.5705 3.68402 35.2955 4.39652L34.1563 4.53819C29.8847 5.39319 25.898 7.52902 22.9063 10.6615C22.4796 11.0882 22.3371 11.8007 22.6221 12.3699C22.9055 12.939 23.3338 13.3665 24.0455 13.3665L62.4938 14.2215C62.9213 14.2215 63.3488 13.9357 63.4913 13.509C63.7763 12.654 63.4913 12.2265 63.0638 12.084V12.0865ZM31.593 12.2282L24.188 12.0865C23.903 12.0865 23.7605 11.8007 23.7605 11.8007C23.7605 11.8007 23.6188 11.5157 23.9021 11.374C26.0388 9.09486 28.7446 7.38652 31.593 6.38986V12.2282ZM32.5896 12.2282V5.96236C33.1588 5.82069 33.8713 5.67736 34.4413 5.53486L35.5797 5.39319C37.0047 5.10819 38.2863 4.96569 39.7097 4.96569C41.418 4.96569 43.1263 5.10736 44.8355 5.53486C46.6871 5.96236 48.5371 6.53236 50.2463 7.38652L62.208 12.9399L32.5888 12.2274L32.5896 12.2282Z" fill="#0F0F0F" stroke="#0F0F0F" stroke-width="0.3"/>
</g>
<defs>
<clipPath id="clip0_1_2888">
<rect width="100.833" height="40" fill="white"/>
</clipPath>
</defs>
</svg>
