<svg width="91" height="40" viewBox="0 0 91 40" fill="none" xmlns="http://www.w3.org/2000/svg">
<g id="crossover-red 1" clip-path="url(#clip0_1_2908)">
<path id="Vector" d="M88.7089 16.3311C88.1779 15.5251 87.1166 14.9873 85.5226 14.7175C83 14.3141 78.3532 14.0451 74.6349 13.777C72.1115 13.6426 69.9881 13.3736 69.1906 13.3736C68.5268 13.2392 67.9958 13.1047 67.4647 12.7013L61.2238 5.57874C58.303 2.22044 54.0536 0.337891 49.6715 0.337891H17.274C12.6264 0.337891 8.37702 2.89108 6.12 6.92342L2.4017 13.5081C0.809362 16.3311 0.544682 19.6902 1.60511 22.6468L3.5966 28.2902V29.6349C3.46383 31.1124 3.46383 32.3226 4.26128 33.1285C4.65958 33.5319 5.32341 33.8009 6.25277 33.8009H10.7677C12.0953 37.16 15.2817 39.5796 19.1336 39.5796C22.8511 39.5796 26.1702 37.16 27.4979 33.8009H66.0043C67.3319 37.16 70.5191 39.5796 74.3702 39.5796C78.0877 39.5796 81.4077 37.16 82.7345 33.8009H87.6477C87.7813 33.8009 87.9132 33.8009 88.0468 33.6664C88.1796 33.5311 88.1787 33.3975 88.1787 33.263V27.6187C88.1787 25.6026 88.5779 23.7209 88.9753 22.1081C89.1089 19.6894 89.64 17.6741 88.7098 16.3294L88.7089 16.3311ZM6.12 32.7268C5.45617 32.7268 5.05787 32.5915 4.92511 32.3234C4.52596 31.92 4.52596 30.8443 4.65958 29.6349V28.2911H10.3685C10.2357 28.9634 10.103 29.7694 10.103 30.4417C10.103 31.2477 10.2357 31.92 10.3685 32.7268H6.12ZM26.4349 32.7268C26.4349 32.8604 26.3021 33.1302 26.3021 33.2638C26.3021 33.3983 26.1694 33.6673 26.0366 33.8017C24.8417 36.623 22.0536 38.5056 18.8664 38.5056C15.68 38.5056 12.8919 36.6247 11.6962 33.8017C11.5643 33.6664 11.5634 33.3983 11.4306 33.2638C11.4306 33.1294 11.2979 32.8604 11.2979 32.7268C11.0323 32.0545 10.8987 31.2485 10.8987 30.4417C10.8987 29.6358 11.0315 28.9634 11.2979 28.2911C11.2979 28.1575 11.4306 27.8877 11.4306 27.7541C11.4306 27.6196 11.5643 27.3507 11.5643 27.2162C12.7591 24.3941 15.5472 22.3787 18.7345 22.3787C21.9209 22.3787 24.7089 24.3941 25.9047 27.2162C26.0366 27.3515 26.0366 27.6196 26.0366 27.7541C26.0366 27.8877 26.1702 28.1575 26.1702 28.2911C26.303 28.9634 26.5685 29.7694 26.5685 30.4417C26.834 31.2477 26.7021 31.92 26.4366 32.7268H26.4349ZM27.4979 32.7268C27.6306 32.0545 27.7634 31.2485 27.7634 30.4417C27.7634 29.6358 27.6298 28.9634 27.4979 28.2911H65.3396C65.2077 28.9634 65.074 29.7694 65.074 30.4417C65.074 31.2477 65.2077 31.92 65.3396 32.7268H27.4979ZM81.5387 32.7268C81.5387 32.8604 81.4068 33.1302 81.4068 33.2638C81.4068 33.3983 81.2732 33.6673 81.1413 33.8017C79.9464 36.623 77.1583 38.5056 73.9711 38.5056C70.7838 38.5056 67.9957 36.6247 66.8008 33.8017C66.6681 33.6664 66.6681 33.3983 66.5353 33.2638C66.5353 33.1294 66.4017 32.8604 66.4017 32.7268C66.1362 32.0545 66.0043 31.2485 66.0043 30.4417C66.0043 29.6358 66.1362 28.9634 66.4017 28.2911C66.4017 28.1575 66.5353 27.8877 66.5353 27.7541C66.5353 27.6196 66.6681 27.3507 66.6681 27.2162C67.863 24.3941 70.6511 22.3787 73.8374 22.3787C77.0238 22.3787 79.8128 24.3941 81.0077 27.2162C81.1413 27.3515 81.1413 27.6196 81.1413 27.7541C81.1413 27.8877 81.2732 28.1575 81.2732 28.2911C81.4068 28.9634 81.6723 29.7694 81.6723 30.4417C81.9379 31.2477 81.8051 31.92 81.5387 32.7268ZM86.7174 32.7268H82.6017C82.7345 32.0545 82.8672 31.2485 82.8672 30.4417C82.8672 29.6358 82.7345 28.9634 82.6017 28.2911H86.7174V32.7268ZM87.6468 21.8417C87.2485 23.4545 86.8511 25.3353 86.8511 27.2162H82.3362C81.0085 23.857 77.8213 21.4375 73.9702 21.4375C70.1209 21.4375 66.9336 23.857 65.6051 27.2162H27.0987C25.7711 23.857 22.5847 21.4375 18.7328 21.4375C14.8826 21.4375 11.6962 23.857 10.3685 27.2162H4.12766L2.4017 22.2434C2.00255 21.1685 1.87064 20.0928 1.87064 19.1532H5.05702C5.32255 19.1532 5.58809 18.8843 5.58809 18.6153C5.58809 18.3464 5.32255 18.0783 5.05702 18.0783H1.87064C2.00426 16.6 2.4017 15.2562 3.06638 13.9115L6.78298 7.32683C8.90809 3.56342 12.7583 1.27917 17.0077 1.27917H49.4051C53.5217 1.27917 57.5055 3.0264 60.1609 6.11747L66.5345 13.3745L66.6672 13.5081C67.3311 13.9115 68.1277 14.3141 68.9243 14.3141C69.7209 14.4494 71.9787 14.583 74.5013 14.7175C78.2187 14.9864 82.8664 15.3898 85.2562 15.6587C86.5847 15.7932 87.3813 16.1966 87.7796 16.8681C88.4426 17.943 88.0451 19.6902 87.646 21.8409L87.6468 21.8417Z" fill="#0F0F0F" stroke="#0F0F0F" stroke-width="0.3"/>
<g id="Vector_2">
<path d="M43.4329 18.0784H40.7767C40.5112 18.0784 40.2456 18.3473 40.2456 18.6154C40.2456 18.8844 40.5112 19.1533 40.7767 19.1533H43.432C43.6984 19.1533 43.9639 18.8844 43.9639 18.6154C43.9639 18.3473 43.6984 18.0784 43.4329 18.0784ZM78.3529 27.7542C78.2201 27.6197 78.0873 27.3507 77.9546 27.2171C77.0252 26.0069 75.5639 25.2001 73.9716 25.2001C72.3784 25.2001 70.9163 26.0069 69.9886 27.2171C69.855 27.3507 69.7222 27.6205 69.5886 27.7542C69.4558 27.8878 69.4567 28.1576 69.3239 28.292C69.0584 28.9644 68.7929 29.635 68.7929 30.4418C68.7929 31.2495 69.0584 32.0546 69.3239 32.7269C69.4567 32.8614 69.4567 33.1303 69.5895 33.2639C69.7214 33.3984 69.855 33.6673 69.9878 33.8018C70.9171 35.0112 72.3776 35.6827 73.9707 35.6827C75.5648 35.6827 77.0252 34.8767 77.9546 33.8018C78.119 33.6483 78.254 33.466 78.3529 33.2639C78.4856 33.1295 78.4856 32.8605 78.6184 32.7269C78.8839 32.0546 79.1495 31.2486 79.1495 30.4418C79.1495 29.6359 79.0167 28.9635 78.6184 28.292C78.6184 28.0231 78.4856 27.8886 78.3529 27.7542ZM77.4235 32.7269C77.2907 32.8614 77.158 33.1303 77.0252 33.2639L76.4941 33.8018C75.8303 34.3388 74.9001 34.6078 73.9716 34.6078C73.0422 34.6078 72.2448 34.3388 71.4482 33.8018C71.1827 33.6673 71.0499 33.5329 70.9171 33.2639C70.7844 33.1295 70.6516 32.9959 70.5188 32.7269C70.1205 32.0546 69.855 31.2486 69.855 30.4418C69.855 29.6359 70.1205 28.9635 70.5188 28.292C70.6516 28.1567 70.7844 27.8886 70.9171 27.7542L71.4482 27.2171C72.112 26.6793 73.0414 26.2759 73.9716 26.2759C74.901 26.2759 75.8303 26.6793 76.4941 27.2163C76.6261 27.3507 76.8916 27.4852 77.0252 27.7542C77.158 27.8878 77.2907 28.0231 77.4235 28.292C77.8218 28.9644 78.0873 29.635 78.0873 30.4418C78.0873 31.2495 77.8218 32.0546 77.4235 32.7269ZM23.2507 27.7542C23.118 27.6197 22.9852 27.3507 22.8524 27.2171C21.9222 26.0069 20.461 25.2001 18.8686 25.2001C17.2754 25.2001 15.815 26.0069 14.8856 27.2171C14.752 27.3507 14.6193 27.6205 14.4865 27.7542C14.3537 27.8878 14.3537 28.1576 14.221 28.292C13.9554 28.9644 13.6899 29.635 13.6899 30.4418C13.6899 31.2495 13.9554 32.0546 14.221 32.7269C14.3546 32.8614 14.3546 33.1303 14.4865 33.2639C14.6193 33.3984 14.752 33.6673 14.8848 33.8018C15.815 35.0112 17.2763 35.6827 18.8686 35.6827C20.4618 35.6827 21.9222 34.8767 22.8516 33.8018C22.9844 33.6673 23.118 33.5329 23.2507 33.2639C23.3835 33.1295 23.3835 32.8605 23.5163 32.7269C23.7818 32.0546 24.0473 31.2486 24.0473 30.4418C24.0473 29.6359 23.9137 28.9635 23.5163 28.292C23.3835 28.0231 23.3835 27.8886 23.2507 27.7542ZM22.3214 32.7269C22.1886 32.8614 22.0558 33.1303 21.9222 33.2639L21.3912 33.8018C20.7273 34.3388 19.798 34.6078 18.8686 34.6078C17.9393 34.6078 17.1427 34.3388 16.3461 33.8018C16.1078 33.6955 15.9183 33.5035 15.815 33.2639C15.6504 33.1107 15.5151 32.9287 15.4158 32.7269C15.0176 32.0546 14.752 31.2486 14.752 30.4418C14.752 29.6359 15.0176 28.9635 15.4158 28.292C15.5495 28.1567 15.6822 27.8886 15.815 27.7542L16.3461 27.2171C17.0099 26.6793 17.9393 26.2759 18.8686 26.2759C19.798 26.2759 20.7282 26.6793 21.3912 27.2163C21.5239 27.3507 21.7903 27.4852 21.9222 27.7542C22.055 27.8878 22.1878 28.0231 22.3214 28.292C22.7197 28.9644 22.9852 29.635 22.9852 30.4418C22.9852 31.2495 22.7197 32.0546 22.3214 32.7269ZM22.3205 18.0784H19.6652C19.3988 18.0784 19.1333 18.3473 19.1333 18.6154C19.1333 18.8844 19.3988 19.1533 19.6644 19.1533H22.3197C22.5861 19.1533 22.8516 18.8844 22.8516 18.6154C22.8516 18.3473 22.5861 18.0784 22.3205 18.0784ZM86.5861 17.9499C86.4486 17.9476 86.3133 17.9842 86.1957 18.0554C86.0781 18.1266 85.983 18.2296 85.9214 18.3525L85.1248 22.5193C85.1219 22.6573 85.1576 22.7934 85.228 22.9123C85.2984 23.0311 85.4006 23.1278 85.5231 23.1916H85.6558C85.9214 23.1916 86.0541 23.0571 86.1869 22.789L86.9835 18.6222C86.9865 18.4843 86.9509 18.3482 86.8806 18.2294C86.8104 18.1106 86.7084 18.0138 86.5861 17.9499ZM57.7724 7.05883C55.6473 4.50564 52.4618 3.02734 49.2746 3.02734H17.8048C14.4856 3.02734 11.5639 4.77458 9.83798 7.73117C9.38106 8.52907 9.14069 9.43256 9.14069 10.352C9.14069 11.2715 9.38106 12.175 9.83798 12.9729C10.7673 14.5856 12.4933 15.6605 14.352 15.6605H60.8261C61.6227 15.6605 62.1537 15.2571 62.552 14.5856C62.8176 13.9133 62.8175 13.1073 62.2865 12.5695L57.7724 7.05883ZM14.3529 14.5848C12.8924 14.5848 11.4312 13.7788 10.7682 12.4342C9.97159 11.0912 9.97159 9.47756 10.7682 8.2682C12.2286 5.715 14.8848 4.10139 17.8056 4.10139H19.9299L18.0712 14.4503H14.352L14.3529 14.5848ZM18.9997 14.5848L20.8601 4.37117V4.10224H35.7316L37.192 14.5848H19.0005H18.9997ZM38.1205 14.5848L36.6601 4.10309H49.2746C50.735 4.10309 52.0627 4.37202 53.3912 4.90905L56.4448 14.4512H38.1214V14.5856L38.1205 14.5848ZM61.6227 14.1814C61.4899 14.4503 61.2244 14.7193 60.8261 14.7193H57.3741L54.5844 5.84947C55.5146 6.38734 56.3103 7.05883 56.975 8.00011L61.489 13.3754C61.7546 13.5099 61.7554 13.7788 61.6227 14.1814Z" fill="#0F0F0F"/>
<path d="M57.7724 7.05883C55.6473 4.50564 52.4618 3.02734 49.2746 3.02734H17.8048C14.4856 3.02734 11.5639 4.77458 9.83798 7.73117C9.38106 8.52907 9.14069 9.43256 9.14069 10.352C9.14069 11.2715 9.38106 12.175 9.83798 12.9729C10.7673 14.5856 12.4933 15.6605 14.352 15.6605H60.8261C61.6227 15.6605 62.1537 15.2571 62.552 14.5856C62.8176 13.9133 62.8175 13.1073 62.2865 12.5695L57.7724 7.05883ZM57.7724 7.05883L57.7716 7.05968M43.4329 18.0784H40.7767C40.5112 18.0784 40.2456 18.3473 40.2456 18.6154C40.2456 18.8844 40.5112 19.1533 40.7767 19.1533H43.432C43.6984 19.1533 43.9639 18.8844 43.9639 18.6154C43.9639 18.3473 43.6984 18.0784 43.4329 18.0784ZM78.3529 27.7542C78.2201 27.6197 78.0873 27.3507 77.9546 27.2171C77.0252 26.0069 75.5639 25.2001 73.9716 25.2001C72.3784 25.2001 70.9163 26.0069 69.9886 27.2171C69.855 27.3507 69.7222 27.6205 69.5886 27.7542C69.4558 27.8878 69.4567 28.1576 69.3239 28.292C69.0584 28.9644 68.7929 29.635 68.7929 30.4418C68.7929 31.2495 69.0584 32.0546 69.3239 32.7269C69.4567 32.8614 69.4567 33.1303 69.5895 33.2639C69.7214 33.3984 69.855 33.6673 69.9878 33.8018C70.9171 35.0112 72.3776 35.6827 73.9707 35.6827C75.5648 35.6827 77.0252 34.8767 77.9546 33.8018C78.119 33.6483 78.254 33.466 78.3529 33.2639C78.4856 33.1295 78.4856 32.8605 78.6184 32.7269C78.8839 32.0546 79.1495 31.2486 79.1495 30.4418C79.1495 29.6359 79.0167 28.9635 78.6184 28.292C78.6184 28.0231 78.4856 27.8886 78.3529 27.7542ZM77.4235 32.7269C77.2907 32.8614 77.158 33.1303 77.0252 33.2639L76.4941 33.8018C75.8303 34.3388 74.9001 34.6078 73.9716 34.6078C73.0422 34.6078 72.2448 34.3388 71.4482 33.8018C71.1827 33.6673 71.0499 33.5329 70.9171 33.2639C70.7844 33.1295 70.6516 32.9959 70.5188 32.7269C70.1205 32.0546 69.855 31.2486 69.855 30.4418C69.855 29.6359 70.1205 28.9635 70.5188 28.292C70.6516 28.1567 70.7844 27.8886 70.9171 27.7542L71.4482 27.2171C72.112 26.6793 73.0414 26.2759 73.9716 26.2759C74.901 26.2759 75.8303 26.6793 76.4941 27.2163C76.6261 27.3507 76.8916 27.4852 77.0252 27.7542C77.158 27.8878 77.2907 28.0231 77.4235 28.292C77.8218 28.9644 78.0873 29.635 78.0873 30.4418C78.0873 31.2495 77.8218 32.0546 77.4235 32.7269ZM23.2507 27.7542C23.118 27.6197 22.9852 27.3507 22.8524 27.2171C21.9222 26.0069 20.461 25.2001 18.8686 25.2001C17.2754 25.2001 15.815 26.0069 14.8856 27.2171C14.752 27.3507 14.6193 27.6205 14.4865 27.7542C14.3537 27.8878 14.3537 28.1576 14.221 28.292C13.9554 28.9644 13.6899 29.635 13.6899 30.4418C13.6899 31.2495 13.9554 32.0546 14.221 32.7269C14.3546 32.8614 14.3546 33.1303 14.4865 33.2639C14.6193 33.3984 14.752 33.6673 14.8848 33.8018C15.815 35.0112 17.2763 35.6827 18.8686 35.6827C20.4618 35.6827 21.9222 34.8767 22.8516 33.8018C22.9844 33.6673 23.118 33.5329 23.2507 33.2639C23.3835 33.1295 23.3835 32.8605 23.5163 32.7269C23.7818 32.0546 24.0473 31.2486 24.0473 30.4418C24.0473 29.6359 23.9137 28.9635 23.5163 28.292C23.3835 28.0231 23.3835 27.8886 23.2507 27.7542ZM22.3214 32.7269C22.1886 32.8614 22.0558 33.1303 21.9222 33.2639L21.3912 33.8018C20.7273 34.3388 19.798 34.6078 18.8686 34.6078C17.9393 34.6078 17.1427 34.3388 16.3461 33.8018C16.1078 33.6955 15.9183 33.5035 15.815 33.2639C15.6504 33.1107 15.5151 32.9287 15.4158 32.7269C15.0176 32.0546 14.752 31.2486 14.752 30.4418C14.752 29.6359 15.0176 28.9635 15.4158 28.292C15.5495 28.1567 15.6822 27.8886 15.815 27.7542L16.3461 27.2171C17.0099 26.6793 17.9393 26.2759 18.8686 26.2759C19.798 26.2759 20.7282 26.6793 21.3912 27.2163C21.5239 27.3507 21.7903 27.4852 21.9222 27.7542C22.055 27.8878 22.1878 28.0231 22.3214 28.292C22.7197 28.9644 22.9852 29.635 22.9852 30.4418C22.9852 31.2495 22.7197 32.0546 22.3214 32.7269ZM22.3205 18.0784H19.6652C19.3988 18.0784 19.1333 18.3473 19.1333 18.6154C19.1333 18.8844 19.3988 19.1533 19.6644 19.1533H22.3197C22.5861 19.1533 22.8516 18.8844 22.8516 18.6154C22.8516 18.3473 22.5861 18.0784 22.3205 18.0784ZM86.5861 17.9499C86.4486 17.9476 86.3133 17.9842 86.1957 18.0554C86.0781 18.1266 85.983 18.2296 85.9214 18.3525L85.1248 22.5193C85.1219 22.6573 85.1576 22.7934 85.228 22.9123C85.2984 23.0311 85.4006 23.1278 85.5231 23.1916H85.6558C85.9214 23.1916 86.0541 23.0571 86.1869 22.789L86.9835 18.6222C86.9865 18.4843 86.9509 18.3482 86.8806 18.2294C86.8104 18.1106 86.7084 18.0138 86.5861 17.9499ZM14.3529 14.5848C12.8924 14.5848 11.4312 13.7788 10.7682 12.4342C9.97159 11.0912 9.97159 9.47756 10.7682 8.26819C12.2286 5.715 14.8848 4.10139 17.8056 4.10139H19.9299L18.0712 14.4503H14.352L14.3529 14.5848ZM18.9997 14.5848L20.8601 4.37117V4.10224H35.7316L37.192 14.5848H19.0005H18.9997ZM38.1205 14.5848L36.6601 4.10309H49.2746C50.735 4.10309 52.0627 4.37202 53.3912 4.90905L56.4448 14.4512H38.1214V14.5856L38.1205 14.5848ZM61.6227 14.1814C61.4899 14.4503 61.2244 14.7193 60.8261 14.7193H57.3741L54.5844 5.84947C55.5146 6.38734 56.3103 7.05883 56.975 8.00011L61.489 13.3754C61.7546 13.5099 61.7554 13.7788 61.6227 14.1814Z" stroke="#0F0F0F" stroke-width="0.3"/>
</g>
</g>
<defs>
<clipPath id="clip0_1_2908">
<rect width="90.2128" height="40" fill="white"/>
</clipPath>
</defs>
</svg>
