<svg width="83" height="40" viewBox="0 0 83 40" fill="none" xmlns="http://www.w3.org/2000/svg">
<g id="pickup-red 1" clip-path="url(#clip0_1_2915)">
<path id="Vector" d="M72.5039 16.1957L65.6898 15.7265C64.6323 15.609 63.8097 15.2557 63.1047 14.434L58.2881 9.02901C53.2347 3.50651 46.1847 0.334013 38.6647 0.334013H36.3147C35.8977 0.332248 35.4844 0.413108 35.0987 0.571926C34.7131 0.730745 34.3627 0.964375 34.0678 1.25933C33.7729 1.55429 33.5394 1.90473 33.3807 2.29043C33.222 2.67613 33.1412 3.08944 33.1431 3.50651V12.7882H2.36058C2.12558 12.7882 1.89058 13.0232 1.89058 13.259C1.89058 13.494 2.12558 13.729 2.36058 13.729H4.82808V16.079H4.47558C2.59558 16.079 1.18558 17.489 1.06808 19.3682L0.833076 26.0665C0.828886 27.0398 1.0175 28.0043 1.38802 28.9043C1.75855 29.8043 2.30365 30.622 2.99187 31.3102C3.6801 31.9984 4.49781 32.5435 5.39781 32.9141C6.29782 33.2846 7.26229 33.4732 8.23558 33.469H10.5856C11.2897 37.1107 14.4631 39.814 18.3397 39.814C22.0997 39.814 25.3897 37.1115 26.0939 33.469H59.3447C60.0497 37.1107 63.2222 39.814 67.0997 39.814C70.9772 39.814 74.1497 37.1115 74.8539 33.469C76.7417 33.3562 78.5115 32.5135 79.7889 31.119C81.1989 29.709 81.9039 27.829 81.9039 25.8315C81.5514 20.779 77.5564 16.6673 72.5039 16.1973V16.1957ZM29.6189 13.8457H33.0264V14.7857C33.0264 15.6082 32.4389 16.1957 31.6164 16.1957H29.6189V13.8457ZM17.6347 13.8457H28.6789V16.1957H17.6347V13.8457ZM5.64974 13.8457H16.6939V16.1957H5.65058L5.64974 13.8457ZM1.65558 23.0107H4.12224C4.35808 23.0107 4.59308 22.7757 4.59308 22.5407C4.59308 22.3065 4.35808 22.0707 4.12308 22.0707H1.65558L1.77224 19.4857C1.89058 18.1932 2.94724 17.1357 4.24058 17.1357H31.3822C32.005 17.1339 32.6017 16.8858 33.042 16.4454C33.4823 16.0051 33.7305 15.4084 33.7322 14.7857V3.62401C33.734 3.00129 33.9822 2.40458 34.4225 1.96425C34.8628 1.52393 35.4595 1.27577 36.0822 1.27401H38.4314C45.5981 1.27401 52.5314 4.32901 57.3481 9.61568L62.1647 15.0207C62.9872 15.9607 64.1631 16.5482 65.3372 16.5482L72.1522 17.019C74.5023 17.254 76.6172 18.3107 78.1439 19.9557H73.4439C73.2097 19.9557 72.9747 20.1907 72.9747 20.4257C72.9747 20.6607 73.2097 20.8965 73.4447 20.8965H78.8497C79.7897 22.3065 80.3764 23.834 80.4948 25.7132H71.3298C70.0381 24.6565 68.3931 24.069 66.6297 24.069C64.8672 24.069 63.2231 24.6557 61.9297 25.7132H22.6881C21.3956 24.6565 19.7506 24.069 17.9881 24.069C16.2256 24.069 14.5806 24.6557 13.2881 25.7132H1.53808L1.65641 23.0107H1.65558ZM10.2331 32.6448H7.99974C4.59308 32.6448 1.77308 29.9423 1.53808 26.6532H12.2297C10.9381 28.0632 10.1156 29.9423 10.1156 32.0573C10.2331 32.1748 10.2331 32.4107 10.2331 32.6448ZM25.0364 32.6448V33.1148C25.0364 33.2332 25.0364 33.4682 24.9197 33.5857C24.2147 36.6398 21.3947 38.9898 18.1047 38.9898C14.8147 38.9898 11.9947 36.6398 11.2897 33.5857C11.2897 33.4682 11.2897 33.2332 11.1731 33.1148V32.6448C11.1731 32.4098 11.0547 32.1757 11.0547 31.9407C11.0547 29.7073 12.1131 27.8273 13.6397 26.5357C13.8747 26.419 13.9931 26.1832 14.2272 26.0657C14.4614 25.9482 14.8139 25.7132 15.0497 25.5957C15.9897 25.1248 16.9289 24.8907 17.9864 24.8907C19.0439 24.8907 20.1014 25.1257 20.9239 25.5957C21.1589 25.7123 21.5114 25.8307 21.7464 26.0657C21.9814 26.1823 22.0989 26.4182 22.3339 26.5357C23.8614 27.8282 24.9189 29.7082 24.9189 31.9407C25.1539 32.1757 25.0356 32.4098 25.0356 32.6448H25.0364ZM59.1106 32.6448H26.0939V31.9407C26.0949 29.9371 25.3399 28.0069 23.9797 26.5357H61.2247C59.9331 27.9457 59.1106 29.8257 59.1106 31.9407C59.0527 32.049 59.0224 32.1699 59.0224 32.2928C59.0224 32.4156 59.0527 32.5365 59.1106 32.6448ZM73.7964 32.6448V33.1148C73.7964 33.2332 73.7964 33.4682 73.6797 33.5857C72.9747 36.6398 70.1547 38.9898 66.8647 38.9898C63.5747 38.9898 60.7547 36.6398 60.0497 33.5857C60.0497 33.4682 60.0497 33.2332 59.9331 33.1148V32.6448C59.9331 32.4098 59.8147 32.1757 59.8147 31.9407C59.8147 29.7073 60.8731 27.8273 62.3997 26.5357C62.6347 26.419 62.7522 26.1832 62.9872 26.0657C63.2214 25.9482 63.5747 25.7132 63.8097 25.5957C64.7497 25.1248 65.6898 24.8907 66.7472 24.8907C67.8047 24.8907 68.8623 25.1257 69.6847 25.5957C69.9189 25.7123 70.2722 25.8307 70.5072 26.0657C70.7422 26.1823 70.8597 26.4182 71.0939 26.5357C72.6214 27.8282 73.6789 29.7082 73.6789 31.9407C73.9139 32.1757 73.9139 32.4098 73.7964 32.6448ZM78.9664 30.6482C77.9081 31.8232 76.3814 32.4098 74.8539 32.6448V32.0582C74.8539 29.9432 74.0314 28.0632 72.7389 26.6532H80.8464C80.6114 28.0632 80.0239 29.4732 78.9664 30.6482Z" fill="#0F0F0F" stroke="#0F0F0F" stroke-width="0.3"/>
<path id="Vector_2" d="M66.8658 27.4775C64.3983 27.4775 62.2825 29.475 62.2825 32.0608C62.2825 32.295 62.2825 32.53 62.4008 32.765C62.4008 32.8817 62.4008 33.1175 62.5183 33.235C62.5183 33.3525 62.6358 33.5875 62.6358 33.705C63.2233 35.4683 64.9858 36.6425 66.8658 36.6425C68.8633 36.6425 70.5075 35.3508 71.0958 33.705C71.0958 33.5883 71.2125 33.3525 71.2125 33.235C71.2125 33.1175 71.33 32.8825 71.33 32.765C71.33 32.53 71.4475 32.295 71.4475 32.06C71.4475 29.475 69.4508 27.4775 66.8658 27.4775ZM70.5075 32.6475C70.5075 32.765 70.3908 33.0008 70.3908 33.1183C70.3908 33.235 70.2725 33.4708 70.155 33.5883C69.5683 34.7633 68.3933 35.5858 66.865 35.5858C65.4567 35.5858 64.1633 34.7633 63.5758 33.5883C63.4583 33.4708 63.4583 33.2358 63.3408 33.1183C63.3408 33.0008 63.2233 32.765 63.2233 32.6475C63.2233 32.4125 63.1067 32.1775 63.1067 31.9433C63.1067 29.9458 64.7508 28.3008 66.7483 28.3008C68.745 28.3008 70.39 29.9458 70.39 31.9425C70.5075 32.1783 70.5075 32.4133 70.5075 32.6475ZM18.1058 27.4775C15.6383 27.4775 13.5233 29.475 13.5233 32.0608C13.5233 32.295 13.5233 32.53 13.6408 32.765C13.6408 32.8817 13.6408 33.1175 13.7583 33.235C13.7583 33.3525 13.8758 33.5875 13.8758 33.705C14.4642 35.4683 16.2258 36.6425 18.1058 36.6425C20.1025 36.6425 21.7475 35.3508 22.335 33.705C22.335 33.5883 22.4525 33.3525 22.4525 33.235C22.4525 33.1175 22.57 32.8825 22.57 32.765C22.57 32.53 22.6875 32.295 22.6875 32.06C22.6875 29.475 20.6908 27.4775 18.1058 27.4775ZM21.7475 32.6475C21.7475 32.765 21.6308 33.0008 21.6308 33.1183C21.6308 33.235 21.5125 33.4708 21.395 33.5883C20.8083 34.7633 19.6325 35.5858 18.1058 35.5858C16.6958 35.5858 15.4033 34.7633 14.8158 33.5883C14.6983 33.4708 14.6983 33.2358 14.5808 33.1183C14.5808 33.0008 14.4633 32.765 14.4633 32.6475C14.4633 32.4125 14.3458 32.1775 14.3458 31.9433C14.3458 29.9458 15.9908 28.3008 17.9875 28.3008C19.985 28.3008 21.63 29.9458 21.63 31.9425C21.7483 32.1783 21.7475 32.4133 21.7475 32.6475ZM38.5483 17.2533L59.1092 17.1367C59.5792 17.1367 60.0492 16.7833 60.2842 16.3142C60.5192 15.8442 60.4017 15.2558 60.0492 14.9033L56.7592 11.1442C52.295 5.97418 45.95 3.15417 39.135 3.15417H37.3733C36.9025 3.15417 36.4333 3.62417 36.4333 4.09417V15.2567C36.4311 15.5191 36.482 15.7793 36.5828 16.0216C36.6836 16.2638 36.8323 16.4833 37.02 16.6667C37.6075 17.0192 38.0783 17.2533 38.5483 17.2533ZM37.49 3.97667H39.2525C45.715 3.97667 51.9417 6.79667 56.1725 11.7308L59.4617 15.4908C59.5792 15.7258 59.5792 15.8433 59.5792 15.9608C59.5792 15.9608 59.4625 16.1967 59.2267 16.1967L38.6658 16.3133C38.3125 16.3133 38.0783 16.1967 37.8433 15.9608C37.6083 15.7258 37.4908 15.4908 37.4908 15.1392L37.49 3.97667ZM41.6033 20.1875H39.2533C39.0183 20.1875 38.7833 20.4225 38.7833 20.6567C38.7833 20.8917 39.0183 21.1267 39.2533 21.1267H41.6033C41.8383 21.1267 42.0733 20.8917 42.0733 20.6567C42.0733 20.4217 41.8383 20.1875 41.6033 20.1875Z" fill="#0F0F0F" stroke="#0F0F0F" stroke-width="0.3"/>
</g>
<defs>
<clipPath id="clip0_1_2915">
<rect width="82.5" height="40" fill="white"/>
</clipPath>
</defs>
</svg>
