<svg width="103" height="40" viewBox="0 0 103 40" fill="none" xmlns="http://www.w3.org/2000/svg">
<g id="sedan-red 1">
<g id="Vector">
<path d="M93.5808 13.7404L78.9391 13.1668C78.2208 13.1668 77.3595 12.8791 76.7859 12.5923L67.4548 6.27743C61.7136 2.39999 54.9672 0.390625 47.9331 0.390625H34.4404C31.2829 0.390625 28.2676 1.2519 25.5408 2.83062L11.7604 10.7259C11.4736 10.8689 11.1859 11.0128 10.8991 11.0128L7.02335 11.1557C5.44378 11.1557 3.86591 11.7302 2.71697 12.8783C1.56803 14.0281 0.850586 15.4638 0.850586 17.1864V22.354C0.850586 28.3821 5.73059 33.4068 11.9034 33.4068H13.0523C14.6302 36.7089 17.9314 39.1481 21.8072 39.1481C25.6829 39.1481 29.128 36.8511 30.5629 33.4068H72.4787C74.0591 36.7089 77.3595 39.1481 81.2361 39.1481C85.1119 39.1481 88.557 36.8511 89.9919 33.4068H90.2795C96.3085 33.4068 101.332 28.5259 101.332 22.354C101.763 17.4732 98.174 13.8834 93.5808 13.7404ZM12.7646 31.9711H12.0463C8.17059 31.9711 4.72548 29.6749 3.14676 26.3728H12.9085C12.6208 27.234 12.477 28.2391 12.477 29.2434C12.477 30.1047 12.6217 31.1098 12.7646 31.9711ZM30.134 31.9711C29.991 32.4017 29.8472 32.6893 29.7034 33.12C28.2685 35.8468 25.397 37.7123 22.2395 37.7123C19.0821 37.7123 16.0668 35.8459 14.6319 33.1191C14.4872 32.8323 14.3451 32.4017 14.2012 31.9711C13.9144 31.1098 13.6276 30.1047 13.6276 29.1004C13.6276 28.0962 13.7706 27.091 14.2012 26.2298C14.3451 25.7991 14.4889 25.5115 14.6319 25.0808C16.0668 22.354 18.9382 20.4885 22.0965 20.4885C25.2557 20.4885 28.1255 22.3549 29.5604 25.0817C29.7034 25.3685 29.848 25.7991 29.9919 26.2298C30.2787 27.091 30.5655 28.0962 30.5655 29.1004C30.5655 30.1047 30.4217 31.1098 30.134 31.9711ZM72.4795 31.9711H31.2821C31.5689 31.1098 31.7136 30.1047 31.7136 29.1004C31.7136 28.0962 31.5689 27.091 31.2821 26.2298H72.4795C72.1927 27.091 72.0497 28.0962 72.0497 29.1004C72.0497 30.1047 72.1927 31.1098 72.4795 31.9711ZM89.7051 31.9711C89.5621 32.4017 89.4183 32.6893 89.2744 33.12C87.8395 35.8468 84.968 37.7123 81.8106 37.7123C78.5085 37.7123 75.6378 35.8459 74.3468 33.1191C74.2021 32.8323 74.0591 32.4017 73.9153 31.9711C73.6276 31.1098 73.3408 30.1047 73.3408 29.1004C73.3408 28.0962 73.4855 27.091 73.9153 26.2298C74.0591 25.7991 74.2021 25.5115 74.3459 25.0808C75.7817 22.354 78.6523 20.4885 81.8097 20.4885C84.9672 20.4885 87.8395 22.3549 89.2744 25.0817C89.4183 25.3685 89.5621 25.7991 89.7051 26.2298C89.9919 27.091 90.2795 28.0962 90.2795 29.1004C90.1357 30.1055 89.9919 31.1098 89.7051 31.9711ZM90.8531 31.9711C91.1408 31.1098 91.2846 30.1047 91.2846 29.1004C91.2846 28.0962 91.1408 27.091 90.8531 26.2298H99.6097C98.814 27.8955 97.5771 29.3113 96.0333 30.3235C94.4896 31.3357 92.698 31.9055 90.8531 31.9711ZM90.4234 25.2247C88.8438 21.9225 85.5417 19.4825 81.6668 19.4825C77.7919 19.4825 74.3459 21.7796 72.911 25.2247H30.8506C29.271 21.9225 25.9697 19.4825 22.094 19.4825C18.2182 19.4825 14.7731 21.7796 13.3382 25.2247H2.71612C2.4226 24.3456 2.27736 23.4238 2.28633 22.497H5.15697C5.30577 22.4865 5.44576 22.4226 5.55117 22.317C5.65657 22.2114 5.72029 22.0714 5.73059 21.9225C5.72009 21.7739 5.65629 21.634 5.5509 21.5286C5.44552 21.4232 5.30564 21.3594 5.15697 21.3489H2.28633V17.7608H5.15697C5.30577 17.7503 5.44576 17.6864 5.55117 17.5808C5.65657 17.4753 5.72029 17.3352 5.73059 17.1864C5.72029 17.0376 5.65657 16.8975 5.55117 16.7919C5.44576 16.6863 5.30577 16.6224 5.15697 16.6119H2.42931C2.57229 15.4638 3.00293 14.3157 3.8642 13.4545C4.72548 12.5932 6.01739 12.1617 7.16633 12.1617H7.31016L11.1859 12.0187C11.6174 12.0187 12.191 11.8757 12.6217 11.5881L26.4021 3.54977C28.9859 2.11488 31.8565 1.2536 34.728 1.2536H48.2208C54.9672 1.2536 61.4268 3.26211 67.0251 6.99488L76.3553 13.3098C77.2102 13.7461 78.1317 14.0374 79.0821 14.1719L93.7238 14.7455C96.3085 14.8885 98.4608 16.1813 99.6097 18.1906H94.0114C93.8627 18.2015 93.7228 18.2655 93.6173 18.3709C93.5118 18.4764 93.4478 18.6163 93.437 18.7651C93.4473 18.914 93.5112 19.054 93.6168 19.1595C93.7224 19.2649 93.8626 19.3286 94.0114 19.3387H100.183C100.471 20.2 100.758 21.0613 100.758 22.0664C100.758 23.2153 100.615 24.2196 100.183 25.2238H90.4225L90.4234 25.2247Z" fill="#0F0F0F"/>
<path d="M12.7646 31.9711H12.0463C8.17059 31.9711 4.72548 29.6749 3.14676 26.3728H12.9085C12.6208 27.234 12.477 28.2391 12.477 29.2434C12.477 30.1047 12.6217 31.1098 12.7646 31.9711ZM12.7646 31.9711H12.7655M93.5808 13.7404L78.9391 13.1668C78.2208 13.1668 77.3595 12.8791 76.7859 12.5923L67.4548 6.27743C61.7136 2.39999 54.9672 0.390625 47.9331 0.390625H34.4404C31.2829 0.390625 28.2676 1.2519 25.5408 2.83062L11.7604 10.7259C11.4736 10.8689 11.1859 11.0128 10.8991 11.0128L7.02335 11.1557C5.44378 11.1557 3.86591 11.7302 2.71697 12.8783C1.56803 14.0281 0.850586 15.4638 0.850586 17.1864V22.354C0.850586 28.3821 5.73059 33.4068 11.9034 33.4068H13.0523C14.6302 36.7089 17.9314 39.1481 21.8072 39.1481C25.6829 39.1481 29.128 36.8511 30.5629 33.4068H72.4787C74.0591 36.7089 77.3595 39.1481 81.2361 39.1481C85.1119 39.1481 88.557 36.8511 89.9919 33.4068H90.2795C96.3085 33.4068 101.332 28.5259 101.332 22.354C101.763 17.4732 98.174 13.8834 93.5808 13.7404ZM30.134 31.9711C29.991 32.4017 29.8472 32.6893 29.7034 33.12C28.2685 35.8468 25.397 37.7123 22.2395 37.7123C19.0821 37.7123 16.0668 35.8459 14.6319 33.1191C14.4872 32.8323 14.3451 32.4017 14.2012 31.9711C13.9144 31.1098 13.6276 30.1047 13.6276 29.1004C13.6276 28.0962 13.7706 27.091 14.2012 26.2298C14.3451 25.7991 14.4889 25.5115 14.6319 25.0808C16.0668 22.354 18.9382 20.4885 22.0965 20.4885C25.2557 20.4885 28.1255 22.3549 29.5604 25.0817C29.7034 25.3685 29.848 25.7991 29.9919 26.2298C30.2787 27.091 30.5655 28.0962 30.5655 29.1004C30.5655 30.1047 30.4217 31.1098 30.134 31.9711ZM72.4795 31.9711H31.2821C31.5689 31.1098 31.7136 30.1047 31.7136 29.1004C31.7136 28.0962 31.5689 27.091 31.2821 26.2298H72.4795C72.1927 27.091 72.0497 28.0962 72.0497 29.1004C72.0497 30.1047 72.1927 31.1098 72.4795 31.9711ZM89.7051 31.9711C89.5621 32.4017 89.4183 32.6893 89.2744 33.12C87.8395 35.8468 84.968 37.7123 81.8106 37.7123C78.5085 37.7123 75.6378 35.8459 74.3468 33.1191C74.2021 32.8323 74.0591 32.4017 73.9153 31.9711C73.6276 31.1098 73.3408 30.1047 73.3408 29.1004C73.3408 28.0962 73.4855 27.091 73.9153 26.2298C74.0591 25.7991 74.2021 25.5115 74.3459 25.0808C75.7817 22.354 78.6523 20.4885 81.8097 20.4885C84.9672 20.4885 87.8395 22.3549 89.2744 25.0817C89.4183 25.3685 89.5621 25.7991 89.7051 26.2298C89.9919 27.091 90.2795 28.0962 90.2795 29.1004C90.1357 30.1055 89.9919 31.1098 89.7051 31.9711ZM90.8531 31.9711C91.1408 31.1098 91.2846 30.1047 91.2846 29.1004C91.2846 28.0962 91.1408 27.091 90.8531 26.2298H99.6097C98.814 27.8955 97.5771 29.3113 96.0333 30.3235C94.4896 31.3357 92.698 31.9055 90.8531 31.9711ZM90.4234 25.2247C88.8438 21.9225 85.5417 19.4825 81.6668 19.4825C77.7919 19.4825 74.3459 21.7796 72.911 25.2247H30.8506C29.271 21.9225 25.9697 19.4825 22.094 19.4825C18.2182 19.4825 14.7731 21.7796 13.3382 25.2247H2.71612C2.4226 24.3456 2.27736 23.4238 2.28633 22.497H5.15697C5.30577 22.4865 5.44576 22.4226 5.55117 22.317C5.65657 22.2114 5.72029 22.0714 5.73059 21.9225C5.72009 21.7739 5.65629 21.634 5.5509 21.5286C5.44552 21.4232 5.30564 21.3594 5.15697 21.3489H2.28633V17.7608H5.15697C5.30577 17.7503 5.44576 17.6864 5.55117 17.5808C5.65657 17.4753 5.72029 17.3352 5.73059 17.1864C5.72029 17.0376 5.65657 16.8975 5.55117 16.7919C5.44576 16.6863 5.30577 16.6224 5.15697 16.6119H2.42931C2.57229 15.4638 3.00293 14.3157 3.8642 13.4545C4.72548 12.5932 6.01739 12.1617 7.16633 12.1617H7.31016L11.1859 12.0187C11.6174 12.0187 12.191 11.8757 12.6217 11.5881L26.4021 3.54977C28.9859 2.11488 31.8565 1.2536 34.728 1.2536H48.2208C54.9672 1.2536 61.4268 3.26211 67.0251 6.99488L76.3553 13.3098C77.2102 13.7461 78.1317 14.0374 79.0821 14.1719L93.7238 14.7455C96.3085 14.8885 98.4608 16.1813 99.6097 18.1906H94.0114C93.8627 18.2015 93.7228 18.2655 93.6173 18.3709C93.5118 18.4764 93.4478 18.6163 93.437 18.7651C93.4473 18.914 93.5112 19.054 93.6168 19.1595C93.7224 19.2649 93.8626 19.3286 94.0114 19.3387H100.183C100.471 20.2 100.758 21.0613 100.758 22.0664C100.758 23.2153 100.615 24.2196 100.183 25.2238H90.4225L90.4234 25.2247Z" stroke="#0F0F0F" stroke-width="0.3"/>
</g>
<path id="Vector_2" d="M48.6513 3.69336H36.3074C33.2921 3.69336 30.2785 4.98613 28.1253 7.2823C27.6336 7.78358 27.3026 8.42013 27.1747 9.11055C27.0467 9.80096 27.1276 10.5138 27.407 11.158C27.9815 12.45 29.1295 13.3112 30.5644 13.3112L70.7576 14.6048C71.0453 14.6048 71.3321 14.461 71.3321 14.1742V13.7427L67.7432 10.7283C62.5755 6.27804 55.6853 3.69336 48.6513 3.69336ZM30.5644 12.3061C29.5602 12.3061 28.6981 11.7317 28.4113 10.7266C27.9815 9.86527 28.2683 8.86017 28.9857 7.99889C30.8521 5.98953 33.5789 4.84144 36.3066 4.84144H46.6419L49.5125 12.8789L30.5644 12.3053V12.3061ZM50.6606 13.0236L47.79 4.8423H48.6513C55.3985 4.8423 62.001 7.2823 67.1687 11.5887L69.4657 13.598L50.6606 13.0236ZM85.5432 25.2253C84.5389 24.2202 83.247 23.6457 81.6674 23.6457C80.0878 23.6457 78.7968 24.2202 77.7925 25.2253C77.5057 25.5121 77.2181 25.9427 76.9312 26.3734C76.3674 27.2244 76.0677 28.2231 76.07 29.244C76.0676 30.2649 76.3673 31.2637 76.9312 32.1146C77.2181 32.5453 77.5057 32.8321 77.7925 33.2636C78.7968 34.2678 80.2325 34.8423 81.6674 34.8423C83.1032 34.8423 84.5389 34.2687 85.5432 33.2627C85.8308 32.9759 86.1176 32.5453 86.4044 32.1146C86.8359 31.2534 87.2657 30.3921 87.2657 29.244C87.2682 28.2231 86.9686 27.2243 86.4044 26.3734C86.1176 25.9427 85.8308 25.5129 85.5432 25.2253ZM84.9695 31.9717C84.5389 32.4014 84.1083 32.8329 83.5338 33.1206C82.9602 33.4074 82.2419 33.6942 81.5244 33.6942C80.807 33.6942 80.0896 33.5512 79.5151 33.1197C78.9406 32.8329 78.51 32.4023 78.0793 31.9717C77.4304 31.1554 77.0765 30.1438 77.0751 29.101C77.0751 27.9521 77.5057 27.0917 78.0793 26.2304C78.51 25.7997 78.9406 25.3691 79.5151 25.0814C80.0887 24.7946 80.8061 24.6517 81.5244 24.6517C82.2427 24.6517 82.8155 24.7946 83.5338 25.0814C84.1083 25.3691 84.5389 25.7997 84.9695 26.2304C85.6878 26.9478 85.9747 27.9529 85.9747 29.101C86.1176 30.25 85.6878 31.2542 84.9695 31.9717ZM54.9695 17.0431H52.0989C51.95 17.0535 51.8098 17.1173 51.7042 17.2229C51.5986 17.3285 51.5348 17.4687 51.5244 17.6176C51.535 17.7664 51.5989 17.9064 51.7044 18.0118C51.81 18.1172 51.9501 18.1809 52.0989 18.1912H54.9695C55.1184 18.1809 55.2585 18.1172 55.364 18.0118C55.4696 17.9064 55.5335 17.7664 55.544 17.6176C55.544 17.33 55.401 17.0431 54.9695 17.0431ZM33.5815 17.0431H30.7108C30.5619 17.0535 30.4217 17.1173 30.3161 17.2229C30.2105 17.3285 30.1467 17.4687 30.1364 17.6176C30.1469 17.7664 30.2108 17.9064 30.3164 18.0118C30.4219 18.1172 30.562 18.1809 30.7108 18.1912H33.5815C33.7301 18.1807 33.87 18.1169 33.9754 18.0115C34.0808 17.9062 34.1446 17.7663 34.1551 17.6176C34.1448 17.4688 34.0811 17.3287 33.9757 17.2232C33.8703 17.1176 33.7303 17.0537 33.5815 17.0431ZM25.9721 25.2253C24.9678 24.2202 23.6759 23.6457 22.0964 23.6457C20.6606 23.6457 19.2257 24.2202 18.2206 25.2253C17.9338 25.5121 17.6461 25.9427 17.3593 26.3734C16.7954 27.2244 16.4958 28.2231 16.4981 29.244C16.4957 30.2649 16.7954 31.2637 17.3593 32.1146C17.6461 32.5453 17.9338 32.8321 18.2206 33.2636C19.2257 34.2678 20.6606 34.8423 22.0964 34.8423C23.6759 34.8423 24.967 34.2687 25.9721 33.2627C26.2598 32.9759 26.5466 32.5453 26.8334 32.1146C27.2649 31.2534 27.6947 30.3921 27.6947 29.244C27.697 28.2231 27.3974 27.2243 26.8334 26.3734C26.5466 25.9427 26.2598 25.5129 25.9721 25.2253ZM25.3985 31.9717C24.967 32.4014 24.5372 32.8329 23.9627 33.1206C23.3891 33.4074 22.6708 33.6942 21.9534 33.6942C21.2359 33.6942 20.5176 33.5512 19.944 33.1197C19.3695 32.8329 18.9398 32.4023 18.5083 31.9717C17.8594 31.1554 17.5054 30.1438 17.504 29.101C17.504 27.9521 17.9338 27.0917 18.5083 26.2304C18.9389 25.7997 19.3695 25.3691 19.944 25.0814C20.5176 24.7946 21.2359 24.6517 21.9525 24.6517C22.6708 24.6517 23.2461 24.7946 23.9627 25.0814C24.5372 25.3691 24.9678 25.7997 25.3985 26.2304C26.1159 26.9478 26.4027 27.9529 26.4027 29.101C26.5466 30.25 26.1159 31.2542 25.3985 31.9717Z" fill="#0F0F0F" stroke="#0F0F0F" stroke-width="0.3"/>
</g>
</svg>
