<svg width="103" height="40" viewBox="0 0 103 40" fill="none" xmlns="http://www.w3.org/2000/svg">
<g id="sport-coupe-red 1">
<path id="Vector" d="M93.9755 14.2223L67.918 13.7907C66.0472 13.7907 64.3197 13.2148 62.7363 12.0632L55.9697 7.02398C50.6447 2.99315 44.0222 0.833984 37.2555 0.833984C31.3522 0.833984 25.4497 2.56148 20.4113 5.72898L11.7747 11.1998C11.4863 11.3432 11.1988 11.4873 10.9105 11.4873L7.02384 11.6315C5.29634 11.6315 3.85717 12.2065 2.70551 13.359C1.55217 14.5107 0.833008 15.9507 0.833008 17.6773V22.8606C0.833008 28.9065 5.72801 33.9448 11.918 33.9448H13.0705C14.6538 37.2565 17.9647 39.7032 21.8513 39.7032C25.738 39.7032 29.193 37.4007 30.633 33.9448H72.6697C74.253 37.2565 77.5638 39.7032 81.4513 39.7032C85.338 39.7032 88.793 37.4007 90.2322 33.9448H90.5205C96.5672 33.9448 101.606 29.0506 101.606 22.8598C102.181 17.9648 98.5822 14.3665 93.9755 14.2223ZM12.9255 32.5057H12.2063C10.342 32.4994 8.51694 31.9698 6.93889 30.9771C5.36085 29.9844 4.09327 28.5685 3.28051 26.8907H13.0705C12.7822 27.7548 12.6388 28.7623 12.6388 29.7698C12.6388 30.634 12.7822 31.4965 12.9263 32.5048L12.9255 32.5057ZM30.3447 32.5057C30.2013 32.9365 30.0572 33.2248 29.913 33.6573C28.473 36.3923 25.5947 38.264 22.4272 38.264C20.8564 38.264 19.3154 37.8349 17.9707 37.0231C16.626 36.2112 15.5287 35.0474 14.7972 33.6573C14.6538 33.369 14.5088 32.9373 14.3655 32.5048C14.0772 31.6415 13.7897 30.634 13.7897 29.6265C13.7897 28.6181 13.933 27.6098 14.3655 26.7473C14.5088 26.3157 14.6538 26.0282 14.7972 25.5957C16.2372 22.8598 19.1163 20.9881 22.283 20.9881C25.4497 20.9881 28.3288 22.8598 29.7688 25.5957C29.9122 25.8832 30.0572 26.3148 30.2005 26.7473C30.4888 27.6115 30.7763 28.619 30.7763 29.6265C30.7763 30.634 30.633 31.4981 30.3447 32.5057ZM72.813 32.5057H31.4963C31.7847 31.6415 31.928 30.634 31.928 29.6265C31.928 28.6181 31.7847 27.6098 31.4972 26.7473H72.8138C72.5255 27.6115 72.3813 28.619 72.3813 29.6265C72.3813 30.634 72.5255 31.4981 72.813 32.5057ZM90.0888 32.5057C89.9447 32.9365 89.8005 33.2248 89.6563 33.6573C88.2172 36.3923 85.3372 38.264 82.1705 38.264C78.8597 38.264 75.9805 36.3923 74.6847 33.6573C74.5413 33.369 74.3963 32.9373 74.253 32.5048C73.9655 31.6415 73.6772 30.634 73.6772 29.6265C73.6772 28.6181 73.8205 27.6098 74.253 26.7473C74.3963 26.3157 74.5413 26.0282 74.6847 25.5957C76.1247 22.8598 79.0038 20.9881 82.1705 20.9881C85.4822 20.9881 88.2172 22.8598 89.6563 25.5957C89.8005 25.8832 89.9447 26.3148 90.0888 26.7473C90.3763 27.6115 90.6647 28.619 90.6647 29.6265C90.5205 30.634 90.3763 31.4981 90.0888 32.5057ZM91.2397 32.3615C91.528 31.4981 91.6722 30.4898 91.6722 29.4823C91.6722 28.4748 91.528 27.4673 91.2397 26.604H100.022C98.4388 30.059 95.1272 32.3615 91.2397 32.3615ZM90.808 25.5948C89.2247 22.284 85.9138 19.8365 82.0272 19.8365C78.1405 19.8365 74.6847 22.1398 73.2447 25.5948H31.0647C29.4813 22.284 26.1697 19.8365 22.283 19.8365C18.3963 19.8365 14.9413 22.1398 13.5013 25.5948H2.84967C2.55514 24.7134 2.40926 23.7891 2.41801 22.8598H5.29717C5.44644 22.8493 5.58689 22.7853 5.69269 22.6795C5.7985 22.5737 5.86253 22.4332 5.87301 22.284C5.86236 22.1348 5.79827 21.9944 5.6925 21.8887C5.58673 21.7829 5.44637 21.7188 5.29717 21.7082H2.41634V18.1082H5.29551C5.44464 18.0977 5.58498 18.0338 5.69077 17.9282C5.79655 17.8225 5.86067 17.6823 5.87134 17.5331C5.86088 17.3838 5.79688 17.2432 5.69109 17.1373C5.58531 17.0314 5.44484 16.9672 5.29551 16.9565H2.56051C2.70467 15.8048 3.13717 14.654 4.00051 13.7898C4.86467 12.9257 6.16051 12.494 7.31217 12.494H7.45551L11.343 12.3507C11.8536 12.342 12.3519 12.1926 12.783 11.919L21.4188 6.44815C26.3138 3.42482 31.928 1.69815 37.543 1.69815C44.0213 1.69815 50.3547 3.85732 55.538 7.60065L62.3047 12.639C64.0322 13.934 66.0463 14.5098 68.063 14.6548L94.1197 15.0865C96.7105 15.2298 98.8705 16.5257 100.022 18.5406H94.408C94.2584 18.5508 94.1175 18.6148 94.0115 18.7208C93.9055 18.8269 93.8415 18.9677 93.8313 19.1173C93.8425 19.2664 93.9069 19.4065 94.0128 19.512C94.1187 19.6176 94.2589 19.6815 94.408 19.6923H100.598C100.886 20.5573 101.173 21.4207 101.173 22.4282C101.173 23.5807 101.03 24.5882 100.598 25.5948H90.808Z" fill="#0F0F0F" stroke="#0F0F0F" stroke-width="0.3"/>
<path id="Vector_2" d="M85.9159 25.5963C84.9084 24.588 83.6126 24.013 82.0284 24.013C80.4442 24.013 79.1492 24.588 78.1417 25.5963C77.8534 25.8838 77.5659 26.3155 77.2776 26.748C76.7118 27.6014 76.4111 28.6032 76.4134 29.6271C76.4134 30.6346 76.7018 31.6421 77.2776 32.5063C77.5659 32.9371 77.8534 33.2255 78.1417 33.658C79.1492 34.6655 80.5892 35.2413 82.0284 35.2413C83.4676 35.2413 84.9084 34.6655 85.9159 33.658C86.2034 33.3696 86.4918 32.938 86.7793 32.5055C87.2109 31.6421 87.6434 30.778 87.6434 29.6271C87.6457 28.6032 87.345 27.6014 86.7793 26.748C86.4918 26.3163 86.2034 26.028 85.9159 25.5963ZM85.3392 32.5063C84.9084 32.9371 84.4759 33.3696 83.9001 33.658C83.3234 33.9455 82.6042 34.233 81.8843 34.233C81.1651 34.233 80.4451 34.0905 79.8693 33.658C79.2943 33.3696 78.8609 32.938 78.4301 32.5055C77.7791 31.6871 77.4238 30.6728 77.4217 29.6271C77.4217 28.4746 77.8534 27.6105 78.4301 26.748C78.8609 26.3163 79.2934 25.8838 79.8693 25.5963C80.4443 25.308 81.1651 25.1646 81.8843 25.1646C82.6042 25.1646 83.1801 25.308 83.9001 25.5963C84.4759 25.8838 84.9084 26.3155 85.3392 26.748C86.0592 27.4671 86.3467 28.4755 86.3467 29.6271C86.4917 30.6346 86.0592 31.6421 85.3392 32.5063ZM37.6893 16.668H34.8101C34.6609 16.6786 34.5205 16.7427 34.4148 16.8485C34.309 16.9543 34.2449 17.0946 34.2343 17.2438C34.2447 17.3931 34.3088 17.5335 34.4146 17.6393C34.5204 17.7451 34.6608 17.8092 34.8101 17.8196H37.6893C37.8382 17.809 37.9784 17.745 38.084 17.6394C38.1896 17.5338 38.2536 17.3936 38.2642 17.2446C38.254 17.0954 38.1902 16.9548 38.0845 16.8489C37.9789 16.7429 37.8385 16.6787 37.6893 16.668ZM26.1717 25.5963C25.1634 24.588 23.8684 24.013 22.2851 24.013C20.8451 24.013 19.4059 24.588 18.3984 25.5963C18.1109 25.8838 17.8226 26.3155 17.5342 26.748C16.9688 27.6015 16.6684 28.6033 16.6709 29.6271C16.6685 30.651 16.9689 31.6527 17.5342 32.5063C17.8226 32.9371 18.1109 33.2255 18.3984 33.658C19.4067 34.6655 20.8459 35.2413 22.2859 35.2413C23.8692 35.2413 25.1651 34.6655 26.1734 33.658C26.4609 33.3696 26.7484 32.938 27.0367 32.5055C27.4684 31.6421 27.9009 30.778 27.9009 29.6271C27.9032 28.6032 27.6026 27.6014 27.0367 26.748C26.7492 26.3163 26.4618 26.028 26.1734 25.5963H26.1717ZM25.5959 32.5063C25.1642 32.9371 24.7317 33.3696 24.1559 33.658C23.5801 33.9455 22.8601 34.233 22.1409 34.233C21.4209 34.233 20.7009 34.0905 20.1259 33.658C19.5492 33.3696 19.1176 32.938 18.6859 32.5055C18.035 31.6871 17.6796 30.6728 17.6776 29.6271C17.6776 28.4746 18.1092 27.6105 18.6859 26.748C19.1176 26.3163 19.5492 25.8838 20.1259 25.5963C20.7009 25.308 21.4209 25.1646 22.1417 25.1646C22.8617 25.1646 23.4367 25.308 24.1567 25.5963C24.7317 25.8838 25.1642 26.3155 25.5959 26.748C26.3159 27.4671 26.6042 28.4755 26.6042 29.6271C26.7476 30.6346 26.3159 31.6421 25.5959 32.5063ZM54.6751 9.18548C52.0851 7.02548 49.0617 5.58548 45.7501 4.57881C42.4384 3.57048 39.1284 3.28298 35.6726 3.57048L33.8009 3.71465C30.6342 4.00215 27.6109 5.29798 25.1634 7.45715C24.0109 8.46548 23.7234 9.90465 24.1551 11.3446C24.5884 12.7846 25.8834 13.648 27.3226 13.7921L58.2743 15.3755H58.4176C58.9942 15.3755 59.4259 15.088 59.5701 14.5113C59.7142 13.9363 59.5701 13.3596 59.1384 13.0721L54.6751 9.18548ZM27.6117 12.4963C26.3159 12.4963 25.5959 11.633 25.4517 10.7688C25.1642 10.0488 25.1642 8.89715 26.1717 8.03298C27.6117 6.73798 29.3384 5.73048 31.2101 5.15465L32.5051 12.6405L27.6117 12.4963ZM58.5634 14.0796L33.5134 12.7846L32.0742 5.01048C32.6492 4.86715 33.3692 4.72298 33.9451 4.72298L35.8167 4.57881C36.5367 4.57881 37.2567 4.43548 37.9759 4.43548C40.5676 4.43548 43.0151 4.86715 45.4617 5.58715C48.6284 6.59548 51.5084 8.03465 53.9551 10.0496L58.7051 13.793V13.9363L58.5634 14.0796Z" fill="#0F0F0F" stroke="#0F0F0F" stroke-width="0.3"/>
</g>
</svg>
