<svg width="86" height="40" viewBox="0 0 86 40" fill="none" xmlns="http://www.w3.org/2000/svg">
<g id="suv-red 1" clip-path="url(#clip0_1_2881)">
<path id="Vector" d="M79.4025 15.485L64.1083 13.635C63.8608 13.635 63.7383 13.5117 63.615 13.3883L54.8575 3.15082C54.1294 2.29266 53.2218 1.60485 52.1987 1.136C51.1756 0.667147 50.062 0.428696 48.9367 0.437491H15.8817C14.6857 0.442167 13.5069 0.722832 12.4372 1.25763C11.3675 1.79243 10.4356 2.56693 9.71416 3.52082L1.94333 13.8817C1.21362 14.8375 0.823066 16.0092 0.833327 17.2117V26.8333C0.833327 30.0408 3.42416 32.5075 6.50749 32.5075H10.2075C11.3175 36.33 14.895 39.1667 19.0883 39.1667C23.2817 39.1667 26.8592 36.33 27.9692 32.5067H59.6667C60.7783 36.33 64.355 39.1667 68.5483 39.1667C72.7417 39.1667 76.3192 36.33 77.4292 32.5067H81.9925C84.0892 32.5067 85.6933 30.78 85.6933 28.8067V23.0083C85.9392 19.185 83.1025 15.9783 79.4025 15.485ZM9.83749 29.7933C9.83749 30.41 9.83749 30.9033 9.96166 31.52H6.50749C3.91749 31.52 1.94416 29.5467 1.82083 26.9567H10.3317C9.96166 27.82 9.83749 28.8067 9.83749 29.7933ZM27.3525 31.52C27.3525 31.6433 27.2292 31.89 27.2292 32.0133C27.2292 32.1367 27.105 32.3833 27.105 32.5075C26.5579 34.1663 25.4992 35.609 24.0808 36.6283C22.6624 37.6476 20.9575 38.1912 19.2108 38.1808C17.4642 38.1909 15.7594 37.6472 14.3412 36.6277C12.923 35.6082 11.8644 34.1655 11.3175 32.5067C11.3175 32.3833 11.1933 32.1367 11.1933 32.0133C11.1933 31.89 11.07 31.6433 11.07 31.52C10.9467 30.9033 10.9467 30.41 10.9467 29.7933C10.9467 28.8067 11.0692 27.82 11.44 26.9567C11.44 26.8325 11.5633 26.5867 11.5633 26.4625C11.6875 26.3392 11.6875 26.0925 11.81 25.9692C13.1667 23.2558 16.0033 21.4058 19.3342 21.4058C22.5408 21.4058 25.3775 23.2558 26.8583 25.9692C26.9817 26.0925 26.9817 26.3392 27.105 26.4625C27.2275 26.5867 27.2283 26.8325 27.2283 26.9567C27.5983 27.82 27.7217 28.8067 27.7217 29.7933C27.475 30.41 27.475 30.9033 27.3517 31.52H27.3525ZM59.4217 29.7933C59.4217 30.41 59.4217 30.9033 59.5442 31.52H28.3392C28.4625 30.9033 28.4625 30.41 28.4625 29.7933C28.4625 28.8067 28.3392 27.9433 28.0925 26.9567H59.915C59.545 27.82 59.4217 28.8067 59.4217 29.7933ZM76.9358 31.52C76.9358 31.6433 76.8125 31.89 76.8125 32.0133C76.8125 32.1367 76.6892 32.3833 76.6892 32.5075C76.1421 34.1663 75.0833 35.609 73.665 36.6283C72.2466 37.6476 70.5416 38.1912 68.795 38.1808C67.0483 38.1912 65.3434 37.6476 63.9251 36.628C62.5068 35.6085 61.4483 34.1656 60.9017 32.5067C60.9017 32.3833 60.7783 32.1367 60.7783 32.0133C60.7783 31.89 60.6542 31.6433 60.6542 31.52C60.5317 30.9033 60.5317 30.41 60.5317 29.7933C60.5317 28.8067 60.6542 27.82 61.0242 26.9567C61.0242 26.8325 61.1483 26.5867 61.1483 26.4625C61.2717 26.3392 61.2708 26.0925 61.3942 25.9692C62.7508 23.2558 65.5883 21.4058 68.9192 21.4058C72.125 21.4058 74.9625 23.2558 76.4425 25.9692C76.5658 26.0925 76.5658 26.3392 76.6892 26.4625C76.8117 26.5867 76.8125 26.8325 76.8125 26.9567C77.1825 27.82 77.3058 28.8067 77.3058 29.7933C77.0592 30.41 77.0592 30.9033 76.9358 31.52ZM84.9533 28.6833C84.9533 30.1633 83.72 31.3958 82.24 31.3958H77.9233C78.0458 30.7792 78.0458 30.2858 78.0458 29.6692C78.0458 28.6833 77.9225 27.8192 77.675 26.8325H85.0767V28.6825L84.9533 28.6833ZM84.9533 25.97H77.1825C75.7025 22.6392 72.4958 20.42 68.6717 20.42C64.8483 20.42 61.6408 22.7625 60.1617 25.97H27.5992C26.1183 22.6392 22.9117 20.42 19.0883 20.42C15.265 20.42 12.0583 22.7625 10.5775 25.97H1.69749V22.7625H4.41083C4.65666 22.7625 4.90416 22.5167 4.90416 22.2692C4.90416 22.0217 4.65749 21.7758 4.41083 21.7758H1.69749V18.6925H4.41083C4.65666 18.6925 4.90416 18.4458 4.90416 18.1983C4.90416 17.9517 4.65749 17.705 4.41083 17.705H1.69749V17.0883C1.69749 16.1017 2.06749 15.1142 2.56083 14.375L10.3317 4.01416C11.565 2.28749 13.5383 1.30082 15.7583 1.30082H48.8142C50.7875 1.30082 52.6375 2.16499 53.9942 3.64416L62.75 13.8817C62.9975 14.2517 63.49 14.4983 63.86 14.4983L79.155 16.3483C81.2517 16.595 82.9792 17.8283 83.9658 19.555H79.6492C79.4017 19.555 79.155 19.8017 79.155 20.0492C79.155 20.2958 79.4017 20.5425 79.6483 20.5425H84.4583C84.7058 21.2825 84.8283 22.0225 84.8283 22.7625V25.97H84.9533Z" fill="#0F0F0F" stroke="#0F0F0F" stroke-width="0.3"/>
<path id="Vector_2" d="M72.8645 26.461C72.7412 26.3368 72.6187 26.091 72.4945 25.9668C71.5079 24.981 70.152 24.3635 68.6712 24.3635C67.9598 24.3661 67.2559 24.5091 66.5998 24.7842C65.9437 25.0594 65.3484 25.4612 64.8479 25.9668C64.7245 26.091 64.6012 26.3368 64.4779 26.461C64.3554 26.5843 64.2312 26.831 64.1079 26.9543C63.6145 27.8185 63.2445 28.681 63.2445 29.791C63.2445 30.4076 63.3679 31.0243 63.6145 31.5176C63.6145 31.6418 63.7379 31.8876 63.7379 32.0118C63.8604 32.1351 63.8604 32.3818 63.9845 32.5051C64.9712 34.1085 66.5745 35.0951 68.5479 35.0951C70.5212 35.0951 72.2479 33.9851 73.1112 32.5051C73.2345 32.3818 73.2345 32.1351 73.3587 32.0118C73.482 31.8876 73.4812 31.6418 73.4812 31.5176C73.7287 31.0243 73.8512 30.4076 73.8512 29.791C73.8512 28.8043 73.6045 27.8185 72.9887 26.9543C73.1112 26.831 72.9887 26.7076 72.8645 26.461ZM72.7412 31.5176C72.6187 31.6418 72.6187 31.8876 72.4945 32.0118C72.3712 32.1351 72.2479 32.3818 72.1245 32.5051C71.7225 33.0412 71.2011 33.4764 70.6017 33.7761C70.0023 34.0758 69.3413 34.2318 68.6712 34.2318C67.1912 34.2318 66.0812 33.6151 65.2179 32.5051C65.0945 32.3818 64.9712 32.1351 64.8479 32.0118C64.7254 31.8876 64.6012 31.6418 64.6012 31.5176C64.3545 31.0243 64.2304 30.4076 64.2304 29.791C64.2304 28.681 64.6012 27.8185 65.2179 26.9543C65.3412 26.831 65.4645 26.5843 65.7112 26.461C65.9579 26.3368 66.0812 26.091 66.3279 25.9668C66.9972 25.5613 67.7653 25.348 68.5479 25.3501C69.3305 25.3477 70.0986 25.5611 70.7679 25.9668C71.0145 26.091 71.262 26.2135 71.3845 26.461C71.5079 26.5843 71.7545 26.7068 71.8779 26.9543C72.4945 27.6943 72.8645 28.681 72.8645 29.791C73.1112 30.4076 72.9887 30.901 72.7412 31.5176ZM23.4045 26.461C23.2804 26.3368 23.1579 26.091 23.0345 25.9668C22.0479 24.981 20.6912 24.3635 19.2104 24.3635C18.4989 24.3661 17.795 24.5091 17.139 24.7842C16.4829 25.0594 15.8875 25.4612 15.387 25.9668C15.2637 26.091 15.1404 26.3368 15.017 26.461C14.8937 26.5843 14.7704 26.831 14.647 26.9543C14.1537 27.8185 13.7837 28.681 13.7837 29.791C13.7837 30.4076 13.907 31.0243 14.1537 31.5176C14.1537 31.6418 14.277 31.8876 14.277 32.0118C14.4004 32.1351 14.4004 32.3818 14.5237 32.5051C15.5104 34.1085 17.1137 35.0951 19.087 35.0951C21.0604 35.0951 22.787 33.9851 23.6504 32.5051C23.7745 32.3818 23.7745 32.1351 23.897 32.0118C24.0204 31.8876 24.0204 31.6418 24.0204 31.5176C24.267 31.0243 24.3912 30.4076 24.3912 29.791C24.3912 28.8043 24.1445 27.8185 23.5279 26.9543C23.5279 26.831 23.5279 26.7076 23.4045 26.461ZM23.1579 31.5176C23.0345 31.6418 23.0345 31.8876 22.9112 32.0118C22.7887 32.1351 22.6645 32.3818 22.5412 32.5051C22.1391 33.0412 21.6177 33.4764 21.0183 33.7761C20.4189 34.0758 19.758 34.2318 19.0879 34.2318C17.6079 34.2318 16.4979 33.6151 15.6345 32.5051C15.5112 32.3818 15.3879 32.1351 15.2645 32.0118C15.1404 31.8876 15.0179 31.6418 15.0179 31.5176C14.7712 31.0243 14.6479 30.4076 14.6479 29.791C14.6479 28.681 15.0179 27.8185 15.6345 26.9543C15.7579 26.831 15.8812 26.5843 16.1279 26.461C16.3754 26.3368 16.4979 26.091 16.7445 25.9668C17.414 25.561 18.1825 25.3476 18.9654 25.3501C19.8287 25.3501 20.5679 25.5968 21.1854 25.9668C21.432 26.091 21.6787 26.2135 21.802 26.461C21.9254 26.5843 22.172 26.7068 22.2954 26.9543C22.912 27.6943 23.282 28.681 23.282 29.791C23.5287 30.4076 23.4045 30.901 23.1579 31.5176ZM44.0029 15.731H41.5362C41.2895 15.731 41.042 15.9768 41.042 16.2243C41.042 16.471 41.2887 16.7176 41.5362 16.7176H44.0029C44.2495 16.7176 44.4962 16.471 44.4962 16.2243C44.4962 15.9768 44.2504 15.7301 44.0029 15.7301V15.731ZM26.8579 15.731H24.3912C24.1454 15.731 23.8979 15.9768 23.8979 16.2243C23.8979 16.471 24.1445 16.7176 24.3912 16.7176H26.8579C27.1045 16.7176 27.352 16.471 27.352 16.2243C27.352 15.9768 27.1054 15.7301 26.8579 15.7301V15.731ZM53.7462 5.12263C52.6354 3.64263 50.7854 2.7793 48.9354 2.7793H18.7162C16.7429 2.7793 15.0162 3.64346 13.7829 5.24596L8.60286 12.1543C8.23286 12.6476 8.23286 13.1401 8.47953 13.6335C8.72536 14.1276 9.21953 14.3743 9.71286 14.3743H58.1862C58.8029 14.3743 59.2962 14.0043 59.5429 13.5101C59.7904 13.0168 59.6662 12.4001 59.4195 12.0301L53.7462 5.12263ZM9.95953 13.5101C9.71286 13.5101 9.58953 13.3868 9.4662 13.2635C9.34203 13.141 9.34203 12.8935 9.4662 12.7701L14.6462 5.86263C15.632 4.50596 17.1129 3.76596 18.7162 3.76596H22.4162L19.9495 13.5101H9.96036H9.95953ZM21.0595 13.5101L23.5279 3.7668H37.8362L39.0695 13.511H21.0612L21.0595 13.5101ZM39.932 13.5101L38.6979 3.7668H48.9354C49.3054 3.7668 49.6754 3.7668 49.922 3.89013L53.622 13.511H39.9329L39.932 13.5101ZM58.6795 13.2635C58.5562 13.3876 58.4329 13.5101 58.1862 13.5101H54.7329L51.1562 4.26013C51.8736 4.6123 52.5051 5.1175 53.0062 5.74013L58.557 12.7701C58.6804 12.8935 58.8029 13.0168 58.6795 13.2635Z" fill="#0F0F0F" stroke="#0F0F0F" stroke-width="0.3"/>
</g>
<defs>
<clipPath id="clip0_1_2881">
<rect width="85.8333" height="40" fill="white"/>
</clipPath>
</defs>
</svg>
